<svg xmlns="http://www.w3.org/2000/svg" width="308" height="271" viewBox="0 0 308 271" fill="none"><g clip-path="url(#clip0_84_139)"><path d="M1.42434 191.805C1.86432 191.239 2.33332 190.696 2.82941 190.179C4.34166 188.652 5.89546 187.164 7.41021 185.637C12.3076 180.744 17.8327 176.522 23.8408 173.082C24.0872 172.938 24.3896 172.843 24.5385 172.443C24.5115 171.775 24.4945 171.019 24.4482 170.265C24.4019 169.48 24.5579 168.678 24.3188 167.929C23.8994 167.761 23.5163 167.829 23.1407 167.829C21.7479 167.824 20.3576 167.846 18.9648 167.824C18.0452 167.807 17.6671 167.443 17.5867 166.531C17.5134 165.692 17.4378 164.851 17.4329 164.01C17.411 161.059 17.4159 158.108 17.4183 155.156C17.4183 154.825 17.3622 154.478 17.5965 154.113C17.8909 153.839 18.2775 153.687 18.6793 153.686C20.282 153.639 21.8821 153.571 23.4823 153.505C23.8505 153.488 24.2383 153.581 24.6384 153.34C24.7994 152.888 24.7262 152.381 24.7238 151.886C24.7117 146.238 24.6847 140.589 24.6775 134.938C24.6726 132.495 24.7116 130.048 24.7189 127.605C24.7189 127.28 24.8092 126.924 24.4384 126.592H23.1286C21.6529 126.592 20.1771 126.614 18.7014 126.585C17.9598 126.573 17.5427 126.151 17.4403 125.424C17.4183 125.258 17.4306 125.088 17.4208 124.919C17.2183 121.254 17.3573 117.586 17.3037 113.918C17.2988 113.588 17.2646 113.24 17.4476 112.925C17.5893 112.77 17.7626 112.648 17.9558 112.566C18.149 112.485 18.3575 112.446 18.5671 112.452C19.9161 112.406 21.2626 112.306 22.609 112.289C25.2652 112.249 27.9216 112.252 30.5779 112.24C31.1682 112.237 31.761 112.249 32.3366 112.769C32.4318 114.659 32.2659 116.635 32.4488 118.591C34.7442 118.656 46.2499 118.53 47.0085 118.432C47.2378 118.142 47.1817 117.793 47.2159 117.461C47.2817 116.835 47.3232 116.203 47.4109 115.576C47.7431 113.452 48.2798 111.365 49.0136 109.345C50.4319 105.227 52.6847 101.446 55.6312 98.2382C57.0581 96.6798 58.6655 95.314 60.2364 93.9092C61.2438 93.0117 62.2487 92.1069 63.1904 91.1435C64.9474 89.3671 66.2589 87.2 67.0175 84.8195C67.2858 83.9757 67.5419 83.1294 67.759 82.2709C68.3908 79.7833 68.8591 77.2469 69.9787 74.9055C70.3568 73.3349 71.0812 71.9057 71.774 70.4619C72.4578 69.0583 73.3025 67.739 74.2912 66.5305C80.4161 58.9407 90.5828 53.8142 99.6201 52.9265C103.023 52.5899 106.365 52.7558 109.631 53.7337C111.765 54.3703 113.86 55.1483 115.943 55.9409C118.304 56.8573 120.547 58.0501 122.627 59.4943C124.261 60.6113 125.854 61.7942 127.437 62.9844C129.225 64.3257 131.03 65.6378 132.991 66.7231C135.447 68.084 138.038 69.0523 140.831 69.4254C141.32 69.4623 141.793 69.618 142.209 69.879C142.743 70.4912 142.648 71.1692 142.563 71.8399C142.295 74.0207 142.382 76.2305 142.821 78.3834C143.221 80.4076 143.641 82.4295 144.06 84.4513C144.585 86.9731 144.975 89.507 144.958 92.0947C144.928 93.4003 144.81 94.7024 144.604 95.992C144.431 97.209 143.865 98.3138 143.216 99.3601C141.596 101.983 139.603 104.357 137.301 106.408C137.101 106.586 136.779 106.691 136.808 107.089C137.279 107.255 137.757 107.416 138.228 107.596C139.854 108.184 141.407 108.956 142.858 109.896C143.637 110.408 144.208 111.182 144.465 112.079C144.72 112.927 144.893 113.797 144.98 114.679C145.009 114.959 144.963 115.283 145.312 115.481C145.453 115.412 145.591 115.336 145.724 115.252C148.287 113.474 150.841 111.686 153.412 109.915C158.722 106.26 164.038 102.609 169.36 98.9625C174.816 95.2189 180.275 91.476 185.734 87.734C192.167 83.327 198.6 78.9199 205.033 74.5129C205.268 74.352 205.575 74.2544 205.638 73.9227C205.635 73.8361 205.622 73.7502 205.599 73.6666C204.633 71.3473 204.202 68.9011 203.902 66.4305C203.524 63.3161 203.624 60.1919 203.958 57.0896C204.496 52.0469 205.974 47.1497 208.317 42.6516C210.266 38.8933 212.817 35.6374 216.234 33.0961C216.327 33.0278 216.447 32.9595 216.383 32.7741C216.137 32.4498 215.737 32.2864 215.383 32.0717C208.766 28.026 201.904 24.3964 194.835 21.2042C186.986 17.6605 178.939 14.6778 170.57 12.6047C168.328 12.0202 166.055 11.5626 163.762 11.2341C160.666 10.8341 157.564 10.5707 154.444 10.4073C148.919 10.1195 143.399 10.2902 137.884 10.6146C133.342 10.8804 128.815 11.3585 124.303 11.9731C120.21 12.5316 116.129 13.1437 112.07 13.9095C107.516 14.7704 103.015 15.8728 98.5566 17.1361C94.0074 18.4239 89.5754 20.0067 85.4262 22.3285C80.3893 25.1478 75.34 27.9525 70.3861 30.9206C64.4051 34.5033 58.7193 38.4908 53.6456 43.3052C50.404 46.383 46.9963 49.2755 43.657 52.2461C41.2484 54.3617 38.9861 56.6383 36.8857 59.0603C34.7465 61.5576 32.6732 64.1087 30.5486 66.6183C27.3776 70.3595 24.6237 74.3958 22.1358 78.6126C20.1624 81.9514 18.2004 85.2959 16.2499 88.6461C15.8011 89.4095 15.3693 90.1802 14.9474 90.9582C11.5739 97.1822 8.40053 103.516 4.82709 109.63C3.95383 111.128 2.89515 112.496 2.00736 113.979C1.97318 114.037 1.87562 114.057 1.80725 114.096C1.73352 114.054 1.67205 113.993 1.62887 113.92C1.58568 113.847 1.56227 113.764 1.56095 113.679C1.46579 112.459 1.39991 111.245 1.58047 110.023C2.05367 106.801 2.90014 103.672 3.92704 100.592C5.22216 96.709 6.87603 92.9702 8.63958 89.2802C11.5373 83.2245 14.962 77.4712 18.6769 71.8814C22.505 66.1725 26.6978 60.7168 31.2292 55.5483C34.9099 51.3144 38.7793 47.2586 42.8374 43.3808C48.1081 38.3376 53.6702 33.6078 59.4948 29.2158C66.9569 23.6313 74.8739 18.6818 83.1627 14.4192C90.005 10.8546 97.1848 7.97889 104.596 5.83442C106.538 5.27591 108.523 4.87838 110.458 4.28085C114.897 2.91021 119.448 2.05418 124.044 1.41276C126.673 1.04693 129.31 0.749377 131.962 0.559153C134.484 0.378664 137.008 0.225028 139.535 0.139664C142.865 0.0274848 146.197 0.0543105 149.529 0.0786921C152.398 0.0982076 155.259 0.283563 158.118 0.471345C160.43 0.622554 162.732 0.924988 165.042 1.12009C168.067 1.37861 171.067 1.83224 174.067 2.28344C177.4 2.7834 180.707 3.42969 184 4.15891C188.771 5.21256 193.484 6.51672 198.118 8.06598C199.516 8.53424 200.909 9.01958 202.324 9.43175C204.221 9.9963 206.09 10.6556 207.921 11.4072C213.597 13.6781 219.088 16.3878 224.342 19.5116C226.257 20.6579 228.172 21.8041 230.121 22.9723C230.236 22.9648 230.35 22.9426 230.46 22.9065C232.409 21.7017 234.524 20.8627 236.7 20.1945C240.006 19.1827 243.417 18.5478 246.866 18.3019C250.273 18.0548 253.696 18.1488 257.084 18.5824C261.311 19.1169 265.443 20.2373 269.361 21.9114C277.686 25.46 284.415 30.9743 289.599 38.364C292.663 42.7174 294.945 47.572 296.341 52.7094C298.54 60.5887 298.623 68.9085 296.58 76.8298C293.609 88.3167 286.409 98.2574 276.419 104.661C266.43 111.065 254.39 113.459 242.71 111.364C235.382 109.998 228.701 107.123 222.823 102.487C222.628 102.336 222.459 102.123 222.128 102.167C222.103 102.362 222.064 102.567 222.057 102.772C221.903 107.728 220.564 112.337 217.895 116.515C215.971 119.532 213.615 122.151 210.441 123.937C210.234 124.054 209.953 124.117 209.868 124.48C216.227 129.058 221.081 134.824 223.391 142.394C223.633 142.546 223.922 142.608 224.206 142.567C227.367 142.562 230.529 142.555 233.692 142.545C233.938 142.543 234.207 142.584 234.409 142.279C234.449 141.245 234.646 140.223 234.994 139.248C236.836 134.207 240.268 130.675 245.215 128.668C250.125 126.675 255.013 126.91 259.809 129.134C261.832 130.099 263.648 131.45 265.153 133.112C267.392 135.494 268.864 138.494 269.375 141.723C269.414 141.965 269.363 142.23 269.634 142.518C269.963 142.533 270.375 142.569 270.788 142.569C274.581 142.572 278.376 142.545 282.171 142.574C288.03 142.621 293.892 142.465 299.751 142.716C301.778 142.804 303.773 143.111 305.788 143.262C306.695 143.33 307.249 143.913 307.271 144.85C307.278 145.145 307.276 145.44 307.271 145.735C307.244 147.335 307.193 148.937 307.188 150.537C307.169 158.759 307.156 166.98 307.149 175.201C307.132 187.51 307.115 199.821 307.098 212.133C307.069 224.232 307.217 236.332 306.866 248.428C306.854 248.804 306.912 249.192 306.688 249.553C306.149 250.148 305.449 250.314 304.649 250.309C302.078 250.289 299.504 250.311 296.934 250.311C289.85 250.314 282.766 250.315 275.681 250.314C267.417 250.314 259.153 250.315 250.888 250.319C250.554 250.319 250.213 250.262 249.815 250.462C249.642 250.648 249.415 250.894 249.186 251.143C245.378 255.267 241.373 259.184 236.96 262.671C234.282 264.79 231.449 266.705 228.484 268.4C227.496 268.964 226.421 269.359 225.481 270.017C225.152 270.214 224.772 270.309 224.389 270.29C223.589 270.315 222.789 270.356 221.988 270.364C219.249 270.386 216.51 270.402 213.771 270.412C211.495 270.42 209.219 270.429 206.943 270.422C204.414 270.412 201.884 270.376 199.355 270.366C196.108 270.354 192.862 270.359 189.618 270.351C187.213 270.344 184.81 270.303 182.407 270.327C179.078 270.364 175.748 270.488 172.419 270.503C161.749 270.554 151.082 270.586 140.416 270.6C135.608 270.612 130.803 270.554 125.998 270.705C123.261 270.79 120.522 270.639 117.78 270.69C114.285 270.756 110.784 270.61 107.284 270.698C105.769 270.737 104.247 270.595 102.733 270.664C99.6982 270.8 96.6613 270.754 93.6269 270.761C87.5557 270.778 81.4845 270.737 75.4133 270.715C74.1912 270.71 72.9691 270.671 71.7472 270.673C70.064 270.673 68.381 270.698 66.6954 270.71C66.6115 270.71 66.5276 270.705 66.4442 270.695C64.4298 270.517 62.4069 270.454 60.3852 270.505C59.8803 270.522 59.3754 270.505 58.868 270.515C58.3613 270.517 57.8632 270.385 57.424 270.132C56.4263 269.586 55.4172 269.06 54.3969 268.554C52.1694 267.448 50.0218 266.188 47.9695 264.783C43.0528 261.433 38.4957 257.584 34.3709 253.296C30.9047 249.716 27.663 245.948 24.8823 241.802C23.6383 239.946 22.4284 238.068 21.2113 236.195C19.2773 233.229 17.5181 230.152 15.9426 226.981C14.001 223.052 12.083 219.112 10.1885 215.16C8.44438 211.509 6.84585 207.795 5.39296 204.017C4.11237 200.673 2.92695 197.293 1.47807 194.015C1.27559 193.556 1.14136 193.069 0.973072 192.588C1.10294 192.316 1.25381 192.054 1.42434 191.805ZM19.0989 154.898C18.7501 155.188 18.8501 155.547 18.8501 155.866C18.8404 158.054 18.8526 160.242 18.8404 162.429C18.838 163.271 18.777 164.11 18.7599 164.951C18.7526 165.278 18.6355 165.614 18.872 166.066C22.8455 166.163 26.7995 166.005 30.7462 166.224C30.8585 166.216 30.9688 166.191 31.0732 166.148C31.3365 165.936 31.2804 165.668 31.2804 165.427C31.2755 162.524 31.2731 159.62 31.2511 156.717C31.2487 156.181 31.2829 155.625 30.9999 155.032C27.0362 154.917 23.0456 155.049 19.0989 154.898ZM30.9706 113.942C30.6072 113.657 30.1706 113.771 29.7633 113.769C27.1556 113.747 24.5482 113.747 21.9406 113.73C21.1015 113.723 20.2601 113.681 19.4209 113.654C19.216 113.649 19.0038 113.605 18.7965 113.786C18.7523 113.889 18.7227 113.997 18.7086 114.108C18.7038 117.635 18.7038 121.159 18.7038 124.822C22.7382 124.944 26.6873 124.773 30.6291 124.99C30.7374 124.98 30.8431 124.951 30.9414 124.905C31.1414 124.705 31.1121 124.488 31.1194 124.283C31.2145 120.807 31.1341 115.12 30.9706 113.942ZM50.0941 131.936C48.3111 128.614 47.4963 125.024 47.1744 121.251C46.3133 121.151 34.4148 121.037 32.6196 121.095C32.3537 121.259 32.4 121.529 32.4025 121.771C32.4097 123.034 32.422 124.297 32.4464 125.561C32.4557 125.698 32.4337 125.835 32.3822 125.962C32.3306 126.089 32.2508 126.203 32.1488 126.295C31.3146 126.612 30.3682 126.38 29.4584 126.519C28.5949 126.651 27.7021 126.502 26.7874 126.641C26.6216 127.178 26.663 127.683 26.6678 128.175C26.6775 130.07 26.724 131.968 26.724 133.863C26.7264 139.343 26.7207 144.822 26.7068 150.301C26.7068 150.806 26.6654 151.31 26.6556 151.815C26.6459 152.315 26.6533 152.813 26.6533 153.208C26.9215 153.549 27.1898 153.493 27.4337 153.493C28.4876 153.493 29.5413 153.487 30.595 153.474C31.1463 153.469 31.6902 153.491 32.1781 153.754C32.2889 153.855 32.3766 153.979 32.4351 154.117C32.4936 154.255 32.5216 154.404 32.5171 154.554C32.5317 154.764 32.5342 154.976 32.5342 155.186C32.5269 159.017 32.5635 162.851 32.5756 166.683C32.5781 166.987 32.5733 167.275 32.1781 167.575C30.4536 167.795 28.5656 167.761 26.7166 167.843C26.5164 169.064 26.4934 170.307 26.6484 171.533C27.0825 171.497 27.4362 171.253 27.8143 171.077C29.6096 170.243 31.3902 169.38 33.1952 168.57C34.1928 168.121 35.2124 167.714 36.2467 167.358C37.2784 167 38.3395 166.729 39.3908 166.419C39.6787 166.195 39.7104 165.836 39.8226 165.527C40.7663 162.823 41.8725 160.178 43.135 157.608C45.0763 153.72 47.4801 150.081 50.2942 146.769C52.2014 144.514 54.3696 142.494 56.7532 140.75C57.0167 140.56 57.341 140.431 57.5387 140.04C54.5286 137.836 51.8869 135.275 50.0941 131.936ZM79.2721 144.645C79.0989 144.479 78.8819 144.535 78.6769 144.545C78.0037 144.577 77.3305 144.618 76.6573 144.66C72.8242 144.903 68.9767 144.551 65.2514 143.616C63.538 143.171 61.8802 142.535 60.3096 141.718C59.9754 141.548 59.6412 141.374 59.3705 141.235C58.9753 141.306 58.7656 141.526 58.5338 141.704C56.5328 143.255 54.716 145.029 53.1188 146.994C51.3871 149.063 49.8042 151.253 48.3818 153.547C45.7011 157.951 43.3789 162.527 41.8374 167.465C41.0167 169.99 40.4048 172.579 40.008 175.204C39.7021 177.334 39.6138 179.49 39.7445 181.638C39.8282 183.113 40.1418 184.566 40.6739 185.945C41.0234 186.898 41.5703 187.766 42.2788 188.493C42.4405 188.685 42.6688 188.809 42.9179 188.84C48.2501 185.23 53.6262 181.528 59.0242 177.86C64.427 174.192 69.8884 170.609 75.4352 166.912C76.7476 159.542 78.0534 152.194 79.3526 144.869C79.3647 144.803 79.3014 144.723 79.2721 144.645ZM25.8678 203.914C27.4143 207.343 29.2315 210.614 31.6414 213.528C32.3251 214.356 33.081 215.122 33.9002 215.816C45.7597 207.724 57.2094 199.319 69.1835 191.566C70.7958 187.584 72.4252 183.561 74.0717 179.499C73.596 178.804 73.5862 178.043 73.7521 177.218C73.9742 176.106 74.0961 174.972 74.2546 173.846C74.2532 173.715 74.2368 173.585 74.2058 173.458C74.0787 173.492 73.9566 173.543 73.8424 173.609C70.9422 175.855 67.8906 177.889 64.888 179.994C59.3656 183.862 53.8383 187.723 48.3062 191.579C47.3402 192.252 46.3572 192.92 45.1401 193.074C45.0124 193.076 44.8849 193.064 44.7596 193.039C45.0149 192.312 45.4822 191.677 46.1012 191.218C47.111 190.457 48.1233 189.698 49.1574 188.974C55.958 184.211 62.7609 179.453 69.5664 174.702C71.1595 173.561 72.8159 172.511 74.5278 171.558C74.8684 170.637 75.0323 169.661 75.0108 168.68C74.9298 168.664 74.8462 168.668 74.7669 168.691C74.6876 168.714 74.6149 168.755 74.5547 168.812C58.3582 180.338 42.1228 191.805 25.6848 202.858C25.5556 203.309 25.7312 203.614 25.8678 203.914ZM24.5457 205.731C22.3139 208.153 21.9017 212.189 24.697 214.823C26.3996 216.428 28.4241 216.84 30.6657 216.321C30.773 216.296 30.8584 216.172 30.9878 216.065C28.3558 212.962 26.1556 209.604 24.5457 205.731ZM141.365 99.821C142.589 98.0723 143.182 96.1213 143.385 94.0434C143.592 91.9004 143.499 89.7391 143.109 87.6218C143.08 87.3068 142.967 87.0053 142.782 86.7487C141.028 86.6316 139.396 85.9682 137.823 85.1415C137.361 84.9317 136.951 84.6218 136.623 84.2342C136.143 83.6026 136.394 82.8636 137.162 82.6685C137.577 82.5802 138.006 82.586 138.418 82.6855C139.329 82.8574 140.219 83.1239 141.075 83.4806C141.416 83.6269 141.728 83.8806 142.155 83.8489C142.348 83.4733 142.143 83.1148 142.077 82.766C141.814 81.4027 141.492 80.0491 141.238 78.6834C140.948 77.1078 140.811 75.5076 140.831 73.9056C140.843 72.8862 141.067 71.9033 141.226 70.9473C141.053 70.6961 140.833 70.7351 140.631 70.7278C138.774 70.6548 136.943 70.2647 135.218 69.5742C133.405 68.8838 131.678 67.986 130.071 66.8987C128.961 66.133 127.869 65.3452 126.771 64.5623C126.327 64.2453 125.893 63.9111 125.542 63.6502C125.017 63.5209 124.686 63.7209 124.364 63.9185C122.529 65.0501 121.329 66.6817 120.629 68.6962C120.505 69.0523 120.444 69.4303 120.339 69.7937C120.288 69.9976 120.212 70.1943 120.112 70.379C120.041 70.5096 119.934 70.6168 119.803 70.6873C119.672 70.7579 119.523 70.7889 119.375 70.7765C119.206 70.7667 119.043 70.7057 118.909 70.6017C118.775 70.4976 118.676 70.3554 118.624 70.1937C118.567 69.991 118.536 69.7821 118.531 69.5717C118.511 68.9808 118.607 68.3915 118.814 67.8377C119.567 65.8109 120.863 64.0304 122.561 62.6917C122.693 62.5893 122.839 62.499 122.971 62.3966C123.068 62.321 123.154 62.2332 123.246 62.1527C121.822 60.448 115.509 57.0652 112.16 56.2068C111.997 56.3653 112.116 56.5165 112.182 56.6604C112.921 58.3164 113.602 59.9919 114.209 61.6991C115.563 65.4964 116.275 69.4205 116.612 73.4227C116.817 75.864 116.917 78.3029 116.658 80.7442C116.631 80.9954 116.612 81.2466 116.563 81.4954C116.546 81.6218 116.491 81.7398 116.404 81.833C116.317 81.9261 116.203 81.9897 116.078 82.0148C115.738 81.9734 115.612 81.6758 115.431 81.4588C114.479 80.3287 113.371 79.3393 112.141 78.5199C108.948 76.3713 104.999 76.7737 102.357 79.254C101.128 80.4076 100.44 81.8344 100.515 83.5294C100.549 84.4177 100.759 85.2905 101.134 86.0966C101.509 86.9027 102.041 87.626 102.698 88.2242C103.345 88.8328 104.096 89.3194 104.916 89.6607C106.75 90.4184 108.704 90.8461 110.687 90.924C111.606 90.9655 112.528 90.9069 113.526 90.8923C113.833 91.0679 113.851 91.4898 113.968 91.8288C114.531 93.4726 114.909 95.1628 114.792 96.9066C114.669 98.846 114.185 100.745 113.363 102.506C112.509 104.321 111.28 105.862 109.96 107.347C109.66 107.686 109.301 107.981 109.099 108.35C109.228 108.667 109.465 108.628 109.658 108.681C113.807 109.803 118.026 110.606 122.261 111.337C122.802 111.429 123.354 111.436 123.898 111.359C125.737 111.123 127.549 110.705 129.305 110.111C130.185 109.815 131.024 109.411 131.803 108.908C135.54 106.455 138.789 103.501 141.365 99.821ZM188.322 88.4071C182.424 92.4703 176.526 96.5375 170.628 100.609C165.352 104.243 160.073 107.871 154.79 111.493C152.915 112.781 151.041 114.074 149.156 115.349C147.865 116.22 146.558 117.066 145.173 117.981C144.914 118.559 144.994 119.288 144.824 119.866C144.924 120.151 145.038 120.261 145.226 120.293C145.305 120.289 145.383 120.271 145.455 120.239C149.617 117.291 153.832 114.423 158.074 111.591C163.506 107.964 168.901 104.282 174.35 100.68C176.951 98.9626 179.551 97.2407 182.249 95.675C183.559 94.914 184.8 94.0336 186.069 93.1995C186.981 92.5927 187.941 92.0601 188.939 91.6069C189.325 91.4338 189.722 91.2704 190.115 91.5874C190.274 91.9874 190.03 92.2459 189.798 92.4825C189.048 93.2241 188.234 93.8982 187.366 94.497C186.954 94.7897 186.527 95.0604 186.112 95.353C183.395 97.2749 180.695 99.2211 177.963 101.121C175.124 103.092 172.263 105.028 169.396 106.96C164.577 110.211 159.749 113.452 154.912 116.683C152.668 118.181 150.385 119.615 148.126 121.09C147.743 121.342 147.304 121.527 147.021 121.92C147.143 122.3 147.453 122.539 147.705 122.81C149.312 124.544 150.712 126.446 152.134 128.329C153.481 130.114 154.825 131.897 156.347 133.538C157.03 134.277 157.732 134.994 158.474 135.685C160.33 134.407 162.118 133.148 163.933 131.926C167.848 129.29 171.777 126.675 175.697 124.046C178.322 122.285 180.929 120.498 183.563 118.754C185.039 117.776 186.547 116.847 188.054 115.922C188.745 115.518 189.325 114.95 189.745 114.269C190.532 112.969 191.525 111.808 192.528 110.674C194.403 108.55 195.66 106.094 196.611 103.457C197.043 102.27 197.462 101.079 197.887 99.8869C198.219 98.9317 198.632 98.0065 199.121 97.1212C199.438 96.5224 199.873 95.9946 200.401 95.5701C201.56 94.6775 202.902 94.7458 203.955 95.7481C204.498 96.2826 204.911 96.9341 205.163 97.6529C205.707 99.1016 205.804 100.611 205.755 102.136C205.724 103.14 205.646 104.145 205.59 105.106C205.899 105.326 206.046 105.116 206.197 105.013C211.89 101.17 217.561 97.2919 223.274 93.4775C227.97 90.3412 232.711 87.2755 237.434 84.1781C237.782 83.9489 238.126 83.7123 238.456 83.4928C238.583 82.8294 238.368 82.2588 238.205 81.7076C237.939 80.7327 237.599 79.7796 237.187 78.8565C235.543 75.3616 233.458 72.1618 230.699 69.4279C230.221 68.9519 229.705 68.5147 229.157 68.1206C228.951 67.9776 228.763 67.8087 228.599 67.6182C228.501 67.505 228.443 67.3632 228.433 67.2142C228.423 67.0651 228.461 66.9168 228.543 66.7915C228.613 66.6609 228.721 66.5541 228.852 66.4846C228.983 66.4152 229.132 66.3862 229.279 66.4012C229.576 66.4255 229.858 66.5434 230.084 66.7378C230.884 67.3524 231.733 67.9231 232.463 68.6157C235.489 71.453 237.804 74.9641 239.219 78.8639C239.473 79.5687 239.661 80.2979 239.88 81.0149C239.935 81.0027 239.989 80.9864 240.041 80.9662C240.079 80.948 240.113 80.9241 240.144 80.8954C240.175 80.8681 240.203 80.8369 240.227 80.8027C240.29 80.6954 240.351 80.5833 240.414 80.4735C243.941 74.2373 247.747 68.167 251.432 62.0235C251.732 61.5211 252.081 61.0479 252.393 60.5846C252.371 60.5193 252.324 60.4651 252.263 60.4329C252.202 60.4007 252.131 60.3931 252.064 60.4114C249.791 60.8796 247.481 61.0967 245.181 61.3601C242.293 61.6893 239.402 61.9966 236.514 62.3015C234.502 62.5137 232.489 62.7015 230.48 62.9039C229.431 63.0088 228.379 63.0917 227.338 63.2356C226.324 63.3788 225.298 63.4131 224.277 63.338C223.562 63.8819 222.833 64.4477 222.096 65.0013C218.525 67.6914 214.8 70.1595 211.124 72.6984C203.531 77.9444 195.93 83.1806 188.322 88.4071ZM159.742 136.899C160.32 137.421 160.808 137.877 161.315 138.314C162.757 139.56 164.286 140.674 166.069 141.392C167.752 142.07 169.477 142.299 171.255 141.777C172.458 141.423 173.455 140.733 174.351 139.879C175.282 138.96 176.066 137.902 176.675 136.743C177.531 135.194 178.344 133.624 179.173 132.06C179.668 131.131 180.163 130.202 180.658 129.273C180.834 128.939 181.049 128.622 181.066 128.224C181.151 126.246 182.188 124.724 183.471 123.349C184.538 122.203 185.832 121.291 187.271 120.673C187.461 120.59 187.642 120.481 187.825 120.378C187.866 120.35 187.903 120.317 187.937 120.281C188.01 119.42 188.086 118.547 188.171 117.547C178.69 124.076 169.279 130.485 159.742 136.899ZM204.082 110.489C203.838 110.931 203.696 111.423 203.667 111.928C203.599 113.071 204.253 113.774 205.385 113.764C205.826 113.772 206.264 113.687 206.671 113.516C207.078 113.344 207.444 113.089 207.746 112.767C209.09 111.369 209.914 109.691 210.483 107.869C210.813 106.826 210.957 105.733 210.907 104.64C210.921 104.411 210.87 104.182 210.761 103.979C210.709 103.94 210.652 103.908 210.592 103.882C210.55 103.877 210.507 103.887 210.47 103.909C208.707 104.882 207.112 106.126 205.27 107.033C205.05 108.238 204.65 109.403 204.082 110.489ZM211.322 109.979C211.217 110.233 210.951 110.452 211.112 110.852C212.422 109.73 213.766 108.713 214.434 107.035C215.12 105.318 215.812 103.611 216.168 101.789C216.303 101.284 216.303 100.753 216.168 100.248C214.734 101.167 213.437 101.999 212.107 102.848C212.883 105.374 212.271 107.696 211.322 109.979ZM214.888 37.4519C212.709 39.8074 210.928 42.5018 209.614 45.4294C207.985 48.9731 206.978 52.6948 206.351 56.5433C205.942 59.1234 205.787 61.7374 205.89 64.3477C205.99 67.0437 206.382 69.7208 207.058 72.3325C207.1 72.4935 207.163 72.6496 207.219 72.8154C207.568 72.891 207.77 72.6472 207.995 72.4935C210.053 71.1034 212.122 69.723 214.159 68.2987C216.712 66.5085 219.309 64.7851 221.949 63.1283C222.772 62.6164 223.626 62.157 224.506 61.7527C224.973 61.5615 225.466 61.4414 225.969 61.3967C228.184 61.1162 230.404 60.865 232.619 60.6016C235.294 60.2797 237.968 59.948 240.646 59.6358C242.402 59.4334 244.163 59.2553 245.922 59.0724C246.493 59.0433 247.056 58.929 247.593 58.7334C247.081 58.1505 246.627 57.6579 246.198 57.1433C242.58 52.8338 238.448 49.056 234.158 45.444C229.767 41.7467 225.113 38.4103 220.344 35.2252C219.859 34.9008 219.359 34.596 218.844 34.2667C217.387 35.1435 216.056 36.2151 214.888 37.4519ZM208.553 13.9632C204.141 11.9389 199.538 10.4341 194.906 9.00983C190.432 7.63188 185.878 6.59536 181.293 5.66615C178.112 5.01985 174.916 4.46947 171.704 4.01503C168.453 3.55164 165.189 3.16143 161.91 2.89316C154.726 2.28526 147.515 2.05731 140.306 2.21027C136.85 2.28831 133.398 2.47855 129.957 2.84925C128.198 3.03949 126.437 3.21507 124.676 3.38824C122.156 3.63701 119.673 4.10527 117.18 4.52475C112.32 5.35692 107.536 6.5895 102.879 8.20989C98.9347 9.57077 95.0685 11.1365 91.2682 12.8608C87.6215 14.5144 84.0334 16.2898 80.5356 18.2409C75.3186 21.1763 70.2644 24.3922 65.3954 27.8745C59.0272 32.3821 52.9533 37.2918 47.211 42.5735C40.4714 48.7829 34.1709 55.4093 28.4583 62.5795C23.8579 68.3572 19.5478 74.3373 15.7913 80.7052C12.0813 86.9999 8.82003 93.5068 6.32233 100.384C5.76123 101.928 5.20185 103.473 4.64418 105.018C4.58378 105.141 4.5534 105.277 4.55552 105.414C4.55763 105.551 4.59217 105.685 4.65632 105.806C5.68323 103.909 6.65654 102.138 7.60043 100.353C8.76156 98.1528 9.908 95.9465 11.0398 93.7336C13.0521 89.7875 15.3402 86 17.5647 82.1734C18.9599 79.7687 20.4235 77.4029 21.8528 75.0177C23.5058 72.2707 25.3555 69.647 27.3874 67.167C29.5999 64.4575 31.8073 61.743 34.0636 59.0676C36.1971 56.5085 38.5148 54.1088 40.9982 51.8875C45.423 47.978 49.8552 44.0807 54.192 40.0785C56.7717 37.7119 59.5314 35.5495 62.4463 33.6107C67.0736 30.5157 71.8032 27.5915 76.7011 24.9405C79.96 23.1748 83.1699 21.3163 86.4824 19.6457C91.0609 17.3361 95.871 15.6899 100.796 14.3388C106.204 12.8535 111.706 11.7926 117.229 10.8463C121.341 10.1415 125.481 9.63173 129.635 9.20493C133.662 8.79275 137.696 8.5123 141.736 8.30498C145.864 8.09565 150.001 8.09484 154.129 8.30256C156.825 8.41164 159.511 8.69925 162.169 9.16347C163.533 9.41469 164.928 9.51222 166.304 9.70491C170.653 10.3195 174.897 11.3877 179.09 12.6803C184.648 14.3878 190.103 16.4146 195.428 18.7507C201.135 21.2672 206.708 24.0781 212.124 27.1721C217.59 30.2699 222.874 33.6777 227.95 37.3787C232.114 40.4004 236.078 43.6884 239.817 47.222C242.344 49.6445 244.707 52.2322 246.891 54.9678C247.595 55.8633 248.24 56.8034 248.822 57.7823C248.996 58.0676 249.171 58.3505 249.359 58.6554C250.318 58.6261 251.237 58.592 252.157 58.57C253.759 58.5335 254.094 58.7798 254.591 60.3455C254.603 60.387 254.606 60.4285 254.625 60.5382C254.552 60.8406 254.467 61.2016 254.384 61.5503C255.55 62.3405 257.138 62.7551 258.343 62.5917C259.631 62.4186 260.479 61.6674 260.836 60.4065C261.013 59.7539 261.063 59.0734 260.984 58.4018C260.778 56.5994 260.334 54.8322 259.665 53.146C259.421 52.5614 259.097 52.0132 258.704 51.5168C256.913 49.1177 254.977 46.8306 252.906 44.6685C248.36 39.9094 243.419 35.5444 238.136 31.6206C228.93 24.7013 219.013 18.7822 208.553 13.9632ZM221.925 99.282C222.259 99.7406 222.803 100.004 223.274 100.348C225.81 102.237 228.514 103.889 231.353 105.284C235.271 107.158 239.433 108.472 243.717 109.189C247.505 109.821 251.36 109.958 255.184 109.594C260.399 109.105 265.483 107.672 270.185 105.365C274.681 103.21 278.783 100.317 282.323 96.8066C287.782 91.3704 291.548 84.9342 293.711 77.5395C296.524 67.8622 295.951 57.5149 292.087 48.2073C289.057 40.9248 284.425 34.8708 278.191 30.0451C272.733 25.8292 266.369 22.9425 259.601 21.6139C255.628 20.8193 251.561 20.6 247.525 20.9627C243.955 21.2934 240.438 22.0584 237.053 23.2406C235.977 23.6113 234.912 24.004 233.843 24.3966C233.572 24.4991 233.314 24.6356 233.045 24.7576C233.228 25.1722 233.604 25.3137 233.909 25.5258C237.869 28.2478 241.688 31.171 245.349 34.2838C248.303 36.8007 251.152 39.4322 253.74 42.3296C255.086 43.8368 256.416 45.366 257.55 47.0488C257.807 47.4341 258.085 47.8046 258.384 48.1585C259.711 49.7072 260.743 51.4437 261.653 53.2557C262.436 54.848 262.902 56.5777 263.024 58.3481C263.065 59.1061 263.019 59.8663 262.887 60.6138C262.521 63.0112 260.56 64.955 257.428 64.777C256.289 64.6996 255.173 64.4231 254.13 63.9599C253.872 63.8502 253.628 63.6404 253.289 63.7136C252.967 63.9233 252.835 64.294 252.642 64.6111C250.332 68.4352 248.026 72.261 245.725 76.0884C244.268 78.5078 242.758 80.8922 241.193 83.2416C240.785 83.8815 240.254 84.433 239.629 84.8634C238.261 85.7756 236.919 86.7267 235.546 87.6267C231.601 90.2192 227.652 92.8028 223.696 95.3774C222.959 95.8579 222.221 96.3399 221.481 96.8236C221.635 97.6748 221.776 98.4553 221.925 99.282ZM219.942 98.0894C219.725 97.948 219.542 98.0602 219.369 98.1724C218.769 98.5577 218.176 98.9504 217.556 99.3552C217.556 99.7308 217.544 100.065 217.559 100.397C217.637 102.028 217.222 103.574 216.705 105.091C216.436 105.845 216.127 106.584 215.781 107.306C214.459 110.194 212.315 112.349 209.68 114.052C208.659 114.731 207.505 115.183 206.295 115.379C205.88 115.451 205.458 115.476 205.038 115.452C203.385 115.325 202.343 114.257 202.219 112.608C202.153 111.805 202.309 110.999 202.67 110.279C202.957 109.671 203.161 109.027 203.277 108.364C203.733 106.133 204.097 103.892 204.092 101.604C204.079 100.803 203.996 100.005 203.843 99.2186C203.734 98.5938 203.506 97.9959 203.17 97.4578C203.054 97.2414 202.895 97.0513 202.702 96.8994C202.51 96.7475 202.288 96.637 202.05 96.5749C201.511 96.6822 201.206 97.031 200.921 97.4017C200.481 97.9695 200.134 98.6033 199.892 99.2796C199.506 100.348 199.148 101.426 198.794 102.506C198.16 104.426 197.538 106.345 196.567 108.135C195.657 109.811 194.508 111.311 193.289 112.769C192.669 113.51 192.079 114.281 191.508 115.061C190.625 116.271 190.103 117.647 189.759 119.093C189.735 119.24 189.725 119.388 189.727 119.537C189.876 119.761 190.04 119.72 190.203 119.681C193.657 118.871 197.06 119.193 200.44 120.125C202.999 120.838 205.456 121.874 207.753 123.207C208.007 123.354 208.27 123.483 208.512 123.612C216.408 119.271 222.018 107.584 219.942 98.0894ZM221.21 143.994C220.884 142.554 220.391 141.157 219.742 139.831C215.773 131.658 209.47 126.056 200.955 122.978C197.771 121.798 194.329 121.496 190.988 122.103C188.013 122.646 185.581 124.154 183.695 126.529C183.192 127.205 182.816 127.968 182.588 128.78C181.531 132.073 180.097 135.233 178.314 138.197C177.739 139.179 177.068 140.103 176.312 140.955C175.423 141.975 174.339 142.807 173.124 143.401C171.272 144.274 169.36 144.572 167.345 144.104C165.945 143.792 164.6 143.274 163.352 142.567C161.534 141.496 159.845 140.221 158.315 138.767C155.673 136.282 153.241 133.583 151.044 130.697C149.758 129.029 148.514 127.327 147.234 125.654C145.83 123.858 144.234 122.222 142.472 120.776C141.031 119.569 139.348 118.8 137.628 118.095C137.316 117.966 136.991 117.866 136.689 117.722C136.54 117.669 136.409 117.574 136.311 117.45C136.214 117.325 136.154 117.175 136.138 117.017C136.421 116.6 136.865 116.578 137.338 116.637C138.598 116.768 139.826 117.117 140.967 117.669C141.643 118.01 142.297 118.398 142.963 118.759C143.216 118.898 143.431 119.13 143.753 119.122C143.941 118.903 143.865 118.644 143.841 118.41C143.65 116.654 143.689 114.871 143.275 113.14C143.258 113.074 143.163 113.027 143.05 112.923C142.497 113.086 141.943 113.384 141.326 113.51C140.084 113.751 138.826 113.896 137.562 113.945C135.03 114.064 132.506 113.876 129.986 113.652C127.552 113.435 125.129 113.113 122.717 112.728C118.009 111.976 113.36 110.989 108.838 109.457C108.689 109.413 108.537 109.379 108.384 109.355C107.945 109.477 107.75 109.82 107.518 110.113C106.492 111.401 105.665 112.835 105.064 114.369C104.226 116.529 103.577 118.757 103.125 121.029C102.545 123.834 101.886 126.629 100.81 129.292C99.1177 133.502 96.321 137.177 92.7147 139.931C90.0218 142.018 86.9313 143.177 83.6163 143.806C83.2041 143.884 82.7773 143.899 82.3967 144.16C82.3394 144.264 82.2936 144.374 82.2601 144.489C80.2526 155.681 78.3331 166.885 76.1206 177.987C76.3426 178.292 76.6108 178.245 76.8548 178.235C83.0943 178.009 89.3315 178.206 95.571 178.238C98.7737 178.253 101.976 178.374 105.179 178.453C109.14 178.548 113.102 178.614 117.06 178.755C119.124 178.828 121.18 179.038 123.239 179.182C123.571 179.206 123.905 179.299 124.334 179.155C125.342 177.153 126.476 175.143 127.657 173.158C128.839 171.168 130.159 169.258 131.176 167.231C131.125 166.853 130.891 166.653 130.718 166.422C129.449 164.734 128.313 162.961 127.149 161.202C126.661 160.466 126.149 159.744 125.62 159.034C123.878 156.708 122.119 154.391 120.373 152.066C120.097 151.698 119.785 151.345 119.692 150.859C119.677 150.691 119.721 150.523 119.816 150.383C119.91 150.243 120.05 150.14 120.212 150.091C120.634 149.95 120.963 150.13 121.215 150.442C121.88 151.259 122.544 152.079 123.178 152.918C125.873 156.481 128.513 160.088 131.296 163.583C133.423 166.256 135.54 168.934 137.887 171.419C138.523 172.094 139.153 172.777 139.828 173.411C142.504 175.919 145.019 178.596 147.802 180.989C150.041 182.911 152.319 184.781 154.81 186.381C156.651 187.57 158.588 188.603 160.601 189.471C163.636 190.772 166.94 191.321 170.233 191.071C171.748 190.963 173.248 190.703 174.711 190.296C178.489 189.229 182.085 187.603 185.381 185.472C189.72 182.706 193.874 179.674 197.945 176.531C200.365 174.63 202.686 172.606 204.899 170.468C206.643 168.814 208.402 167.175 210.114 165.492C211.558 164.075 212.946 162.602 214.363 161.159C214.873 160.641 215.307 160.088 215.317 159.322C215.489 159.183 215.676 159.064 215.876 158.968C216.303 158.829 216.571 158.517 216.849 158.195C217.831 157.038 218.716 155.802 219.493 154.498C220.083 153.525 220.644 152.535 221.235 151.564C221.445 151.2 221.583 150.8 221.642 150.384C222.006 148.215 221.684 146.099 221.21 143.994ZM237.16 199.812C237.146 195.429 237.092 191.047 237.068 186.664C237.058 184.979 237.082 183.291 237.102 181.606C237.16 176.801 237.221 171.998 237.285 167.195C237.302 165.805 237.297 164.414 237.431 163.027C237.495 162.361 237.443 161.685 237.443 161.076C237.221 160.771 236.956 160.815 236.709 160.815C230.848 160.805 224.988 160.798 219.13 160.795C218.922 160.793 218.715 160.82 218.481 160.837C218.252 161.09 218.02 161.334 217.803 161.588C215.859 163.868 213.776 166.017 211.627 168.1C208.722 170.919 205.792 173.711 202.721 176.348C200.001 178.684 197.113 180.806 194.213 182.908C192.232 184.342 190.234 185.75 188.217 187.132C184.89 189.444 181.243 191.259 177.392 192.52C174.263 193.552 170.976 194.027 167.682 193.922C164.428 193.787 161.24 192.969 158.322 191.522C154.156 189.475 150.285 186.876 146.814 183.794C142.211 179.745 138.021 175.306 134.074 170.631C133.774 170.275 133.474 169.921 133.169 169.573C133.106 169.516 133.036 169.467 132.962 169.426C132.65 169.446 132.603 169.729 132.481 169.931C130.991 172.377 129.51 174.831 128.013 177.275C127.395 178.287 126.698 179.249 125.927 180.15C125.92 180.601 126.166 180.801 126.325 181.038C132.24 189.91 138.1 198.819 143.904 207.763C144.568 208.787 145.256 209.799 145.921 210.824C146.215 211.287 146.57 211.708 146.978 212.075C149.846 214.628 153.032 216.799 156.459 218.533C160.367 220.523 164.5 222.035 168.77 223.037C171.438 223.656 174.148 224.082 176.878 224.313C181.222 224.671 185.549 224.457 189.881 224.074C193.662 223.742 197.406 223.164 201.155 222.586C203.611 222.208 206.075 221.874 208.544 221.599C212.571 221.172 216.626 221.072 220.669 221.299C225.747 221.559 230.684 222.589 235.516 224.152C235.987 224.306 236.446 224.552 237.048 224.528C237.268 224.042 237.185 223.613 237.182 223.198C237.156 220.545 237.095 217.889 237.078 215.236C237.053 211.358 237.044 207.48 237.051 203.602C237.053 202.339 237.165 201.075 237.16 199.812ZM253.301 129.902C245.693 129.309 238.809 133.965 236.604 142.508C236.914 142.53 237.119 142.557 237.326 142.557C247.303 142.555 257.278 142.549 267.253 142.54C267.334 142.523 267.411 142.491 267.48 142.445C266.273 136.399 260.867 130.492 253.301 129.902ZM304.998 144.528C304.659 144.218 304.356 144.325 304.081 144.369C302.039 144.677 299.976 144.828 297.912 144.821C294.538 144.852 291.166 144.87 287.796 144.874C277.722 144.886 267.648 144.895 257.574 144.899C251.21 144.899 244.846 144.894 238.48 144.884C234.055 144.882 229.631 144.878 225.206 144.874C224.835 144.874 224.45 144.801 224.125 144.952C223.908 145.16 224.006 145.369 224.023 145.572C224.191 147.423 224.274 149.271 223.901 151.11C223.57 152.636 222.965 154.089 222.115 155.398C221.447 156.461 220.786 157.532 220.135 158.581C220.381 158.937 220.701 158.829 220.971 158.832C223.333 158.837 225.694 158.825 228.052 158.825C232.816 158.822 237.579 158.824 242.341 158.829C250.266 158.832 258.191 158.836 266.114 158.842C270.202 158.846 274.29 158.883 278.378 158.888C281.54 158.893 284.698 158.846 287.86 158.861C291.021 158.878 294.182 158.946 297.341 158.981C299.575 159.005 301.81 159.015 304.044 159.025C304.332 159.025 304.632 159.081 305.066 158.832C305.098 154.037 305.046 149.247 304.998 144.528ZM305.19 248.248C305.459 247.97 305.361 247.614 305.356 247.292C305.32 244.595 305.261 241.897 305.222 239.2C305.188 236.968 305.151 234.734 305.146 232.5C305.132 222.425 305.124 212.35 305.122 202.275C305.11 189.125 305.097 175.973 305.083 162.819V160.91C304.778 160.529 304.466 160.595 304.181 160.602C293.602 160.849 283.02 160.773 272.439 160.793C261.858 160.81 251.275 160.813 240.692 160.802H239.395C239.048 161.022 239.075 161.29 239.085 161.537C239.126 162.632 239.204 163.724 239.222 164.819C239.273 167.98 239.3 171.141 239.339 174.302C239.383 177.716 239.444 181.13 239.473 184.542C239.492 186.735 239.47 188.927 239.466 191.118C239.461 193.142 239.448 195.164 239.451 197.185C239.461 202.073 239.49 206.96 239.485 211.848C239.483 214.165 239.414 216.482 239.387 218.801C239.366 220.867 239.353 222.932 239.348 224.996C239.363 225.14 239.391 225.282 239.434 225.42C239.81 225.552 240.197 225.698 240.593 225.823C246.286 227.63 251.674 230.088 256.669 233.376C257.199 233.725 257.699 234.112 258.228 234.456C259.189 235.085 259.257 236.202 258.877 237.034C258.421 238.029 257.95 239.022 257.418 239.978C256.004 242.472 254.389 244.848 252.591 247.082C252.311 247.436 251.947 247.746 251.813 248.219C252.876 248.363 304.044 248.385 305.19 248.248ZM183.061 267.876C183.468 268.11 183.854 268.027 184.227 268.025C186.966 268.003 189.705 267.959 192.445 267.944C194.679 267.93 196.911 267.956 199.145 267.947C201.758 267.935 204.37 267.896 206.985 267.883C209.766 267.869 212.547 267.865 215.329 267.874C217.561 267.883 219.796 267.915 222.028 267.952C222.954 267.969 223.886 267.978 224.803 268.086C225.304 268.142 225.81 268.05 226.26 267.822C227.549 267.196 228.785 266.466 229.955 265.637C236.151 261.393 241.838 256.449 246.903 250.904C249.944 247.565 252.771 244.056 255.142 240.2C255.628 239.412 256.086 238.605 256.533 237.793C256.752 237.393 257.023 237.005 257.03 236.529C256.843 236.144 256.467 236.007 256.157 235.8C251.825 232.915 247.222 230.549 242.288 228.879C238.741 227.676 235.172 226.536 231.58 225.459C228.221 224.474 224.758 223.887 221.262 223.713C219.242 223.601 217.22 223.491 215.195 223.557C211.784 223.643 208.38 223.93 205.002 224.415C201.087 225.003 197.182 225.652 193.242 226.086C189.056 226.572 184.846 226.82 180.631 226.83C176.71 226.794 172.805 226.337 168.982 225.464C163.701 224.329 158.622 222.405 153.915 219.757C153.146 219.321 152.4 218.845 151.639 218.391C151.395 218.247 151.197 218.006 150.627 217.999C152.878 221.45 155.039 224.759 157.198 228.069C159.361 231.388 161.524 234.707 163.686 238.024C165.85 241.341 168.016 244.657 170.184 247.972C172.353 251.287 174.525 254.6 176.699 257.911C178.878 261.215 181.105 264.488 183.061 267.876ZM65.1588 267.683C66.4881 267.513 67.7077 267.603 68.9273 267.6C72.2569 267.591 75.5865 267.579 78.916 267.566C83.3431 267.554 87.7679 267.535 92.1951 267.539C95.6516 267.542 99.1079 267.583 102.564 267.596C104.125 267.603 105.684 267.576 107.245 267.578C112.006 267.581 116.77 267.596 121.534 267.598C123.137 267.6 124.739 267.53 126.339 267.591C128.574 267.676 130.806 267.608 133.037 267.639C135.567 267.674 138.094 267.683 140.623 267.688C151.497 267.717 162.372 267.754 173.248 267.798C175.102 267.805 176.956 267.866 178.809 267.903C178.975 267.905 179.146 267.947 179.27 267.735C179.319 267.527 179.131 267.381 179.024 267.215C175.204 261.354 171.38 255.496 167.552 249.641C162.311 241.639 157.063 233.64 151.81 225.645C148.395 220.425 145.016 215.184 141.611 209.958C138.135 204.626 134.635 199.312 131.167 193.978C128.871 190.444 126.608 186.889 124.332 183.342C123.927 182.708 123.456 182.108 123.327 181.435C123.01 181.204 122.749 181.262 122.502 181.269C116.517 181.435 110.531 181.299 104.547 181.204C100.923 181.147 97.298 181.066 93.6733 180.96C89.0827 180.821 84.4921 180.645 79.899 180.467C79.0599 180.435 78.2208 180.318 77.3817 180.252C77.0939 180.228 76.7938 180.162 76.4231 180.382C75.9548 181.682 75.4522 183.062 74.9596 184.442C73.7424 187.854 72.5618 191.281 71.3081 194.678C69.9397 198.393 68.5152 202.088 67.0955 205.785C65.6296 209.597 64.1498 213.405 62.6561 217.209C62.1488 218.501 61.6706 219.811 60.8829 220.974C60.7724 221.153 60.6885 221.347 60.6339 221.55C60.0218 223.564 59.3729 225.571 59.0119 227.649C58.8055 228.811 58.6816 229.987 58.6411 231.166C58.5338 234.549 58.8168 237.907 59.229 241.253C59.6933 245.059 60.3478 248.839 61.1902 252.579C62.1463 256.811 63.2074 261.018 64.2343 265.232C64.43 266.087 64.741 266.912 65.1588 267.683ZM3.87085 195.488C4.60261 197.054 5.3052 198.632 5.95157 200.234C7.58828 204.297 9.21283 208.365 11.0983 212.323C12.1497 214.528 13.2399 216.716 14.3132 218.911C15.906 222.164 17.4525 225.442 19.2063 228.615C22.4773 234.525 26.0654 240.234 30.3266 245.482C36.676 253.296 44.04 259.989 52.6797 265.223C54.2652 266.183 55.9044 267.042 57.5435 267.842C59.1364 267.661 60.6925 267.822 62.3 267.747C62.2763 267.56 62.2413 267.375 62.1951 267.193C61.7316 265.791 61.4073 264.354 61.0658 262.92C60.4193 260.216 59.6705 257.538 59.0607 254.826C58.1095 250.592 57.2435 246.336 56.702 242.031C56.2411 238.604 56.0356 235.148 56.0873 231.691C56.0982 230.679 56.1887 229.669 56.3581 228.671C56.7337 226.601 56.9532 224.501 57.5972 222.484C57.7387 222.042 57.8533 221.591 58.0118 221.157C59.2095 217.874 60.39 214.584 61.6219 211.314C63.683 205.834 65.7784 200.366 67.859 194.893C67.9785 194.578 68.0907 194.264 68.2053 193.947C68.1615 193.895 68.12 193.844 68.0761 193.793C67.1907 194.425 66.293 195.039 65.4246 195.69C61.6463 198.522 57.7679 201.21 53.892 203.905C50.0503 206.578 46.2304 209.275 42.3984 211.96C39.9494 213.679 37.498 215.395 35.0442 217.106C34.6003 217.413 34.1904 217.806 33.5294 217.867C33.2099 217.73 32.8268 217.567 32.4951 217.426C31.7878 217.628 31.1487 217.835 30.4951 217.994C25.0727 219.311 19.56 214.238 21.2919 208.107C21.6748 206.751 22.4017 205.558 23.6213 204.741C23.7921 204.626 23.9579 204.5 24.0847 204.407C24.1238 204.263 24.1799 204.175 24.1628 204.105C23.8677 202.9 24.2653 201.956 25.2287 201.217C25.5312 200.988 25.8191 200.739 26.1287 200.522C28.7485 198.68 31.3715 196.842 33.9977 195.008C36.2784 193.417 38.5713 191.842 40.8543 190.254C40.9482 190.181 41.0363 190.1 41.1178 190.013C41.1233 189.927 41.1067 189.842 41.0695 189.764C41.0323 189.687 40.9759 189.62 40.9055 189.571C38.9981 187.681 38.0907 185.323 37.6493 182.73C36.9833 178.835 37.4322 175.004 38.2493 171.192C38.442 170.295 38.6444 169.399 38.8347 168.541C38.598 168.3 38.3908 168.397 38.1981 168.458C36.3451 169.028 34.5347 169.728 32.7806 170.553C31.0316 171.385 29.2754 172.204 27.5289 173.041C23.4115 175.019 19.6233 177.518 15.9645 180.235C12.396 182.884 9.24449 185.986 6.07112 189.071C5.13438 189.983 4.19289 190.888 3.25376 191.798C2.95375 192.088 2.65861 192.383 2.36097 192.678C2.88539 193.647 3.42945 194.544 3.87085 195.488Z" fill="#202020"></path><path d="M211.112 110.852C212.422 109.73 213.766 108.713 214.434 107.035C215.12 105.318 215.812 103.611 216.169 101.789C216.303 101.284 216.303 100.753 216.169 100.248C214.734 101.167 213.437 101.999 212.107 102.848C212.883 105.374 212.271 107.696 211.322 109.979C211.217 110.233 210.951 110.452 211.112 110.852Z" fill="#C99353"></path><path d="M189.727 119.537C189.876 119.761 190.04 119.72 190.203 119.681C193.657 118.871 197.06 119.193 200.44 120.124C202.999 120.838 205.456 121.874 207.753 123.207C208.007 123.353 208.27 123.483 208.512 123.612C216.407 119.271 222.018 107.584 219.942 98.0892C219.725 97.9478 219.542 98.06 219.369 98.1722C218.769 98.5575 218.176 98.9502 217.556 99.355C217.556 99.7306 217.544 100.065 217.559 100.396C217.637 102.028 217.222 103.574 216.705 105.091C216.436 105.845 216.127 106.584 215.781 107.306C214.459 110.193 212.314 112.349 209.68 114.052C208.659 114.73 207.505 115.183 206.294 115.378C205.88 115.451 205.458 115.476 205.038 115.452C203.385 115.325 202.343 114.256 202.219 112.608C202.153 111.805 202.309 110.999 202.67 110.279C202.957 109.67 203.161 109.027 203.277 108.364C203.733 106.133 204.097 103.891 204.092 101.604C204.079 100.803 203.996 100.005 203.843 99.2184C203.734 98.5936 203.506 97.9957 203.17 97.4576C203.054 97.2412 202.895 97.0511 202.702 96.8992C202.51 96.7473 202.288 96.6368 202.05 96.5747C201.511 96.682 201.206 97.0308 200.921 97.4015C200.481 97.9693 200.133 98.6031 199.891 99.2794C199.506 100.348 199.148 101.426 198.794 102.506C198.16 104.425 197.538 106.345 196.567 108.135C195.657 109.81 194.508 111.31 193.289 112.769C192.669 113.51 192.079 114.281 191.508 115.061C190.625 116.271 190.103 117.646 189.759 119.093C189.735 119.239 189.725 119.388 189.727 119.537Z" fill="#C99353"></path><path d="M205.89 64.3476C205.99 67.0436 206.382 69.7207 207.058 72.3324C207.1 72.4934 207.163 72.6495 207.219 72.8153C207.568 72.8909 207.77 72.6471 207.995 72.4934C210.053 71.1033 212.122 69.7228 214.159 68.2986C216.712 66.5084 219.309 64.785 221.95 63.1282C222.772 62.6163 223.626 62.1569 224.506 61.7526C224.973 61.5614 225.466 61.4413 225.969 61.3966C228.184 61.1161 230.404 60.8649 232.619 60.6015C235.294 60.2796 237.968 59.9479 240.646 59.6357C242.402 59.4333 244.163 59.2552 245.922 59.0723C246.493 59.0432 247.056 58.9289 247.593 58.7333C247.081 58.1504 246.627 57.6578 246.198 57.1432C242.58 52.8337 238.448 49.0559 234.158 45.4439C229.767 41.7466 225.113 38.4102 220.344 35.2251C219.859 34.9007 219.359 34.5959 218.844 34.2666C217.387 35.1434 216.056 36.215 214.888 37.4518C212.709 39.8073 210.928 42.5017 209.614 45.4293C207.985 48.973 206.978 52.6947 206.351 56.5432C205.942 59.1233 205.787 61.7373 205.89 64.3476Z" fill="#0076A8"></path><path d="M24.697 214.823C26.3996 216.428 28.4241 216.84 30.6657 216.321C30.773 216.296 30.8584 216.172 30.9878 216.065C28.3559 212.962 26.1557 209.604 24.5458 205.731C22.3139 208.153 21.9017 212.189 24.697 214.823Z" fill="white"></path><path d="M18.7038 124.822C22.7383 124.944 26.6874 124.773 30.6292 124.99C30.7375 124.98 30.8432 124.951 30.9415 124.905C31.1414 124.705 31.1121 124.488 31.1194 124.283C31.2146 120.807 31.1342 115.12 30.9706 113.942C30.6073 113.657 30.1706 113.771 29.7633 113.769C27.1557 113.747 24.5483 113.747 21.9406 113.73C21.1016 113.722 20.2601 113.681 19.4209 113.654C19.216 113.649 19.0038 113.605 18.7966 113.786C18.7523 113.889 18.7227 113.997 18.7087 114.108C18.7038 117.634 18.7038 121.159 18.7038 124.822Z" fill="#4CCBF7"></path><path d="M18.8718 166.066C22.8453 166.163 26.7993 166.005 30.746 166.224C30.8582 166.216 30.9686 166.191 31.0729 166.148C31.3362 165.936 31.2801 165.668 31.2801 165.427C31.2753 162.524 31.2729 159.62 31.2509 156.717C31.2485 156.181 31.2827 155.625 30.9997 155.032C27.0359 154.917 23.0454 155.049 19.0987 154.898C18.7499 155.188 18.8499 155.547 18.8499 155.866C18.8401 158.054 18.8524 160.242 18.8401 162.429C18.8378 163.271 18.7768 164.11 18.7596 164.951C18.7523 165.278 18.6353 165.614 18.8718 166.066Z" fill="#4CCBF7"></path><path d="M2.36098 192.678C2.88539 193.647 3.42944 194.544 3.87083 195.488C4.6026 197.054 5.30518 198.632 5.95155 200.234C7.58826 204.297 9.21284 208.365 11.0984 212.323C12.1497 214.528 13.2399 216.716 14.3132 218.911C15.906 222.164 17.4525 225.442 19.2062 228.615C22.4773 234.524 26.0654 240.234 30.3266 245.482C36.676 253.296 44.04 259.989 52.6797 265.222C54.2652 266.183 55.9044 267.042 57.5435 267.842C59.1363 267.661 60.6926 267.822 62.3 267.747C62.2763 267.56 62.2413 267.375 62.1952 267.193C61.7316 265.791 61.4073 264.354 61.0658 262.92C60.4193 260.215 59.6705 257.538 59.0607 254.826C58.1094 250.592 57.2435 246.336 56.702 242.031C56.2411 238.604 56.0356 235.148 56.0873 231.691C56.0982 230.679 56.1887 229.669 56.3581 228.671C56.7337 226.601 56.9532 224.501 57.5972 222.484C57.7387 222.042 57.8533 221.591 58.0118 221.157C59.2095 217.874 60.39 214.584 61.6219 211.314C63.683 205.834 65.7784 200.366 67.859 194.893C67.9785 194.578 68.0907 194.264 68.2053 193.947C68.1615 193.895 68.12 193.844 68.0761 193.793C67.1907 194.425 66.293 195.039 65.4246 195.69C61.6463 198.522 57.7679 201.21 53.892 203.904C50.0503 206.578 46.2304 209.275 42.3984 211.96C39.9494 213.679 37.498 215.395 35.0442 217.106C34.6003 217.413 34.1904 217.806 33.5294 217.867C33.2099 217.73 32.8268 217.567 32.4951 217.426C31.7878 217.628 31.1487 217.835 30.495 217.994C25.0727 219.311 19.56 214.238 21.2919 208.107C21.6748 206.751 22.4017 205.558 23.6213 204.741C23.7921 204.626 23.9579 204.5 24.0847 204.407C24.1238 204.263 24.1799 204.175 24.1628 204.104C23.8677 202.9 24.2653 201.956 25.2287 201.217C25.5312 200.988 25.8191 200.739 26.1287 200.522C28.7485 198.68 31.3715 196.842 33.9977 195.008C36.2784 193.417 38.5713 191.842 40.8543 190.254C40.9482 190.181 41.0363 190.1 41.1178 190.013C41.1233 189.927 41.1067 189.842 41.0695 189.764C41.0323 189.687 40.9759 189.62 40.9056 189.571C38.9981 187.681 38.0907 185.323 37.6493 182.73C36.9833 178.835 37.4322 175.004 38.2493 171.192C38.442 170.294 38.6444 169.399 38.8347 168.541C38.5981 168.299 38.3908 168.397 38.1981 168.458C36.3451 169.028 34.5347 169.728 32.7806 170.553C31.0316 171.385 29.2754 172.204 27.5289 173.041C23.4115 175.019 19.6233 177.518 15.9645 180.235C12.396 182.884 9.2445 185.986 6.07113 189.071C5.13439 189.983 4.19287 190.888 3.25375 191.798C2.95374 192.088 2.65862 192.383 2.36098 192.678Z" fill="#0076A8"></path><path d="M150.627 217.999C152.878 221.45 155.039 224.759 157.198 228.069C159.361 231.388 161.524 234.706 163.686 238.024C165.85 241.341 168.016 244.657 170.184 247.972C172.353 251.287 174.524 254.599 176.699 257.911C178.878 261.215 181.105 264.488 183.061 267.876C183.468 268.11 183.854 268.027 184.227 268.025C186.966 268.003 189.705 267.959 192.445 267.944C194.679 267.929 196.911 267.956 199.145 267.946C201.758 267.934 204.37 267.895 206.985 267.883C209.765 267.868 212.547 267.865 215.329 267.873C217.561 267.883 219.796 267.915 222.027 267.951C222.954 267.968 223.886 267.978 224.803 268.086C225.304 268.142 225.81 268.05 226.26 267.822C227.549 267.196 228.785 266.465 229.955 265.637C236.151 261.393 241.838 256.449 246.903 250.904C249.944 247.565 252.771 244.055 255.142 240.2C255.628 239.412 256.086 238.605 256.533 237.792C256.752 237.392 257.023 237.005 257.03 236.529C256.842 236.144 256.467 236.007 256.157 235.8C251.825 232.915 247.222 230.549 242.288 228.878C238.741 227.676 235.172 226.536 231.579 225.459C228.221 224.473 224.758 223.887 221.262 223.713C219.242 223.601 217.22 223.491 215.195 223.557C211.784 223.643 208.38 223.929 205.002 224.415C201.087 225.003 197.182 225.652 193.242 226.086C189.056 226.571 184.846 226.82 180.631 226.83C176.71 226.794 172.805 226.336 168.982 225.464C163.701 224.328 158.622 222.405 153.915 219.757C153.146 219.32 152.4 218.845 151.639 218.391C151.395 218.247 151.197 218.006 150.627 217.999Z" fill="#0076A8"></path><path d="M236.604 142.508C236.914 142.53 237.119 142.557 237.326 142.557C247.303 142.555 257.278 142.549 267.253 142.54C267.334 142.523 267.411 142.491 267.48 142.445C266.273 136.399 260.867 130.492 253.301 129.902C245.693 129.309 238.809 133.965 236.604 142.508Z" fill="#0076A8"></path><path d="M222.115 155.398C222.965 154.088 223.57 152.636 223.901 151.11C224.274 149.271 224.191 147.423 224.023 145.572C224.006 145.369 223.908 145.159 224.125 144.952C224.45 144.801 224.835 144.874 225.206 144.874C229.63 144.872 234.055 144.875 238.48 144.884C244.846 144.891 251.211 144.896 257.574 144.898C267.648 144.894 277.722 144.886 287.796 144.874C291.167 144.869 294.539 144.851 297.912 144.82C299.976 144.827 302.039 144.677 304.08 144.369C304.356 144.325 304.659 144.218 304.998 144.528C305.046 149.247 305.098 154.037 305.066 158.832C304.632 159.081 304.332 159.024 304.044 159.024C301.81 159.015 299.575 159.005 297.341 158.981C294.182 158.946 291.021 158.878 287.86 158.861C284.698 158.846 281.54 158.893 278.378 158.888C274.29 158.883 270.202 158.846 266.114 158.841C258.189 158.832 250.265 158.828 242.341 158.829C237.577 158.827 232.814 158.825 228.052 158.824C225.694 158.824 223.332 158.837 220.971 158.832C220.701 158.829 220.381 158.937 220.135 158.581C220.786 157.532 221.447 156.461 222.115 155.398ZM297.638 155.447C298.806 155.52 299.959 155.146 300.861 154.401C301.763 153.656 302.348 152.595 302.497 151.435C302.788 149.101 301.188 146.806 298.841 146.447C295.731 145.969 293.392 147.806 293.387 150.971C293.321 152.844 294.746 155.239 297.638 155.447ZM286.803 155.7C289.223 155.847 291.392 154.039 291.609 151.644C291.691 150.931 291.603 150.208 291.35 149.536C291.098 148.863 290.688 148.261 290.156 147.778C289.624 147.296 288.985 146.947 288.291 146.761C287.597 146.575 286.869 146.557 286.167 146.708C284.916 146.993 283.876 147.498 283.198 148.625C282.732 149.38 282.492 150.254 282.508 151.142C282.413 153.139 283.935 155.527 286.803 155.7ZM275.661 155.7C276.829 155.766 277.977 155.384 278.874 154.633C279.77 153.882 280.347 152.818 280.486 151.657C280.761 149.323 279.144 147.035 276.798 146.694C273.676 146.24 271.368 148.093 271.375 151.257C271.322 153.115 272.756 155.515 275.661 155.7Z" fill="#4CCBF7"></path><path d="M239.395 160.802H240.692C251.274 160.8 261.856 160.797 272.439 160.793C283.02 160.773 293.602 160.849 304.181 160.602C304.466 160.595 304.778 160.529 305.083 160.91V162.819C305.095 175.972 305.108 189.124 305.122 202.275C305.129 212.35 305.137 222.425 305.146 232.5C305.151 234.734 305.188 236.968 305.222 239.2C305.261 241.897 305.32 244.594 305.356 247.292C305.361 247.614 305.459 247.97 305.19 248.248C304.044 248.384 252.876 248.363 251.813 248.219C251.947 247.745 252.311 247.436 252.591 247.082C254.389 244.848 256.004 242.472 257.418 239.978C257.95 239.022 258.421 238.029 258.877 237.034C259.257 236.202 259.189 235.085 258.228 234.456C257.699 234.112 257.199 233.724 256.669 233.376C251.674 230.088 246.286 227.63 240.592 225.822C240.197 225.698 239.81 225.552 239.434 225.42C239.391 225.282 239.363 225.14 239.348 224.996C239.356 222.93 239.369 220.865 239.387 218.801C239.414 216.482 239.483 214.165 239.485 211.848C239.49 206.96 239.461 202.073 239.451 197.185C239.448 195.164 239.461 193.142 239.466 191.117C239.47 188.927 239.492 186.735 239.473 184.542C239.444 181.13 239.383 177.716 239.339 174.301C239.3 171.141 239.273 167.98 239.222 164.819C239.204 163.724 239.126 162.631 239.085 161.536C239.075 161.29 239.048 161.022 239.395 160.802ZM298.858 169.197C298.606 169.178 298.354 169.172 298.102 169.18C287.096 169.158 276.092 169.138 265.09 169.119C258.511 169.112 251.934 169.116 245.359 169.133C244.81 169.133 244.261 169.124 243.715 169.153C243.464 169.169 243.217 169.225 242.985 169.321C242.835 169.397 242.711 169.515 242.628 169.661C242.546 169.808 242.509 169.975 242.522 170.143C242.535 170.31 242.598 170.47 242.702 170.602C242.806 170.733 242.947 170.831 243.107 170.882C243.353 170.941 243.605 170.972 243.859 170.972C247.315 170.997 250.771 171.017 254.228 171.033C255.069 171.038 255.911 171.048 256.755 171.048C261.601 171.05 266.45 171.051 271.3 171.05V171.089C274.798 171.058 278.295 171.016 281.796 170.997C283.776 170.987 285.757 171.038 287.738 171.028C290.816 171.014 293.892 170.97 296.97 170.938C297.602 170.933 298.236 170.948 298.865 170.921C299.524 170.892 299.929 170.546 299.919 170.07C299.912 169.597 299.517 169.263 298.858 169.197ZM299.917 179.445C299.912 179.254 299.842 179.07 299.72 178.924C299.597 178.777 299.428 178.676 299.241 178.638C298.912 178.572 298.577 178.54 298.241 178.543C293.097 178.521 287.953 178.504 282.81 178.491C275.181 178.479 267.55 178.472 259.918 178.469C254.733 178.469 249.548 178.479 244.364 178.499C243.984 178.491 243.606 178.519 243.232 178.582C243.021 178.615 242.83 178.728 242.698 178.896C242.567 179.064 242.504 179.276 242.522 179.489C242.549 179.93 242.832 180.221 243.341 180.294C243.592 180.327 243.845 180.341 244.098 180.338C247.639 180.347 251.179 180.347 254.718 180.36C256.743 180.369 258.765 180.406 260.787 180.411C264.287 180.418 267.786 180.419 271.285 180.413V180.45C274.783 180.416 278.281 180.374 281.779 180.357C283.759 180.345 285.74 180.396 287.721 180.386C290.757 180.374 293.792 180.33 296.826 180.301C297.331 180.296 297.839 180.296 298.343 180.289C298.597 180.294 298.85 180.284 299.102 180.26C299.583 180.199 299.917 179.852 299.917 179.445ZM242.49 207.148C242.846 207.338 243.229 207.304 243.605 207.304C245.629 207.314 247.653 207.32 249.676 207.321C264.812 207.312 279.947 207.301 295.082 207.29C296.051 207.29 297.021 207.277 297.99 207.272C298.328 207.297 298.667 207.233 298.973 207.085C299.104 207.015 299.213 206.912 299.29 206.785C299.367 206.658 299.408 206.513 299.409 206.365C299.405 206.196 299.349 206.032 299.247 205.896C299.145 205.76 299.003 205.66 298.841 205.609C298.51 205.548 298.175 205.519 297.839 205.521C294.297 205.495 290.756 205.473 287.216 205.456C282.493 205.434 277.772 205.416 273.051 205.402C272.293 205.397 271.534 205.399 270.775 205.399V205.407C267.868 205.407 264.96 205.402 262.053 205.407C259.945 205.412 257.838 205.431 255.73 205.438C252.064 205.451 248.397 205.46 244.729 205.465C244.222 205.465 243.717 205.468 243.212 205.485C243.001 205.49 242.792 205.518 242.588 205.57C242.425 205.619 242.281 205.719 242.179 205.855C242.076 205.991 242.02 206.156 242.017 206.326C242.006 206.495 242.045 206.663 242.129 206.809C242.213 206.955 242.339 207.073 242.49 207.148ZM242.017 187.598C242.022 187.768 242.081 187.932 242.187 188.065C242.294 188.198 242.44 188.293 242.605 188.335C242.893 188.397 243.186 188.428 243.481 188.427C247.022 188.442 250.562 188.453 254.101 188.459C254.859 188.462 255.618 188.501 256.377 188.501C261.182 188.505 265.987 188.506 270.792 188.503V188.544C274.293 188.51 277.791 188.469 281.288 188.452C283.269 188.44 285.25 188.491 287.23 188.481C290.309 188.466 293.384 188.422 296.463 188.393C297.095 188.386 297.726 188.401 298.358 188.374C299.017 188.347 299.422 188.001 299.412 187.525C299.405 187.049 299.009 186.715 298.351 186.652C298.058 186.625 297.76 186.635 297.465 186.635C285.281 186.613 273.098 186.592 260.916 186.574C255.435 186.566 249.954 186.581 244.473 186.588C244.051 186.588 243.629 186.576 243.21 186.608C242.959 186.626 242.713 186.683 242.48 186.776C242.325 186.845 242.195 186.962 242.112 187.11C242.028 187.258 241.995 187.429 242.017 187.598Z" fill="#F7CE4C"></path><path d="M125.927 180.15C125.92 180.601 126.166 180.801 126.325 181.038C132.24 189.91 138.1 198.819 143.904 207.763C144.567 208.787 145.255 209.799 145.921 210.824C146.215 211.287 146.57 211.708 146.978 212.075C149.845 214.628 153.032 216.799 156.459 218.533C160.367 220.523 164.5 222.035 168.77 223.037C171.438 223.656 174.148 224.082 176.878 224.313C181.222 224.671 185.549 224.457 189.881 224.074C193.662 223.742 197.406 223.164 201.155 222.586C203.611 222.208 206.075 221.874 208.543 221.598C212.571 221.172 216.626 221.072 220.669 221.298C225.747 221.559 230.684 222.589 235.516 224.152C235.987 224.306 236.446 224.552 237.048 224.528C237.268 224.042 237.185 223.613 237.182 223.198C237.155 220.545 237.094 217.889 237.077 215.235C237.053 211.358 237.044 207.48 237.051 203.602C237.053 202.339 237.165 201.075 237.16 199.812C237.146 195.429 237.092 191.047 237.068 186.664C237.058 184.979 237.082 183.291 237.102 181.606C237.16 176.801 237.221 171.998 237.285 167.195C237.302 165.805 237.297 164.414 237.431 163.027C237.495 162.361 237.443 161.685 237.443 161.076C237.221 160.771 236.956 160.815 236.709 160.815C230.848 160.805 224.988 160.798 219.13 160.795C218.922 160.793 218.715 160.819 218.481 160.837C218.252 161.09 218.02 161.334 217.803 161.588C215.859 163.868 213.776 166.017 211.627 168.1C208.722 170.919 205.792 173.711 202.721 176.348C200.001 178.684 197.113 180.806 194.213 182.908C192.232 184.342 190.234 185.75 188.217 187.132C184.89 189.444 181.243 191.259 177.392 192.52C174.262 193.552 170.976 194.027 167.682 193.922C164.428 193.787 161.239 192.969 158.322 191.522C154.156 189.475 150.285 186.876 146.814 183.794C142.211 179.745 138.021 175.306 134.074 170.631C133.774 170.275 133.474 169.921 133.169 169.573C133.106 169.516 133.036 169.467 132.962 169.426C132.65 169.446 132.603 169.729 132.481 169.931C130.991 172.377 129.51 174.831 128.013 177.274C127.395 178.287 126.698 179.249 125.927 180.15Z" fill="white"></path><path d="M102.357 79.2538C104.999 76.7735 108.948 76.3711 112.141 78.5197C113.371 79.3391 114.479 80.3285 115.431 81.4586C115.612 81.6756 115.739 81.9732 116.078 82.0146C116.203 81.9895 116.317 81.9259 116.404 81.8328C116.491 81.7396 116.546 81.6215 116.563 81.4951C116.612 81.2464 116.631 80.9952 116.658 80.744C116.917 78.3027 116.817 75.8638 116.612 73.4225C116.275 69.4203 115.563 65.4962 114.209 61.6989C113.602 59.9917 112.921 58.3162 112.182 56.6602C112.116 56.5163 111.997 56.3651 112.16 56.2065C115.509 57.065 121.822 60.4477 123.247 62.1525C123.154 62.233 123.068 62.3208 122.971 62.3964C122.839 62.4988 122.693 62.5891 122.561 62.6915C120.863 64.0302 119.567 65.8106 118.814 67.8375C118.607 68.3913 118.511 68.9805 118.531 69.5715C118.536 69.7819 118.568 69.9908 118.624 70.1934C118.676 70.3551 118.775 70.4974 118.909 70.6014C119.043 70.7055 119.206 70.7665 119.375 70.7763C119.524 70.7887 119.672 70.7577 119.803 70.6871C119.934 70.6165 120.041 70.5094 120.112 70.3788C120.212 70.1941 120.289 69.9974 120.339 69.7935C120.444 69.4301 120.505 69.0521 120.629 68.696C121.329 66.6815 122.529 65.0499 124.364 63.9182C124.686 63.7207 125.017 63.5207 125.542 63.65C125.893 63.9109 126.327 64.2451 126.771 64.5621C127.869 65.345 128.962 66.1327 130.071 66.8985C131.678 67.9858 133.405 68.8836 135.218 69.574C136.943 70.2645 138.774 70.6546 140.631 70.7276C140.833 70.7349 141.053 70.6958 141.226 70.9471C141.067 71.9031 140.843 72.886 140.831 73.9054C140.811 75.5074 140.948 77.1075 141.238 78.6831C141.492 80.0489 141.814 81.4025 142.077 82.7658C142.143 83.1146 142.348 83.4731 142.155 83.8487C141.729 83.8804 141.416 83.6267 141.075 83.4804C140.219 83.1237 139.329 82.8572 138.418 82.6853C138.006 82.5858 137.577 82.58 137.162 82.6682C136.394 82.8634 136.143 83.6023 136.623 84.234C136.951 84.6216 137.361 84.9315 137.823 85.1413C139.397 85.968 141.028 86.6314 142.782 86.7485C142.967 87.0051 143.08 87.3066 143.109 87.6216C143.499 89.7389 143.592 91.9002 143.385 94.0431C143.182 96.121 142.59 98.0721 141.365 99.8208C138.789 103.501 135.54 106.455 131.803 108.908C131.024 109.41 130.185 109.814 129.306 110.11C127.549 110.705 125.737 111.123 123.898 111.359C123.354 111.436 122.802 111.429 122.261 111.337C118.027 110.605 113.807 109.803 109.658 108.681C109.465 108.628 109.228 108.667 109.099 108.35C109.302 107.981 109.66 107.686 109.96 107.347C111.28 105.862 112.509 104.32 113.363 102.506C114.185 100.745 114.67 98.8457 114.792 96.9064C114.909 95.1626 114.531 93.4724 113.968 91.8286C113.851 91.4896 113.833 91.0677 113.526 90.8921C112.528 90.9067 111.607 90.9653 110.687 90.9238C108.704 90.8459 106.75 90.4182 104.916 89.6605C104.096 89.3192 103.345 88.8326 102.698 88.224C102.041 87.6258 101.509 86.9025 101.134 86.0964C100.759 85.2903 100.549 84.4175 100.515 83.5292C100.44 81.8342 101.128 80.4074 102.357 79.2538ZM121.966 74.2078C122.077 74.2707 122.207 74.293 122.333 74.2707C122.459 74.2485 122.573 74.1831 122.656 74.0859C122.963 73.7417 123.25 73.381 123.517 73.0055C123.983 72.3567 124.425 71.6909 124.883 71.0397C125 70.8739 125.098 70.6739 125.334 70.6203C125.635 70.7666 125.51 71.0471 125.505 71.2641C125.459 73.1957 125.388 75.1273 125.191 77.0515C125.161 77.3369 125.056 77.632 125.239 77.91C125.486 78.1222 125.698 78.0369 125.886 77.832C126.122 77.5343 126.28 77.1821 126.344 76.8077C126.865 74.7692 127.06 72.6611 126.922 70.5617C126.867 69.8849 126.624 69.2371 126.22 68.6911C125.997 68.627 125.761 68.6191 125.535 68.668C125.308 68.717 125.097 68.8213 124.92 68.9716C124.612 69.1915 124.328 69.4424 124.071 69.7203C123.184 70.7333 122.445 71.8673 121.878 73.0884C121.809 73.2406 121.752 73.398 121.707 73.5591C121.671 73.6805 121.677 73.8107 121.724 73.9285C121.771 74.0463 121.856 74.1447 121.966 74.2078Z" fill="#C99353"></path><path d="M59.229 241.253C59.6933 245.059 60.3478 248.839 61.1902 252.579C62.1463 256.811 63.2074 261.018 64.2343 265.232C64.43 266.087 64.741 266.912 65.1588 267.683C66.4881 267.513 67.7077 267.603 68.9273 267.6C72.2569 267.591 75.5865 267.579 78.916 267.566C83.3431 267.554 87.7679 267.535 92.1951 267.539C95.6515 267.542 99.1079 267.583 102.564 267.595C104.125 267.603 105.684 267.576 107.245 267.578C112.006 267.581 116.77 267.595 121.534 267.598C123.137 267.6 124.739 267.53 126.339 267.591C128.574 267.676 130.806 267.608 133.037 267.639C135.567 267.674 138.094 267.683 140.623 267.688C151.497 267.717 162.372 267.754 173.248 267.798C175.102 267.805 176.956 267.866 178.809 267.903C178.975 267.905 179.146 267.947 179.27 267.734C179.319 267.527 179.131 267.381 179.024 267.215C175.204 261.354 171.38 255.496 167.552 249.641C162.311 241.639 157.063 233.64 151.81 225.645C148.395 220.425 145.016 215.184 141.611 209.958C138.135 204.626 134.635 199.312 131.167 193.978C128.871 190.444 126.608 186.889 124.332 183.342C123.927 182.708 123.456 182.108 123.327 181.435C123.01 181.203 122.749 181.262 122.502 181.269C116.517 181.435 110.531 181.299 104.547 181.203C100.923 181.147 97.298 181.066 93.6733 180.96C89.0827 180.821 84.4921 180.645 79.899 180.467C79.0598 180.435 78.2208 180.318 77.3817 180.252C77.0939 180.228 76.7938 180.162 76.4232 180.382C75.9548 181.682 75.4522 183.062 74.9596 184.442C73.7424 187.854 72.5618 191.281 71.308 194.678C69.9397 198.393 68.5152 202.088 67.0955 205.785C65.6296 209.597 64.1498 213.405 62.6561 217.208C62.1488 218.501 61.6706 219.811 60.8829 220.974C60.7724 221.153 60.6885 221.347 60.634 221.55C60.0218 223.564 59.3729 225.571 59.0119 227.649C58.8055 228.811 58.6816 229.987 58.6411 231.166C58.5338 234.549 58.8168 237.907 59.229 241.253Z" fill="#202020"></path><path d="M76.1207 177.987C76.3427 178.292 76.6109 178.245 76.8548 178.235C83.0943 178.009 89.3315 178.206 95.5711 178.238C98.7737 178.252 101.976 178.374 105.179 178.452C109.14 178.548 113.102 178.613 117.06 178.755C119.124 178.828 121.18 179.038 123.239 179.182C123.571 179.206 123.905 179.299 124.334 179.155C125.342 177.153 126.476 175.143 127.657 173.158C128.84 171.168 130.159 169.258 131.176 167.231C131.125 166.853 130.891 166.653 130.718 166.422C129.449 164.734 128.313 162.961 127.149 161.202C126.661 160.466 126.149 159.744 125.62 159.034C123.878 156.708 122.12 154.391 120.373 152.066C120.097 151.698 119.785 151.344 119.692 150.859C119.677 150.691 119.721 150.523 119.816 150.383C119.91 150.243 120.05 150.14 120.212 150.091C120.634 149.949 120.963 150.13 121.215 150.442C121.88 151.259 122.544 152.079 123.178 152.918C125.874 156.481 128.513 160.088 131.296 163.583C133.423 166.256 135.54 168.934 137.887 171.419C138.523 172.094 139.153 172.777 139.828 173.411C142.504 175.918 145.019 178.596 147.802 180.989C150.041 182.911 152.32 184.781 154.81 186.381C156.651 187.57 158.588 188.603 160.601 189.471C163.636 190.772 166.94 191.321 170.233 191.071C171.748 190.963 173.248 190.703 174.712 190.296C178.489 189.229 182.085 187.603 185.381 185.472C189.72 182.706 193.874 179.674 197.945 176.531C200.365 174.63 202.686 172.606 204.899 170.468C206.643 168.814 208.402 167.175 210.114 165.492C211.558 164.075 212.946 162.602 214.364 161.158C214.873 160.641 215.308 160.088 215.317 159.322C215.489 159.183 215.677 159.064 215.876 158.968C216.303 158.829 216.571 158.517 216.849 158.195C217.831 157.038 218.716 155.801 219.493 154.498C220.084 153.525 220.645 152.535 221.235 151.564C221.445 151.2 221.583 150.8 221.642 150.384C222.006 148.215 221.684 146.098 221.21 143.994C220.884 142.554 220.391 141.157 219.742 139.831C215.773 131.658 209.47 126.056 200.955 122.978C197.771 121.798 194.329 121.496 190.988 122.102C188.013 122.646 185.581 124.154 183.695 126.529C183.192 127.205 182.816 127.968 182.588 128.78C181.531 132.073 180.097 135.233 178.314 138.197C177.739 139.179 177.068 140.103 176.312 140.955C175.423 141.975 174.339 142.807 173.124 143.401C171.272 144.274 169.36 144.572 167.345 144.103C165.945 143.792 164.6 143.274 163.352 142.567C161.534 141.496 159.845 140.221 158.315 138.767C155.674 136.282 153.241 133.582 151.044 130.697C149.758 129.029 148.514 127.326 147.234 125.653C145.83 123.858 144.234 122.222 142.472 120.776C141.031 119.568 139.348 118.8 137.628 118.095C137.316 117.966 136.991 117.866 136.689 117.722C136.54 117.669 136.409 117.574 136.311 117.449C136.214 117.325 136.154 117.175 136.138 117.017C136.421 116.6 136.865 116.578 137.338 116.637C138.598 116.768 139.826 117.117 140.967 117.669C141.643 118.01 142.297 118.398 142.963 118.759C143.216 118.898 143.431 119.129 143.753 119.122C143.941 118.903 143.865 118.644 143.841 118.41C143.65 116.654 143.689 114.871 143.275 113.14C143.258 113.074 143.163 113.027 143.05 112.923C142.497 113.086 141.943 113.384 141.326 113.51C140.084 113.751 138.826 113.896 137.562 113.944C135.03 114.064 132.506 113.876 129.986 113.652C127.552 113.435 125.129 113.113 122.717 112.727C118.009 111.976 113.36 110.989 108.838 109.457C108.689 109.413 108.538 109.379 108.384 109.354C107.945 109.476 107.75 109.82 107.518 110.113C106.492 111.401 105.665 112.835 105.064 114.369C104.226 116.528 103.577 118.757 103.125 121.029C102.545 123.834 101.886 126.629 100.81 129.292C99.1178 133.502 96.321 137.177 92.7147 139.931C90.0218 142.018 86.9314 143.177 83.6164 143.806C83.2041 143.884 82.7773 143.899 82.3968 144.16C82.3394 144.264 82.2936 144.374 82.2602 144.489C80.2527 155.681 78.3331 166.885 76.1207 177.987Z" fill="#F7CE4C"></path><path d="M39.7444 181.638C39.8281 183.113 40.1417 184.566 40.6738 185.945C41.0233 186.898 41.5702 187.766 42.2787 188.493C42.4404 188.685 42.6687 188.809 42.9178 188.84C48.25 185.23 53.6261 181.528 59.024 177.86C64.4269 174.192 69.8883 170.609 75.4351 166.912C76.7475 159.541 78.0533 152.194 79.3525 144.869C79.3646 144.803 79.3012 144.723 79.2719 144.645C79.0988 144.479 78.8818 144.535 78.6768 144.545C78.0036 144.577 77.3303 144.618 76.6572 144.659C72.8241 144.903 68.9765 144.55 65.2513 143.616C63.5379 143.171 61.8801 142.535 60.3095 141.718C59.9753 141.547 59.6411 141.374 59.3704 141.235C58.9752 141.306 58.7655 141.526 58.5337 141.704C56.5327 143.254 54.7158 145.029 53.1187 146.994C51.387 149.063 49.8041 151.253 48.3817 153.547C45.701 157.951 43.3788 162.527 41.8373 167.465C41.0166 169.99 40.4047 172.579 40.0079 175.204C39.702 177.334 39.6137 179.49 39.7444 181.638Z" fill="#F7CE4C"></path><path d="M25.8678 203.914C27.4143 207.343 29.2315 210.614 31.6414 213.528C32.3252 214.356 33.0811 215.122 33.9002 215.816C45.7597 207.724 57.2094 199.319 69.1835 191.566C70.7958 187.584 72.4252 183.561 74.0717 179.499C73.596 178.804 73.5863 178.043 73.7522 177.218C73.9742 176.106 74.0961 174.972 74.2546 173.845C74.2532 173.715 74.2368 173.585 74.2058 173.458C74.0787 173.492 73.9566 173.543 73.8424 173.609C70.9422 175.855 67.8906 177.889 64.8881 179.994C59.3656 183.862 53.8384 187.723 48.3062 191.578C47.3402 192.252 46.3572 192.92 45.1401 193.073C45.0124 193.075 44.8849 193.064 44.7596 193.039C45.0149 192.312 45.4822 191.677 46.1012 191.217C47.111 190.457 48.1233 189.698 49.1575 188.974C55.958 184.211 62.761 179.453 69.5664 174.701C71.1595 173.561 72.816 172.511 74.5279 171.558C74.8685 170.637 75.0323 169.661 75.0108 168.68C74.9298 168.664 74.8462 168.668 74.7669 168.691C74.6876 168.714 74.6149 168.755 74.5547 168.812C58.3583 180.338 42.1228 191.805 25.6848 202.858C25.5556 203.309 25.7312 203.614 25.8678 203.914Z" fill="white"></path><path d="M144.824 119.866C144.924 120.151 145.038 120.261 145.226 120.293C145.305 120.289 145.383 120.271 145.455 120.239C149.617 117.291 153.832 114.422 158.073 111.591C163.506 107.964 168.901 104.282 174.35 100.679C176.951 98.9625 179.551 97.2407 182.249 95.6749C183.558 94.914 184.8 94.0336 186.068 93.1995C186.981 92.5926 187.941 92.06 188.939 91.6069C189.325 91.4337 189.722 91.2703 190.115 91.5874C190.274 91.9874 190.03 92.2459 189.798 92.4825C189.048 93.2241 188.234 93.8982 187.366 94.4969C186.954 94.7896 186.527 95.0603 186.112 95.353C183.395 97.2748 180.695 99.221 177.963 101.121C175.124 103.092 172.262 105.028 169.396 106.96C164.576 110.211 159.748 113.452 154.912 116.683C152.668 118.181 150.385 119.615 148.126 121.09C147.743 121.342 147.304 121.527 147.021 121.92C147.143 122.3 147.453 122.539 147.704 122.81C149.312 124.544 150.712 126.446 152.134 128.329C153.48 130.114 154.824 131.897 156.346 133.538C157.03 134.277 157.732 134.994 158.474 135.685C160.33 134.407 162.118 133.148 163.932 131.926C167.847 129.29 171.777 126.675 175.697 124.046C178.322 122.285 180.929 120.498 183.563 118.754C185.039 117.776 186.546 116.847 188.054 115.922C188.745 115.518 189.325 114.95 189.744 114.269C190.532 112.969 191.525 111.808 192.527 110.674C194.403 108.55 195.66 106.094 196.611 103.457C197.043 102.27 197.462 101.079 197.886 99.8868C198.219 98.9317 198.632 98.0065 199.121 97.1212C199.437 96.5224 199.873 95.9946 200.401 95.5701C201.56 94.6774 202.901 94.7457 203.955 95.7481C204.498 96.2825 204.911 96.9341 205.163 97.6528C205.707 99.1015 205.804 100.611 205.755 102.135C205.724 103.14 205.646 104.145 205.59 105.106C205.899 105.326 206.046 105.116 206.197 105.013C211.89 101.17 217.561 97.2919 223.274 93.4775C227.969 90.3411 232.711 87.2755 237.434 84.1781C237.782 83.9489 238.126 83.7123 238.456 83.4928C238.582 82.8294 238.368 82.2587 238.204 81.7075C237.939 80.7327 237.598 79.7795 237.187 78.8565C235.543 75.3616 233.458 72.1618 230.699 69.4278C230.221 68.9518 229.705 68.5147 229.157 68.1206C228.95 67.9775 228.763 67.8087 228.599 67.6182C228.501 67.505 228.443 67.3632 228.433 67.2142C228.423 67.0651 228.461 66.9168 228.543 66.7914C228.613 66.6608 228.721 66.5541 228.852 66.4846C228.983 66.4151 229.132 66.3861 229.279 66.4012C229.576 66.4255 229.858 66.5433 230.084 66.7378C230.884 67.3524 231.733 67.9231 232.462 68.6157C235.489 71.453 237.804 74.9641 239.219 78.8638C239.473 79.5687 239.661 80.2979 239.88 81.0149C239.935 81.0027 239.989 80.9864 240.041 80.9661C240.079 80.948 240.113 80.9241 240.143 80.8954C240.175 80.8681 240.203 80.8369 240.227 80.8027C240.29 80.6954 240.351 80.5832 240.414 80.4735C243.941 74.2373 247.747 68.167 251.432 62.0234C251.732 61.521 252.081 61.0479 252.393 60.5845C252.371 60.5193 252.324 60.465 252.263 60.4329C252.202 60.4007 252.131 60.393 252.064 60.4114C249.791 60.8796 247.481 61.0967 245.18 61.3601C242.292 61.6893 239.402 61.9966 236.514 62.3015C234.502 62.5137 232.489 62.7015 230.479 62.9039C229.43 63.0088 228.379 63.0917 227.338 63.2356C226.324 63.3787 225.298 63.4131 224.276 63.338C223.562 63.8819 222.832 64.4477 222.096 65.0013C218.525 67.6914 214.8 70.1595 211.124 72.6984C203.531 77.9444 195.93 83.1806 188.322 88.4071C182.424 92.4703 176.526 96.5375 170.628 100.609C165.352 104.243 160.073 107.871 154.79 111.493C152.915 112.781 151.041 114.074 149.156 115.349C147.865 116.22 146.558 117.066 145.172 117.981C144.914 118.559 144.994 119.288 144.824 119.866Z" fill="white"></path><path d="M4.6562 105.806C5.68311 103.908 6.6564 102.138 7.60029 100.353C8.76142 98.1527 9.90786 95.9464 11.0396 93.7335C13.052 89.7874 15.3401 85.9998 17.5645 82.1733C18.9598 79.7685 20.4234 77.4028 21.8527 75.0176C23.5057 72.2706 25.3554 69.6469 27.3873 67.1669C29.5997 64.4573 31.8072 61.7429 34.0635 59.0674C36.197 56.5084 38.5147 54.1087 40.9981 51.8874C45.4229 47.9779 49.855 44.0806 54.1919 40.0784C56.7715 37.7118 59.5313 35.5493 62.4462 33.6105C67.0735 30.5156 71.803 27.5914 76.701 24.9404C79.9599 23.1746 83.1698 21.3162 86.4823 19.6456C91.0607 17.336 95.8709 15.6898 100.796 14.3386C106.203 12.8534 111.706 11.7925 117.229 10.8462C121.341 10.1413 125.481 9.6316 129.635 9.2048C133.662 8.79263 137.696 8.51218 141.736 8.30486C145.864 8.09553 150.001 8.09472 154.129 8.30244C156.825 8.41152 159.511 8.69913 162.169 9.16335C163.532 9.41457 164.928 9.5121 166.303 9.70478C170.652 10.3194 174.897 11.3876 179.09 12.6802C184.648 14.3877 190.103 16.4145 195.428 18.7505C201.135 21.2671 206.708 24.078 212.124 27.1719C217.59 30.2698 222.874 33.6776 227.95 37.3786C232.114 40.4003 236.078 43.6882 239.817 47.2219C242.343 49.6444 244.707 52.232 246.89 54.9677C247.594 55.8632 248.24 56.8033 248.822 57.7822C248.995 58.0675 249.171 58.3504 249.359 58.6553C250.317 58.626 251.237 58.5919 252.157 58.5699C253.759 58.5333 254.093 58.7797 254.591 60.3454C254.603 60.3869 254.606 60.4283 254.625 60.5381C254.552 60.8405 254.467 61.2014 254.384 61.5502C255.55 62.3404 257.138 62.755 258.342 62.5916C259.63 62.4184 260.479 61.6673 260.835 60.4064C261.012 59.7537 261.063 59.0732 260.984 58.4016C260.778 56.5992 260.334 54.832 259.665 53.1459C259.421 52.5613 259.097 52.0131 258.704 51.5167C256.913 49.1176 254.976 46.8305 252.905 44.6684C248.36 39.9092 243.419 35.5443 238.136 31.6204C228.93 24.7012 219.013 18.782 208.553 13.963C204.141 11.9388 199.538 10.434 194.906 9.0097C190.432 7.63175 185.878 6.59523 181.292 5.66602C178.112 5.01972 174.915 4.46934 171.704 4.0149C168.452 3.55151 165.189 3.1613 161.91 2.89303C154.726 2.28513 147.515 2.05718 140.306 2.21014C136.85 2.28818 133.398 2.47842 129.957 2.84912C128.198 3.03936 126.437 3.21494 124.676 3.38811C122.156 3.63688 119.673 4.10514 117.18 4.52462C112.319 5.35679 107.536 6.58937 102.879 8.20976C98.9346 9.57064 95.0684 11.1364 91.2681 12.8607C87.6214 14.5142 84.0333 16.2897 80.5355 18.2408C75.3184 21.1762 70.2643 24.3921 65.3953 27.8743C59.0271 32.382 52.9532 37.2917 47.2108 42.5734C40.4713 48.7827 34.1708 55.4091 28.4581 62.5794C23.8578 68.3571 19.5477 74.3372 15.7912 80.7051C12.0812 86.9998 8.81991 93.5067 6.32221 100.384C5.76111 101.928 5.20173 103.473 4.64405 105.018C4.58366 105.141 4.55326 105.277 4.55537 105.413C4.55748 105.55 4.59205 105.685 4.6562 105.806Z" fill="#F7CE4C"></path><path d="M221.481 96.8237C221.635 97.6748 221.776 98.4553 221.925 99.282C222.259 99.7405 222.803 100.004 223.274 100.348C225.81 102.237 228.514 103.889 231.353 105.284C235.271 107.158 239.433 108.472 243.717 109.189C247.505 109.821 251.36 109.958 255.184 109.594C260.399 109.105 265.483 107.672 270.185 105.365C274.681 103.21 278.783 100.317 282.323 96.8066C287.782 91.3704 291.548 84.9342 293.711 77.5395C296.524 67.8622 295.951 57.5149 292.087 48.2073C289.057 40.9248 284.425 34.8707 278.191 30.045C272.733 25.8292 266.369 22.9425 259.601 21.6139C255.628 20.8193 251.561 20.6 247.525 20.9627C243.955 21.2934 240.438 22.0584 237.053 23.2406C235.977 23.6113 234.912 24.004 233.843 24.3966C233.572 24.4991 233.314 24.6356 233.045 24.7576C233.228 25.1722 233.604 25.3137 233.909 25.5258C237.869 28.2478 241.688 31.171 245.349 34.2838C248.303 36.8007 251.152 39.4322 253.74 42.3296C255.086 43.8368 256.416 45.366 257.55 47.0488C257.807 47.4341 258.085 47.8046 258.384 48.1585C259.711 49.7072 260.743 51.4437 261.653 53.2558C262.436 54.8481 262.902 56.5777 263.024 58.3481C263.065 59.1061 263.019 59.8662 262.887 60.6138C262.521 63.0112 260.56 64.955 257.428 64.7769C256.289 64.6996 255.173 64.4231 254.13 63.9599C253.872 63.8502 253.628 63.6404 253.289 63.7136C252.967 63.9233 252.835 64.294 252.642 64.6111C250.332 68.4353 248.026 72.261 245.725 76.0884C244.268 78.5078 242.758 80.8922 241.193 83.2416C240.785 83.8815 240.254 84.433 239.629 84.8635C238.261 85.7756 236.919 86.7267 235.546 87.6267C231.601 90.2192 227.652 92.8028 223.696 95.3774C222.959 95.8579 222.221 96.34 221.481 96.8237Z" fill="#0076A8"></path><path d="M242.522 170.143C242.527 170.313 242.587 170.476 242.693 170.609C242.798 170.742 242.943 170.838 243.107 170.882C243.353 170.941 243.605 170.972 243.858 170.972C247.315 170.997 250.771 171.017 254.228 171.033C255.069 171.038 255.911 171.048 256.755 171.048C261.601 171.05 266.45 171.051 271.3 171.05V171.089C274.797 171.058 278.295 171.016 281.796 170.997C283.776 170.987 285.757 171.038 287.738 171.028C290.816 171.014 293.892 170.97 296.97 170.938C297.602 170.933 298.236 170.948 298.865 170.921C299.524 170.892 299.929 170.546 299.919 170.07C299.912 169.597 299.517 169.263 298.858 169.197C298.606 169.178 298.354 169.172 298.102 169.18C287.096 169.158 276.092 169.137 265.089 169.119C258.511 169.111 251.934 169.116 245.359 169.133C244.81 169.133 244.261 169.124 243.715 169.153C243.464 169.169 243.217 169.225 242.985 169.321C242.83 169.39 242.701 169.507 242.617 169.655C242.534 169.803 242.5 169.974 242.522 170.143Z" fill="#202020"></path><path d="M242.522 179.489C242.549 179.93 242.832 180.221 243.341 180.294C243.592 180.327 243.845 180.341 244.098 180.338C247.639 180.347 251.179 180.347 254.718 180.36C256.743 180.369 258.765 180.406 260.787 180.411C264.287 180.418 267.786 180.419 271.285 180.413V180.45C274.783 180.416 278.281 180.374 281.779 180.357C283.759 180.345 285.74 180.396 287.721 180.386C290.757 180.374 293.792 180.33 296.826 180.301C297.331 180.296 297.839 180.296 298.343 180.289C298.597 180.294 298.85 180.284 299.102 180.26C299.583 180.199 299.917 179.852 299.917 179.445C299.912 179.254 299.842 179.07 299.72 178.924C299.597 178.777 299.428 178.676 299.241 178.638C298.912 178.572 298.577 178.54 298.241 178.543C293.097 178.521 287.953 178.504 282.81 178.491C275.181 178.479 267.55 178.472 259.918 178.469C254.733 178.469 249.548 178.479 244.363 178.499C243.984 178.491 243.605 178.519 243.232 178.582C243.021 178.615 242.83 178.728 242.698 178.896C242.567 179.064 242.504 179.276 242.522 179.489Z" fill="#202020"></path><path d="M242.017 187.598C242.021 187.768 242.081 187.932 242.187 188.065C242.293 188.198 242.44 188.292 242.605 188.335C242.892 188.397 243.186 188.428 243.48 188.427C247.022 188.442 250.562 188.453 254.101 188.459C254.859 188.461 255.618 188.5 256.377 188.5C261.182 188.505 265.987 188.506 270.792 188.503V188.544C274.293 188.51 277.791 188.469 281.288 188.452C283.269 188.439 285.25 188.491 287.23 188.481C290.309 188.466 293.384 188.422 296.463 188.393C297.094 188.386 297.726 188.4 298.358 188.374C299.017 188.347 299.421 188.001 299.412 187.525C299.404 187.049 299.009 186.715 298.351 186.652C298.058 186.625 297.76 186.635 297.465 186.635C285.281 186.613 273.098 186.592 260.916 186.574C255.435 186.566 249.954 186.581 244.473 186.588C244.051 186.588 243.629 186.576 243.21 186.608C242.959 186.626 242.713 186.683 242.48 186.776C242.324 186.845 242.195 186.962 242.111 187.11C242.028 187.258 241.995 187.429 242.017 187.598Z" fill="#202020"></path><path d="M242.017 206.326C242.006 206.495 242.045 206.663 242.129 206.809C242.213 206.955 242.339 207.073 242.49 207.148C242.846 207.338 243.229 207.304 243.605 207.304C245.629 207.314 247.653 207.32 249.676 207.321C264.812 207.312 279.947 207.301 295.082 207.29C296.051 207.29 297.021 207.277 297.99 207.273C298.328 207.298 298.667 207.233 298.973 207.085C299.104 207.015 299.213 206.912 299.29 206.785C299.367 206.658 299.408 206.513 299.409 206.365C299.405 206.196 299.349 206.032 299.247 205.896C299.145 205.76 299.003 205.66 298.841 205.609C298.51 205.548 298.175 205.519 297.839 205.521C294.297 205.495 290.756 205.473 287.216 205.456C282.493 205.434 277.772 205.416 273.051 205.402C272.293 205.397 271.534 205.4 270.775 205.4V205.407C267.868 205.407 264.96 205.402 262.053 205.407C259.945 205.412 257.838 205.431 255.73 205.439C252.064 205.451 248.397 205.46 244.729 205.465C244.222 205.465 243.717 205.468 243.212 205.485C243.001 205.49 242.792 205.519 242.588 205.57C242.425 205.619 242.281 205.719 242.179 205.855C242.076 205.991 242.02 206.156 242.017 206.326Z" fill="#202020"></path><path d="M121.966 74.2079C122.077 74.2708 122.207 74.2931 122.333 74.2708C122.459 74.2486 122.573 74.1832 122.656 74.086C122.963 73.7417 123.25 73.381 123.517 73.0055C123.983 72.3568 124.425 71.691 124.883 71.0398C125 70.874 125.098 70.674 125.334 70.6203C125.634 70.7667 125.51 71.0471 125.505 71.2642C125.459 73.1958 125.388 75.1273 125.19 77.0516C125.161 77.337 125.056 77.6321 125.239 77.9101C125.486 78.1223 125.698 78.0369 125.886 77.8321C126.122 77.5344 126.279 77.1822 126.344 76.8077C126.865 74.7692 127.06 72.6612 126.922 70.5618C126.867 69.885 126.624 69.2371 126.22 68.6912C125.997 68.6271 125.761 68.6192 125.534 68.6681C125.308 68.717 125.096 68.8213 124.92 68.9717C124.612 69.1916 124.327 69.4425 124.071 69.7204C123.184 70.7333 122.445 71.8674 121.878 73.0885C121.809 73.2407 121.752 73.398 121.707 73.5592C121.671 73.6806 121.677 73.8108 121.723 73.9286C121.77 74.0463 121.856 74.1448 121.966 74.2079Z" fill="#202020"></path><path d="M298.841 146.447C301.188 146.806 302.788 149.101 302.498 151.435C302.349 152.595 301.764 153.656 300.861 154.401C299.959 155.146 298.807 155.52 297.639 155.447C294.746 155.239 293.321 152.844 293.387 150.971C293.392 147.806 295.731 145.969 298.841 146.447ZM298.063 154.259C298.516 154.263 298.966 154.177 299.386 154.006C299.805 153.835 300.187 153.581 300.507 153.261C300.828 152.941 301.082 152.56 301.253 152.14C301.425 151.72 301.511 151.271 301.507 150.818C301.497 148.959 299.909 147.386 298.026 147.367C296.312 147.35 294.682 149.008 294.658 150.791C294.649 151.243 294.731 151.693 294.898 152.114C295.065 152.534 295.314 152.917 295.632 153.24C295.949 153.563 296.327 153.82 296.745 153.995C297.162 154.17 297.61 154.259 298.063 154.259Z" fill="#202020"></path><path d="M294.658 150.791C294.652 151.243 294.736 151.692 294.905 152.111C295.073 152.531 295.323 152.913 295.64 153.236C295.958 153.558 296.336 153.814 296.752 153.99C297.169 154.166 297.617 154.257 298.069 154.259C298.521 154.261 298.969 154.173 299.388 154C299.806 153.828 300.186 153.575 300.505 153.255C300.825 152.935 301.078 152.555 301.25 152.136C301.422 151.718 301.509 151.27 301.507 150.818C301.497 148.959 299.909 147.386 298.026 147.367C296.312 147.35 294.682 149.008 294.658 150.791Z" fill="#F7CE4C"></path><path d="M276.798 146.693C279.144 147.035 280.761 149.322 280.486 151.656C280.346 152.817 279.77 153.882 278.874 154.633C277.977 155.384 276.829 155.766 275.661 155.7C272.756 155.515 271.322 153.115 271.375 151.256C271.368 148.093 273.676 146.24 276.798 146.693ZM276.102 154.515C276.556 154.512 277.004 154.419 277.421 154.241C277.839 154.063 278.216 153.804 278.532 153.479C278.848 153.153 279.096 152.768 279.261 152.346C279.426 151.924 279.506 151.473 279.495 151.02C279.459 150.108 279.071 149.245 278.414 148.611C277.756 147.978 276.879 147.623 275.966 147.62C274.246 147.623 272.649 149.298 272.646 151.096C272.644 151.548 272.733 151.997 272.906 152.415C273.08 152.833 273.335 153.212 273.656 153.531C273.978 153.849 274.36 154.1 274.78 154.269C275.2 154.438 275.65 154.522 276.102 154.515Z" fill="#202020"></path><path d="M272.646 151.096C272.647 151.548 272.737 151.996 272.912 152.413C273.087 152.831 273.343 153.209 273.665 153.527C273.987 153.845 274.368 154.096 274.788 154.266C275.208 154.435 275.657 154.52 276.109 154.515C276.562 154.51 277.009 154.415 277.424 154.237C277.84 154.058 278.216 153.798 278.531 153.473C278.846 153.149 279.093 152.764 279.259 152.343C279.424 151.922 279.505 151.472 279.496 151.02C279.459 150.108 279.071 149.245 278.414 148.611C277.756 147.978 276.879 147.623 275.966 147.62C274.246 147.623 272.649 149.298 272.646 151.096Z" fill="white"></path><path d="M283.198 148.625C283.876 147.498 284.915 146.993 286.167 146.708C286.869 146.557 287.597 146.575 288.291 146.761C288.985 146.947 289.624 147.296 290.156 147.778C290.688 148.261 291.097 148.863 291.35 149.536C291.603 150.208 291.691 150.931 291.609 151.644C291.392 154.039 289.223 155.847 286.803 155.7C283.935 155.527 282.413 153.139 282.508 151.142C282.492 150.254 282.732 149.38 283.198 148.625ZM287.206 154.515C287.659 154.516 288.109 154.427 288.527 154.252C288.946 154.078 289.326 153.821 289.644 153.499C289.963 153.176 290.214 152.793 290.383 152.372C290.552 151.951 290.635 151.5 290.628 151.047C290.599 150.134 290.218 149.268 289.566 148.63C288.913 147.991 288.038 147.629 287.125 147.62C285.408 147.613 283.791 149.276 283.779 151.066C283.773 151.519 283.857 151.968 284.027 152.388C284.196 152.808 284.448 153.19 284.767 153.511C285.087 153.832 285.467 154.086 285.885 154.259C286.304 154.431 286.753 154.518 287.206 154.515Z" fill="#202020"></path><path d="M283.779 151.066C283.776 151.519 283.862 151.967 284.033 152.386C284.205 152.805 284.457 153.186 284.777 153.507C285.096 153.827 285.476 154.082 285.894 154.255C286.312 154.428 286.761 154.516 287.213 154.515C287.666 154.513 288.114 154.423 288.531 154.247C288.948 154.072 289.327 153.815 289.644 153.493C289.962 153.17 290.212 152.788 290.381 152.368C290.55 151.948 290.634 151.499 290.628 151.047C290.599 150.134 290.218 149.268 289.566 148.629C288.913 147.991 288.039 147.629 287.125 147.62C285.408 147.613 283.791 149.276 283.779 151.066Z" fill="white"></path></g><defs><clipPath id="clip0_84_139"><rect width="306.384" height="270.685" fill="white" transform="matrix(-1 0 0 1 307.316 0.0686035)"></rect></clipPath></defs></svg>