<svg xmlns="http://www.w3.org/2000/svg" width="232" height="231" viewBox="0 0 232 231" fill="none"><path d="M228.994 96.3733C228.87 96.2849 228.7 96.2414 228.644 96.0486C229.392 95.5441 229.837 94.8105 230.136 93.9857C230.754 92.2736 230.461 90.7182 229.231 89.3714C228.551 88.6217 227.673 88.0798 226.697 87.8087C226.447 87.7474 226.205 87.6609 225.973 87.5507C225.367 87.2476 224.737 86.9964 224.088 86.7997C223.979 86.7649 223.853 86.7621 223.788 86.5736C223.808 86.5098 223.838 86.3997 223.875 86.2924C224.133 85.5429 224.412 84.7992 224.648 84.0425C225.406 81.5897 226.008 79.0963 226.521 76.5826C226.8 75.2112 226.994 73.8253 227.16 72.4351C227.307 71.2044 227.287 69.9664 227.365 68.7327C227.443 67.5179 227.304 66.3074 227.281 65.094C227.234 63.7415 227.058 62.3964 226.756 61.077C226.031 57.6907 224.549 54.6449 222.507 51.8659C220.109 48.5999 217.093 46.0079 213.616 43.9494C211.29 42.5708 208.782 41.7372 206.055 41.6299C205.735 41.6169 205.401 41.6575 205.107 41.5313C205.078 41.4847 205.054 41.4351 205.035 41.3835C205.01 41.2939 204.99 41.2029 204.976 41.1109C204.717 39.3317 204.235 37.5921 203.541 35.9328C203.201 35.0872 202.768 34.2824 202.248 33.5336C201.929 33.0726 201.597 32.6217 201.273 32.1637C201.209 32.0723 201.117 31.9839 201.168 31.881C201.2 31.8416 201.241 31.8102 201.287 31.7896C201.334 31.7689 201.385 31.7595 201.435 31.7621C202.314 31.636 203.196 31.5258 204.071 31.3823C205.34 31.175 206.598 30.9184 207.852 30.6299C211.348 29.8225 214.738 28.7135 217.952 27.1044C220.136 26.0113 222.186 24.7168 223.95 23.012C224.947 22.0883 225.783 21.0062 226.425 19.8097C227.904 16.922 227.846 14.0749 226.16 11.2785C225.392 10.0476 224.422 8.95351 223.292 8.04139C221.522 6.56564 219.535 5.42911 217.457 4.45059C214.931 3.26188 212.274 2.43992 209.57 1.78177C206.5 1.04428 203.379 0.537419 200.234 0.265437C198.394 0.101624 196.544 0.0349444 194.698 0.0219029C193.085 0.0102941 191.47 0.0740686 189.857 0.104523C189.717 0.107425 189.576 0.114663 189.436 0.127721C187.669 0.300221 185.894 0.398811 184.131 0.638007C182.509 0.858357 180.892 1.10479 179.291 1.4411C177.116 1.88707 174.97 2.46363 172.864 3.16765C170.866 3.82464 168.923 4.64101 167.056 5.60886C166.147 6.09304 165.26 6.61203 164.403 7.17883C164.156 7.35592 163.851 7.4345 163.549 7.39918C163.223 7.36794 162.9 7.31025 162.584 7.22668C162.382 7.1716 162.18 7.11506 161.975 7.06722C160.788 6.79033 159.572 6.69177 158.366 6.56998C156.692 6.40038 155.012 6.30084 153.326 6.27135C151.007 6.22933 148.696 6.35399 146.382 6.42502C146.289 6.42793 146.195 6.43518 146.102 6.44387C145.31 6.51635 144.521 6.61494 143.728 6.65698C141.74 6.76135 139.777 7.08898 137.802 7.29772C136.035 7.48473 134.292 7.84279 132.544 8.15591C129.485 8.70388 126.449 9.36203 123.429 10.1014C120.477 10.8233 117.565 11.68 114.662 12.573C113.369 12.9702 112.105 13.4631 110.823 13.9053C109.565 14.3402 108.311 14.7881 107.082 15.3013C105.14 16.1102 103.224 16.9747 101.332 17.8947C99.7352 18.6732 98.1673 19.5082 96.7404 20.5795C96.7037 20.619 96.6556 20.6461 96.6027 20.657C96.5498 20.6679 96.4949 20.6621 96.4455 20.6404C96.3918 20.5848 96.3432 20.5246 96.3002 20.4606C95.8439 19.7256 95.3252 19.0341 94.7992 18.3484C92.9356 15.9131 90.6961 13.7885 88.1645 12.054C84.7753 9.7004 80.9284 8.08297 76.8729 7.30642C75.7035 7.07382 74.521 6.91308 73.3318 6.82513C72.258 6.75701 71.1842 6.7396 70.1061 6.75845C67.1325 6.82859 64.1889 7.36877 61.3849 8.35888C55.8262 10.2294 50.9495 13.7047 47.3732 18.3441C45.0353 21.3335 43.3164 24.7567 42.3165 28.4148C41.6641 30.7059 41.2856 33.0659 41.189 35.4457C41.1126 37.6635 41.2901 39.8828 41.7179 42.0605C42.2953 45.0187 43.3022 47.8771 44.7068 50.5453C46.4086 53.7498 48.6849 56.6157 51.4228 59.0012C53.3334 60.69 55.4652 62.1121 57.7595 63.2284C57.9455 63.3182 58.1562 63.3748 58.2913 63.569C58.3075 63.9387 58.2578 64.3083 58.1446 64.6606C57.7261 66.0943 57.4326 67.5585 57.1376 69.0212C56.7075 71.171 56.3007 73.3252 56.0929 75.5113C55.9984 76.5086 55.8488 77.5031 55.8807 78.5106C55.8851 78.6454 55.9214 78.7918 55.8066 78.9136C55.6613 79.0093 55.4957 78.9629 55.3358 78.9586C53.8872 78.9165 52.4414 78.8165 50.997 78.6846C49.6457 78.5599 48.3046 78.3715 46.9663 78.1497C45.3738 77.8844 43.8088 77.4973 42.2512 77.0842C40.5706 76.6613 38.9624 75.9915 37.4794 75.0967C36.1801 74.2997 35.0613 73.2418 34.194 71.9901C33.5261 71.0316 32.9292 70.0258 32.4082 68.9806C32.1903 68.5428 31.9708 68.1035 31.734 67.6744C30.884 66.1436 30.0092 64.6273 28.8599 63.2892C28.1523 62.4486 27.3541 61.6883 26.4798 61.022C25.8423 60.5452 25.1242 60.1863 24.3598 59.9623C22.542 59.4288 21.1471 60.3044 20.4162 61.3626C20.2448 61.6129 20.1025 61.8819 19.9919 62.1643C19.7076 62.8816 19.5512 63.6431 19.5299 64.4142C19.514 65.5349 19.634 66.6535 19.8873 67.7455C20.2141 69.1544 20.6261 70.5423 21.1209 71.9016C21.5079 73.0761 21.9535 74.2305 22.4563 75.3605C22.5173 75.491 22.6612 75.6287 22.5406 75.8114C22.4784 75.7776 22.4191 75.7388 22.3633 75.6954C21.505 74.9367 20.7059 74.1138 19.973 73.2339C18.1272 70.9718 16.3987 68.6169 14.7944 66.1784C14.0214 64.9824 13.2236 63.8024 12.4303 62.6195C12.0187 62.0234 11.56 61.4611 11.0586 60.9379C10.6518 60.485 10.1726 60.1024 9.64042 59.8057C8.28619 59.0867 6.89998 59.3795 5.94387 60.5798C5.51646 61.1385 5.22362 61.7878 5.08803 62.4774C4.85233 63.5754 4.83112 64.7085 5.02555 65.8145C5.08826 66.1168 5.13483 66.4221 5.16504 66.7293C4.77417 66.7365 4.42689 66.738 4.07962 66.7525C3.28154 66.7756 2.50149 66.9947 1.8085 67.3903C1.43888 67.5945 1.11439 67.871 0.854465 68.2033C0.594545 68.5356 0.404554 68.9168 0.295877 69.3241C0.114999 70.0018 0.0511219 70.7053 0.106982 71.4044C0.18109 72.5815 0.532728 73.6963 0.948302 74.7879C2.27521 78.2631 4.19274 81.4841 6.61663 84.3092C8.20772 86.1749 9.93539 87.9203 11.6979 89.628C12.8995 90.807 14.2324 91.845 15.6706 92.7216C17.5747 93.8642 19.5813 94.8275 21.6644 95.5992C22.1889 95.7949 22.7033 96.0225 23.2395 96.1863C24.7542 96.6646 26.3013 97.0342 27.8689 97.2924C29.1127 97.5078 30.3685 97.6468 31.6294 97.7084C31.7456 97.7113 31.8619 97.7229 31.9781 97.7345C33.559 97.9012 35.139 98.0689 36.718 98.2375C37.9966 98.3753 39.2637 98.555 40.4973 98.9537C41.4339 99.2472 42.3282 99.6609 43.1579 100.184C44.8754 101.283 46.1381 102.795 47.0971 104.565C47.7044 105.684 48.1113 106.872 48.1127 108.168C48.1258 108.242 48.121 108.319 48.0988 108.391C48.0766 108.463 48.0375 108.529 47.9849 108.584C46.5464 108.682 45.0788 108.788 43.6112 108.884C42.1407 108.979 40.6702 109.059 39.1998 109.156C37.7336 109.253 36.2675 109.364 34.8944 109.461C34.72 109.382 34.7258 109.251 34.5936 109.253C34.4062 109.406 34.2173 109.583 34.0066 109.726C33.6437 109.983 33.3437 110.319 33.1289 110.707C32.661 111.515 32.1597 112.304 31.6817 113.105C31.2561 113.775 30.8713 114.471 30.5294 115.187C29.6285 117.212 28.8047 119.271 27.9997 121.335C26.9724 123.965 26.102 126.651 25.2941 129.354C24.0868 133.328 23.1241 137.371 22.4112 141.462C22.1105 143.233 21.8736 145.012 21.6542 146.795C21.4406 148.532 21.3302 150.28 21.2648 152.027C21.1401 154.615 21.1658 157.208 21.3418 159.793C21.5182 162.33 21.8697 164.851 22.3938 167.34C23.3877 171.882 24.9555 176.197 27.3763 180.2C29.4604 183.646 32.1859 186.664 35.4058 189.089C39.2215 191.98 43.4993 193.897 48.1709 194.963C50.8587 195.589 53.6017 195.949 56.3602 196.04C57.2263 196.065 58.0894 196.05 58.9539 196.04C60.4977 196.044 62.0407 195.966 63.5761 195.805C65.0611 195.628 66.5403 195.404 68.0166 195.164C70.8519 194.693 73.6556 194.049 76.4123 193.236C78.9726 192.493 81.4762 191.581 83.9565 190.613C86.6781 189.55 89.3313 188.328 91.941 187.014C93.3185 186.32 94.7062 185.64 96.043 184.876C99.0246 183.171 102.011 181.468 104.744 179.37C104.85 179.289 104.95 179.176 105.116 179.212C105.216 179.397 105.264 179.605 105.257 179.814C105.363 180.835 105.464 181.856 105.559 182.877C105.774 185.153 105.951 187.432 106.27 189.698C106.518 191.477 106.736 193.258 106.996 195.035C107.355 197.481 107.82 199.911 108.307 202.334C108.819 205.015 109.496 207.662 110.332 210.26C111.198 212.869 112.377 215.319 114.059 217.509C114.182 217.68 114.32 217.839 114.472 217.985C114.735 218.224 115.04 218.443 115.406 218.402C115.886 218.352 116.336 218.465 116.794 218.54C117.977 218.733 119.173 218.716 120.363 218.774C121.599 218.833 122.842 218.817 124.081 218.817C127.238 218.82 130.396 218.819 133.553 218.814C133.757 218.789 133.964 218.815 134.155 218.89C134.26 219.013 134.401 219.168 134.528 219.332C135.999 221.208 137.664 222.925 139.496 224.453C141.966 226.573 144.788 228.247 147.834 229.4C149.255 229.938 150.723 230.344 152.219 230.611C153.188 230.78 154.166 230.842 155.146 230.923C156.874 231.039 158.611 230.95 160.318 230.658C162.188 230.351 164.019 229.841 165.778 229.139C167.496 228.462 169.152 227.638 170.727 226.674C172.663 225.493 174.493 224.146 176.197 222.65C177.745 221.295 179.209 219.848 180.583 218.318C180.671 218.231 180.763 218.148 180.86 218.07C181.392 218.118 181.925 218.194 182.46 218.21C184.564 218.273 186.665 218.397 188.772 218.407C191.905 218.421 195.039 218.469 198.172 218.488C199.74 218.497 201.305 218.456 202.872 218.491C204.414 218.524 205.957 218.436 207.502 218.476C208.949 218.514 210.401 218.444 211.851 218.498C212.455 218.521 213.064 218.452 213.671 218.443C214.911 218.424 216.15 218.42 217.391 218.41C217.718 218.407 218.045 218.4 218.374 218.392C218.61 218.404 218.843 218.325 219.025 218.173C219.426 217.785 219.825 217.395 219.94 216.803C220.087 216.119 220.189 215.425 220.245 214.728C220.35 212.934 220.412 211.138 220.405 209.341C220.399 207.52 220.385 205.699 220.228 203.884C220.095 202.35 219.96 200.817 219.8 199.286C219.675 198.08 219.546 196.871 219.357 195.675C219.151 194.383 219.039 193.083 218.869 191.788C218.685 190.378 218.522 188.964 218.346 187.552C218.238 186.696 218.103 185.843 218.015 184.985C217.855 183.429 217.621 181.884 217.365 180.342C217.079 178.615 216.701 176.907 216.256 175.216C215.372 171.854 214.366 168.528 213.311 165.217C212.73 163.394 212.099 161.589 211.357 159.825C210.321 157.348 209.128 154.941 207.784 152.617C206.684 150.717 205.411 148.922 203.981 147.255C202.075 145.042 200.059 142.927 197.941 140.915C196.79 139.786 195.56 138.74 194.26 137.784C193.898 137.526 193.542 137.262 193.188 136.994C193.083 136.913 192.939 136.855 192.935 136.656C193.552 136.167 194.138 135.639 194.687 135.075C196.28 133.462 197.786 131.767 199.199 129.995C200.257 128.688 201.298 127.367 202.322 126.033C203.526 124.456 204.711 122.863 205.84 121.231C206.942 119.639 208.002 118.015 209.054 116.387C210.353 114.419 211.497 112.352 212.473 110.206C212.679 109.739 212.811 109.246 212.997 108.752C213.47 108.752 213.911 108.762 214.352 108.749C214.833 108.742 215.307 108.63 215.741 108.423C216.176 108.216 216.56 107.918 216.868 107.549C216.976 107.425 217.07 107.292 217.176 107.166C217.511 106.809 217.911 106.519 218.355 106.311C218.435 106.418 218.516 106.531 218.6 106.641C220.604 109.249 223.873 110.273 227.077 109.153C228.539 108.653 229.805 107.706 230.697 106.447C231.588 105.188 232.058 103.68 232.041 102.139C232.01 99.6959 230.973 97.7896 228.994 96.3733ZM203.413 44.3611C203.443 46.1804 203.419 47.9983 203.133 49.8016C202.824 51.7599 202.282 53.6745 201.518 55.5046C201.108 56.4467 200.562 57.3242 199.898 58.1096C198.759 59.5234 197.135 60.4664 195.34 60.7567C193.999 61.0144 192.61 60.8121 191.399 60.1826C190.843 59.9065 190.351 59.5166 189.956 59.0383C189.56 58.56 189.27 58.004 189.105 57.4065C188.818 56.4648 188.799 55.4623 189.048 54.5101C189.494 52.7154 190.431 51.2121 191.735 49.922C193.344 48.3238 195.188 46.9795 197.203 45.9354C198.666 45.1554 200.217 44.5519 201.823 44.1378C202.309 43.9955 202.808 43.9056 203.313 43.8696C203.449 44.032 203.41 44.2031 203.413 44.3611ZM162.521 11.2176C163.698 10.0118 165.034 8.97284 166.494 8.12982C168.55 6.92315 170.726 5.93164 172.986 5.17109C176.041 4.13586 179.179 3.36469 182.366 2.86612C183.983 2.5994 185.607 2.42253 187.232 2.22973C187.812 2.16015 188.396 2.12827 188.98 2.09346C192.038 1.88762 195.106 1.88326 198.165 2.08041C200.24 2.22973 202.309 2.43558 204.369 2.73421C207.47 3.17712 210.525 3.89463 213.499 4.87825C215.094 5.41381 216.652 6.05402 218.163 6.7947C219.719 7.5536 221.168 8.51433 222.473 9.65196C223.266 10.3444 223.966 11.1373 224.553 12.0106C225.415 13.2834 225.876 14.6794 225.741 16.2363C225.691 16.8655 225.54 17.4826 225.294 18.0643C224.849 19.0954 224.234 20.0446 223.474 20.8723C222.307 22.1205 220.968 23.196 219.497 24.0659C217.267 25.3924 214.896 26.4669 212.428 27.2696C209.654 28.186 206.817 28.8973 203.939 29.3977C202.05 29.7384 200.148 29.9559 198.243 30.1602C197.291 30.2617 196.331 30.298 195.372 30.3284C193.83 30.3762 192.286 30.4125 190.742 30.4241C189.551 30.4328 188.358 30.3937 187.165 30.3835C186.908 30.3806 186.652 30.3966 186.398 30.4313C186.208 30.4472 186.03 30.525 185.889 30.6527C185.748 30.7803 185.654 30.9507 185.62 31.1373C185.253 32.8595 184.265 34.2555 183.191 35.5791C181.302 37.9067 179.007 39.875 176.417 41.3893C175.356 42.0284 174.237 42.5661 173.075 42.9955C173.028 43.0248 172.974 43.0411 172.919 43.0426C172.864 43.0441 172.809 43.0309 172.761 43.0042C173.996 41.1603 174.818 39.1597 175.493 37.0896C175.816 36.0919 176.082 35.0764 176.289 34.0482C176.487 32.9936 176.575 31.9215 176.552 30.8488C176.658 30.7111 176.805 30.7662 176.94 30.7648C177.174 30.7604 177.408 30.7677 177.642 30.7532C178.314 30.7126 178.413 30.6314 178.691 29.9269C178.64 29.679 178.438 29.5528 178.239 29.434C177.822 29.1751 177.372 28.9742 176.901 28.8367C175.551 28.4555 174.198 28.0872 172.861 27.6683C170.128 26.813 167.517 25.6895 165.125 24.0949C164.09 23.4124 163.131 22.6212 162.266 21.7349C161.569 21.0082 160.999 20.1703 160.58 19.2559C159.849 17.6932 159.823 16.0986 160.417 14.4953C160.888 13.2712 161.604 12.1558 162.521 11.2176ZM53.9424 58.7228C49.1618 55.0103 45.939 50.2249 44.1982 44.4422C43.7276 42.781 43.4072 41.081 43.2407 39.3626C43.143 38.4111 43.1032 37.4545 43.1215 36.4981C43.1826 30.4545 45.009 24.9908 48.5588 20.0996C50.4235 17.5187 52.7252 15.2821 55.3605 13.4906C58.25 11.4918 61.5019 10.0733 64.9347 9.3142C67.5388 8.73484 70.2097 8.511 72.8741 8.64881C79.0034 9.03251 84.8382 11.4076 89.4872 15.4111C94.1361 19.4146 97.3435 24.8265 98.6192 30.8198C98.7049 31.2315 98.7791 31.6447 98.8517 32.0578C98.9316 32.5159 98.981 32.9813 99.2106 33.4017C99.2888 33.5723 99.3232 33.7596 99.3109 33.9468V36.0473C99.2702 38.9756 98.9055 41.8633 98.0249 44.6641C96.1636 50.5888 92.7794 55.4466 87.749 59.1447C86.2622 60.2395 84.6724 61.1877 83.0019 61.9758C80.6751 63.0745 78.2026 63.8351 75.6596 64.2344C73.8144 64.5488 71.942 64.675 70.0712 64.6113C64.0788 64.3344 58.6837 62.4035 53.9424 58.7228ZM45.5656 99.5321C44.0137 98.107 42.18 97.2257 40.1457 96.7313C38.5983 96.369 37.0262 96.121 35.4422 95.9891C33.5096 95.8137 31.5742 95.6557 29.646 95.4426C28.18 95.3013 26.7274 95.0459 25.3014 94.6786C23.5623 94.2143 21.8692 93.5928 20.2433 92.8216C19.2116 92.3258 18.1655 91.8648 17.1745 91.2835C15.6396 90.3854 14.2184 89.3063 12.9418 88.0696C11.201 86.3764 9.46316 84.6731 7.89532 82.8146C5.55478 80.0721 3.73355 76.9279 2.52049 73.5354C2.23905 72.7189 2.03045 71.8792 1.89714 71.026C1.82731 70.6578 1.83922 70.2788 1.93202 69.9156C1.99821 69.6298 2.13879 69.3664 2.33956 69.1521C2.54033 68.9379 2.7942 68.7802 3.07556 68.695C3.47603 68.5631 3.89635 68.5013 4.31792 68.5123C4.78436 68.521 5.24933 68.5674 5.6344 68.5921C5.71913 68.636 5.79344 68.6976 5.85233 68.7726C5.91123 68.8476 5.95335 68.9344 5.97586 69.027C6.63773 70.598 7.45448 72.0995 8.41407 73.5093C9.17548 74.6284 9.91508 75.7635 10.6896 76.8739C12.1744 79.0012 13.8993 80.9512 15.8304 82.6856C17.2902 83.998 18.817 85.2343 20.4046 86.3895C22.1055 87.6282 23.9265 88.6937 25.8404 89.57C26.982 90.1079 28.1833 90.5094 29.4193 90.766C29.6938 90.8203 29.9722 90.8523 30.2519 90.8617C30.3684 90.876 30.4864 90.8534 30.5894 90.7973C30.6924 90.7411 30.7751 90.6541 30.8259 90.5486C30.8347 90.4415 30.8094 90.3343 30.7536 90.2424C30.6977 90.1505 30.6142 90.0785 30.5149 90.0368C30.3477 89.9558 30.1748 89.887 29.9976 89.831C29.5617 89.6599 29.1142 89.5178 28.6957 89.3134C26.362 88.1796 24.1251 86.8575 22.0073 85.3602C20.4017 84.2237 18.8876 82.9785 17.3982 81.6998C16.1955 80.6606 15.0829 79.522 14.0722 78.2961C12.741 76.6693 11.4993 74.9716 10.3524 73.2107C9.52738 71.9646 8.77397 70.6728 8.09583 69.3415C7.51895 68.2454 7.09975 67.0737 6.85058 65.8609C6.67107 65.0144 6.64206 64.1429 6.76484 63.2863C6.83899 62.7292 7.04032 62.1966 7.35332 61.7294C7.70641 61.2249 8.14233 61.1234 8.6945 61.409C9.00225 61.5779 9.28533 61.7882 9.53581 62.0338C9.90566 62.3908 10.2436 62.7794 10.5457 63.195C11.2533 64.1257 11.9043 65.0926 12.5276 66.0813C13.5215 67.6628 14.5227 69.2415 15.6502 70.7318C16.7894 72.2408 17.9315 73.75 19.2015 75.1561C20.4197 76.4815 21.7829 77.6665 23.2656 78.6889C23.3993 78.7831 23.5315 78.8803 23.671 78.9658C24.3647 79.398 24.9746 79.9514 25.4714 80.5996C26.6135 82.0623 28.1203 83.0886 29.7578 83.9236C30.9684 84.5358 32.2528 84.9903 33.5794 85.2762C34.0849 85.3701 34.5952 85.4369 35.108 85.4762C35.7342 85.5429 36.3678 85.5458 36.9998 85.5675C37.3355 85.5791 37.6537 85.5342 37.8615 85.1921C37.7948 85.0569 37.6974 84.9391 37.5771 84.848C37.4568 84.7569 37.3168 84.6951 37.1684 84.6673C35.2867 84.1744 33.4907 83.4438 31.6991 82.703C30.6115 82.2695 29.5902 81.6859 28.6652 80.9692C27.6875 80.2065 26.8367 79.2946 26.1441 78.2671C25.3074 76.972 24.61 75.5925 24.0634 74.1515C23.4981 72.7207 22.9547 71.2797 22.4868 69.8112C22.0817 68.6181 21.7774 67.3932 21.5772 66.1494C21.4349 65.2482 21.4536 64.3289 21.6324 63.4342C21.7183 63.0459 21.8803 62.6784 22.109 62.3528C22.2569 62.1258 22.4694 61.9481 22.7192 61.8424C22.9691 61.7368 23.2449 61.708 23.5112 61.7598C23.837 61.8018 24.152 61.9045 24.4397 62.0628C24.9561 62.3371 25.4401 62.6683 25.8826 63.05C26.6001 63.6857 27.251 64.3924 27.8253 65.1593C28.6407 66.2416 29.3635 67.3904 29.986 68.5935C30.4117 69.4242 30.8622 70.2418 31.2836 71.0753C33.081 74.6226 35.897 77.0044 39.6153 78.3656C40.9079 78.8428 42.2319 79.2308 43.5778 79.5268C44.903 79.8167 46.234 80.0675 47.5708 80.2792C48.4469 80.4184 49.3319 80.5082 50.2168 80.5793C51.616 80.6923 53.0168 80.7793 54.4161 80.859C54.9998 80.8991 55.5853 80.9074 56.1699 80.8837C56.9413 80.8552 57.7133 80.9174 58.4701 81.0693C59.1632 81.1983 59.865 81.22 60.561 81.2954C61.6522 81.4143 62.7507 81.4737 63.842 81.6013C65.2145 81.7501 66.5626 82.0721 67.8538 82.5595C69.2374 83.0933 70.4341 84.0195 71.2961 85.224C72.2858 86.591 72.9592 88.16 73.2679 89.8179C73.6821 92.0468 73.7546 94.3256 73.4829 96.5762C73.3464 97.8287 73.2069 99.0827 72.9947 100.322C72.739 101.817 72.4862 103.311 72.2653 104.81C72.1665 105.48 72.1011 106.153 72.0168 106.824C71.9965 106.982 72.0459 107.153 71.9267 107.295C71.7858 107.401 71.6158 107.37 71.4574 107.378C69.5423 107.473 67.6272 107.568 65.712 107.66C63.9611 107.749 62.2097 107.841 60.4578 107.936C58.7069 108.03 56.956 108.131 55.2051 108.226C53.8043 108.302 52.4036 108.375 51.0029 108.445C50.6309 108.462 50.2574 108.447 49.8695 108.447C49.8433 108.388 49.791 108.327 49.7925 108.268C49.8389 106.246 49.2589 104.26 48.1316 102.579C47.4052 101.462 46.5433 100.439 45.5656 99.5321ZM132.314 217.035C131.401 217.044 130.49 217.051 129.578 217.051C127.565 217.051 125.554 217.03 123.543 217.047C121.882 217.061 120.223 217.105 118.564 217.166C117.911 217.189 117.263 217.295 116.614 217.366C116.406 217.389 116.201 217.421 116.008 217.449C114.36 214.749 113.603 213.085 112.625 210.302C111.771 207.875 111.181 205.382 110.642 202.874C110.043 200.09 109.575 197.284 109.144 194.47C108.837 192.465 108.552 190.457 108.362 188.435C108.224 186.972 108.022 185.516 107.874 184.054C107.746 182.802 107.656 181.545 107.545 180.29C107.448 179.198 107.359 178.105 107.24 177.015C107.136 176.042 106.441 175.709 105.594 176.206C105.45 176.283 105.312 176.372 105.183 176.471C104.661 176.866 104.108 177.218 103.531 177.525C101.749 178.551 99.9715 179.585 98.1978 180.624C97.1502 181.24 96.0866 181.825 95.0084 182.389C93.8503 182.996 92.7068 183.634 91.5429 184.23C88.6281 185.72 85.6319 187.025 82.5892 188.234C79.3911 189.486 76.1225 190.55 72.8 191.423C70.9489 191.919 69.0715 192.298 67.184 192.63C66.0782 192.825 64.9662 192.969 63.8478 193.064C63.0791 193.129 62.3148 193.239 61.5447 193.287C60.6351 193.344 59.7226 193.381 58.8101 193.378C57.3382 193.374 55.8648 193.364 54.3943 193.228C51.4054 192.951 48.4702 192.422 45.6208 191.456C41.5348 190.073 37.8644 187.996 34.7142 185.034C33.6372 183.996 32.6364 182.883 31.7195 181.701C30.1069 179.639 28.7496 177.391 27.6771 175.004C26.4066 172.195 25.4716 169.247 24.8916 166.221C24.5 164.3 24.2224 162.359 24.0605 160.406C23.8818 158.149 23.8469 155.886 23.8658 153.62C23.8832 151.61 24.0692 149.615 24.2799 147.619C24.4092 146.389 24.5327 145.16 24.7303 143.939C24.864 143.11 25.0224 142.287 25.1663 141.459C25.5716 139.113 26.0439 136.782 26.6542 134.482C27.5943 130.943 28.5925 127.421 29.8901 123.991C30.4859 122.421 31.0366 120.833 31.6309 119.263C31.952 118.412 32.3051 117.573 32.6712 116.739C33.0847 115.749 33.4332 114.733 33.7145 113.698C33.9223 112.983 34.1577 112.276 34.4483 111.548C35.9885 111.505 37.459 111.471 38.9295 111.416C40.6354 111.353 42.3398 111.266 44.0457 111.192C44.4191 111.176 44.794 111.174 45.1674 111.16C46.7571 111.099 48.3467 111.052 49.9349 110.97C51.8035 110.873 53.6692 110.736 55.5364 110.628C56.7264 110.558 57.9179 110.507 59.1094 110.448C61.5622 110.323 64.0144 110.199 66.4662 110.074C67.7972 110.006 69.1297 109.945 70.4606 109.875C71.8149 109.804 73.1677 109.725 74.5219 109.651C74.6409 109.622 74.7661 109.637 74.875 109.693C74.952 109.875 74.8387 110.042 74.782 110.204C74.0264 112.485 73.3857 114.802 72.8625 117.147C72.3845 119.194 72.0532 121.265 71.7698 123.346C71.4436 125.705 71.3042 128.085 71.3528 130.466C71.4051 132.786 71.7001 135.07 72.4528 137.278C72.909 138.616 73.544 139.856 74.5117 140.904C75.5826 142.065 76.8482 142.907 78.4088 143.26C79.0713 143.407 79.7504 143.467 80.4285 143.436C81.9723 143.352 83.4916 143.015 84.9257 142.439C85.8623 142.072 86.7635 141.622 87.6182 141.092C89.0867 140.222 90.487 139.242 91.8073 138.161C92.4874 137.591 93.2023 137.061 93.8198 136.42C93.9651 136.268 94.1046 136.11 94.2543 135.962C94.4025 135.817 94.4548 135.589 94.6626 135.499C94.8645 135.56 94.943 135.743 95.0549 135.885C95.6894 136.664 96.3884 137.389 97.1444 138.051C97.3129 138.212 97.5008 138.353 97.7038 138.468C98.232 138.769 98.731 139.118 99.1946 139.511C100.037 140.178 100.925 140.788 101.851 141.334C102.574 141.763 103.291 142.203 104.014 142.633C105.66 143.616 107.235 144.711 108.728 145.912C109.717 146.699 110.611 147.598 111.392 148.591C112.503 150.011 113.193 151.637 113.702 153.346C114.341 155.492 114.895 157.659 115.461 159.823C115.697 160.725 115.982 161.614 116.316 162.485C116.936 164.081 117.935 165.503 119.226 166.631C120.066 167.379 120.931 168.091 122.003 168.495C122.711 169.788 123.417 171.077 124.122 172.361C124.819 173.631 125.714 174.772 126.483 175.967C126.432 176.161 126.285 176.194 126.165 176.257C125.193 176.767 124.218 177.27 123.248 177.789C122.858 177.998 122.48 178.232 122.103 178.466C121.958 178.545 121.836 178.66 121.75 178.801C121.664 178.942 121.617 179.103 121.614 179.268C121.611 179.453 121.57 179.637 121.492 179.805C121.398 180.071 121.364 180.353 121.391 180.633C121.388 182.01 121.461 183.386 121.609 184.754C121.776 186.333 121.983 187.905 122.243 189.47C122.673 192.072 123.279 194.635 123.895 197.198C124.664 200.325 125.685 203.385 126.948 206.349C128.41 209.841 130.098 213.221 132.283 216.334C132.414 216.522 132.53 216.721 132.642 216.898C132.546 217.056 132.423 217.035 132.314 217.035ZM121.556 141.055C121.442 140.879 121.308 140.718 121.156 140.575C120.496 139.946 119.788 139.369 119.037 138.851C117.698 137.913 116.306 137.053 114.867 136.275C112.701 135.076 110.467 134.003 108.176 133.064C105.489 131.975 102.763 131.001 99.8252 130.572C99.4939 130.066 99.0595 129.708 98.6541 129.323C98.144 128.842 97.6804 128.314 97.2693 127.747C97.0157 127.411 96.822 127.034 96.6968 126.632C96.5312 126.064 96.6605 125.684 97.1575 125.375C97.6413 125.086 98.1852 124.912 98.7471 124.866C100.424 124.703 102.116 124.777 103.772 125.087C107.311 125.717 110.681 126.87 113.956 128.329C116.238 129.352 118.432 130.561 120.515 131.942C121.523 132.621 122.486 133.365 123.398 134.167C123.699 134.427 124.013 134.67 124.325 134.914C124.374 134.964 124.432 135.004 124.497 135.031C124.562 135.058 124.631 135.071 124.701 135.07C124.799 135.04 124.863 134.978 124.909 134.815C124.751 134.324 124.5 133.867 124.17 133.47C123.524 132.66 122.735 132 121.933 131.358C120.248 130.01 118.405 128.912 116.492 127.921C113.958 126.616 111.32 125.525 108.605 124.658C107.132 124.203 105.636 123.822 104.125 123.518C103.762 123.44 103.376 123.457 102.99 123.269C102.55 122.54 101.926 121.906 101.351 121.232C100.953 120.773 100.595 120.281 100.282 119.761C100.055 119.379 99.8817 118.968 99.7671 118.54C99.5768 117.815 99.8035 117.318 100.481 116.99C101.04 116.722 101.644 116.654 102.252 116.616C103.005 116.57 103.747 116.692 104.487 116.79C105.804 116.987 107.102 117.293 108.369 117.704C110.444 118.348 112.467 119.149 114.42 120.1C117.525 121.599 120.448 123.385 123.073 125.633C124.024 126.427 124.916 127.288 125.742 128.211C125.91 128.404 126.095 128.583 126.294 128.746C126.323 128.776 126.358 128.801 126.396 128.817C126.435 128.834 126.477 128.842 126.519 128.842C126.561 128.841 126.603 128.832 126.641 128.814C126.679 128.797 126.714 128.771 126.742 128.74C126.853 128.486 126.765 128.251 126.657 128.012C126.36 127.403 125.983 126.836 125.534 126.328C125.252 125.987 124.932 125.674 124.845 125.214C124.017 123.621 123.228 122.005 122.173 120.539C121.778 119.99 121.393 119.434 121.002 118.881C119.324 116.505 117.201 114.591 114.821 112.94C113.958 112.341 113.103 111.728 112.246 111.119C111.735 110.749 111.255 110.338 110.81 109.89C110.46 109.545 110.171 109.144 109.954 108.703C109.71 108.217 109.661 107.656 109.816 107.136C110.029 106.388 110.573 105.974 111.316 105.828C111.87 105.723 112.441 105.749 112.983 105.903C113.749 106.116 114.485 106.426 115.172 106.825C117.385 108.089 119.556 109.425 121.522 111.055C123.498 112.669 125.229 114.56 126.662 116.668C127.576 118.036 128.234 119.529 128.821 121.054C129.324 122.36 129.779 123.682 130.187 125.021C130.288 125.356 130.364 125.697 130.45 126.035C130.615 126.69 130.817 127.337 131.025 127.98C131.782 130.333 132.559 132.68 133.305 135.036C133.572 135.879 133.768 136.745 134.001 137.6C134.312 138.75 134.745 139.857 135.144 140.976C135.582 142.207 136.008 143.441 136.461 144.666C136.673 145.283 136.929 145.885 137.227 146.466C137.794 147.539 138.261 148.661 138.623 149.819C140.019 154.101 141.746 158.258 143.414 162.437C143.941 163.756 144.477 165.072 145.005 166.382C144.964 166.587 144.783 166.624 144.644 166.695C143.049 167.525 141.449 168.347 139.852 169.175C137.84 170.219 135.829 171.263 133.819 172.309C132.057 173.222 130.292 174.133 128.526 175.04C128.362 175.124 128.192 175.198 128.055 175.264C127.885 175.217 127.843 175.101 127.786 175.004C127.019 173.669 126.247 172.335 125.49 170.994C125.204 170.487 124.963 169.955 124.678 169.446C124.324 168.817 123.937 168.204 123.577 167.577C123.394 167.259 123.167 167.015 122.786 166.947C122.603 166.904 122.435 166.815 122.297 166.687C121.97 166.422 121.64 166.162 121.307 165.906C119.611 164.631 118.373 162.845 117.775 160.812C117.439 159.697 117.131 158.572 116.832 157.447C116.329 155.555 115.839 153.661 115.233 151.797C114.48 149.503 113.159 147.435 111.393 145.785C109.609 144.079 107.592 142.693 105.494 141.411C103.939 140.46 102.308 139.644 100.717 138.755C100.514 138.641 100.306 138.534 100.103 138.419C99.7308 138.22 99.4046 137.945 99.1452 137.613C98.8438 137.226 98.5072 136.868 98.1397 136.543C97.3225 135.807 96.6067 134.966 96.011 134.043C95.9046 133.89 95.8131 133.727 95.7378 133.557C95.6979 133.466 95.6765 133.368 95.6747 133.269C95.673 133.169 95.6909 133.07 95.7275 132.978C95.7641 132.886 95.8186 132.801 95.888 132.73C95.9573 132.659 96.0401 132.602 96.1316 132.563C96.235 132.508 96.3463 132.469 96.4614 132.448C97.0367 132.342 97.6219 132.299 98.2065 132.319C99.372 132.404 100.529 132.581 101.666 132.848C103.079 133.169 104.473 133.563 105.845 134.027C107.474 134.602 109.087 135.215 110.671 135.911C113.25 137.068 115.761 138.372 118.19 139.815C119.017 140.298 119.848 140.772 120.681 141.245C120.922 141.382 121.163 141.537 121.45 141.491C121.488 141.472 121.522 141.445 121.548 141.411C121.575 141.378 121.594 141.339 121.604 141.297C121.615 141.256 121.615 141.213 121.607 141.171C121.599 141.129 121.581 141.089 121.556 141.055ZM146.391 83.1307C146.514 83.1969 146.646 83.2443 146.783 83.2713C147.286 83.3802 147.794 83.4634 148.305 83.5206C150.564 83.7047 152.825 83.8961 155.096 83.8439C156.499 83.8121 157.898 83.6945 159.285 83.4916C161.559 83.1582 163.749 82.4957 165.933 81.8115C166.824 81.5317 167.715 81.2543 168.608 80.9794C168.694 80.9518 168.778 80.8982 168.873 80.9591C168.881 80.975 168.906 80.9982 168.9 81.0098C168.406 82.1101 168.248 83.293 168.066 84.4658C167.747 86.4714 167.603 88.5008 167.635 90.5312C167.651 91.369 167.715 92.2084 167.786 93.0449C167.822 93.4643 167.927 93.8748 168.098 94.2597C168.129 94.3424 168.155 94.4271 168.174 94.5134C168.114 94.5496 168.078 94.5902 168.04 94.5916C165.68 94.667 163.32 94.7395 160.959 94.8091C160.92 94.8091 160.879 94.7671 160.839 94.7453C160.3 90.5196 157.26 88.2813 154.514 87.7986C153.593 87.6135 152.645 87.611 151.724 87.7913C150.81 87.9928 149.916 88.2697 149.124 88.7974C147.521 89.7687 146.322 91.2838 145.747 93.0652C144.945 92.7641 144.123 92.5185 143.287 92.3302C144.767 87.4666 141.48 83.6177 137.382 83.2176C137.402 82.9669 137.567 82.8523 137.689 82.7204C138.941 81.3337 140.279 80.0255 141.693 78.8034C142.055 78.4976 142.491 78.3265 142.87 78.0873C142.948 78.0917 143.025 78.1043 143.1 78.125C144.615 78.7614 146.201 79.1499 147.802 79.4877C148.717 79.6805 149.627 79.8878 150.539 80.0922C150.648 80.1223 150.755 80.1581 150.859 80.1995C150.845 80.3473 150.739 80.3473 150.664 80.3734C149.445 80.8451 148.203 81.2544 146.942 81.5998C146.783 81.6402 146.628 81.69 146.475 81.7492C146.331 81.8011 146.206 81.8964 146.118 82.0221C146.03 82.1477 145.983 82.2975 145.984 82.4508C145.975 82.5919 146.008 82.7327 146.081 82.8542C146.154 82.9757 146.262 83.0722 146.391 83.1307ZM159.088 95.6282C158.95 97.9548 156.947 101.222 153.17 101.247C150.128 101.331 147.263 98.9131 147.173 95.6166C147.073 92.0446 149.637 89.6208 152.832 89.4425C155.618 89.2859 159.021 91.243 159.088 95.6282ZM141.881 88.9699C142.03 89.6575 142.036 90.3683 141.898 91.0583C141.76 91.7482 141.482 92.4025 141.08 92.9807C140.678 93.5588 140.161 94.0484 139.562 94.419C138.963 94.7896 138.293 95.0334 137.596 95.1353C135.559 95.4339 133.819 94.77 132.491 93.1507C132.212 92.8115 132.004 92.4143 131.669 92.1577C132.203 90.4413 134.741 86.1517 135.968 84.8645C138.282 84.3962 141.246 85.7951 141.881 88.9699ZM135.702 96.6603C137.284 96.9557 138.919 96.6628 140.298 95.8369C141.198 95.329 141.96 94.61 142.519 93.7422C142.571 93.6654 142.627 93.5914 142.687 93.5204C142.716 93.4948 142.747 93.4711 142.779 93.4493C143.59 93.8654 144.506 94.0495 145.422 94.3626C145.422 94.8251 145.41 95.2193 145.425 95.6136C145.532 98.6434 147.421 101.75 151.029 102.772C152.825 103.28 154.744 103.121 156.431 102.325C158.118 101.53 159.46 100.151 160.207 98.4448C160.427 97.9547 160.566 97.4324 160.621 96.8981C160.623 96.7067 160.668 96.5182 160.754 96.3472C160.817 96.3253 160.881 96.3097 160.946 96.3008C162.441 96.2457 163.937 96.1964 165.433 96.1413C166.975 96.0848 168.517 96.0384 170.058 95.963C171.272 95.905 172.485 95.8137 173.697 95.7282C173.975 95.6983 174.256 95.7366 174.516 95.8398C174.871 95.9626 175.248 96.0109 175.622 95.9819C176.393 95.9633 177.164 96.0167 177.925 96.1413C179.081 96.3534 180.159 96.8716 181.046 97.6417C181.957 98.4144 182.602 99.3958 182.758 100.608C182.89 101.512 182.834 102.434 182.594 103.316C182.281 104.393 181.783 105.408 181.123 106.316C180.419 107.338 179.531 108.22 178.505 108.919C176.237 110.4 173.891 110.564 171.462 109.355C170.875 109.053 170.351 108.642 169.919 108.143C170.174 107.541 170.369 106.916 170.501 106.276C170.647 105.47 170.629 104.644 170.451 103.845C170.332 103.344 170.115 102.872 169.811 102.456C168.833 101.098 167.29 100.902 166.013 101.524C165.406 101.832 164.872 102.266 164.447 102.797C164.129 103.171 163.863 103.586 163.656 104.03C163.56 104.241 163.457 104.448 163.348 104.678C162.62 104.684 161.899 104.583 161.187 104.794C160.488 104.988 159.836 105.322 159.271 105.777C158.711 106.241 158.194 106.743 157.892 107.453C156.853 107.236 155.789 107.157 154.729 107.22C154.166 107.222 153.611 107.35 153.104 107.595C152.637 107.818 152.239 108.161 151.95 108.59C151.889 108.685 151.853 108.804 151.728 108.846C150.327 108.042 148.706 107.701 147.099 107.871C146.797 107.898 146.497 107.944 146.201 108.01C145.651 108.148 145.155 108.444 144.772 108.861C144.705 108.829 144.644 108.787 144.589 108.737C144.169 108.16 143.569 107.853 142.914 107.65C142.087 107.392 141.227 107.253 140.361 107.237C139.534 107.223 138.732 107.381 138.052 107.911C137.979 107.966 137.897 108.008 137.82 108.056C136.621 106.483 135.948 105.826 133.28 105.918C133.161 105.779 133.212 105.61 133.205 105.452C133.117 103.723 132.404 102.263 131.272 100.986C130.961 100.668 130.598 100.405 130.198 100.208C129.976 100.082 129.745 99.9728 129.53 99.8626C129.491 99.8158 129.464 99.7599 129.453 99.7001C129.441 99.6403 129.444 99.5785 129.463 99.5205C129.766 97.6087 130.247 95.7295 130.902 93.9074C130.941 93.7987 130.993 93.6943 131.042 93.59C131.051 93.5726 131.076 93.561 131.095 93.5436C131.249 93.5247 131.279 93.6624 131.337 93.7523C131.82 94.515 132.458 95.168 133.21 95.669C133.962 96.1699 134.811 96.5077 135.702 96.6603ZM142.202 113.945C142.09 114.29 141.789 114.466 141.472 114.617C141.024 114.819 140.541 114.932 140.05 114.951C138.998 115.045 137.94 114.848 136.993 114.381C136.594 114.183 136.243 113.903 135.961 113.559C135.601 113.114 135.548 112.863 135.657 112.114C135.874 112.195 136.053 112.248 136.22 112.325C137.164 112.756 138.167 112.959 139.185 113.105C139.832 113.198 140.479 113.286 141.127 113.37C141.404 113.408 141.674 113.491 141.924 113.617C142.005 113.662 142.079 113.719 142.142 113.787C142.171 113.816 142.176 113.871 142.202 113.945ZM194.523 140.878C196.356 142.438 198.089 144.111 199.714 145.886C200.812 147.068 201.895 148.261 202.906 149.516C204.446 151.427 205.778 153.495 206.878 155.687C207.822 157.565 208.711 159.465 209.519 161.405C210.299 163.278 210.976 165.193 211.549 167.14C212.162 169.22 212.814 171.29 213.414 173.373C214.075 175.659 214.621 177.976 215.049 180.316C215.436 182.426 215.733 184.551 216.005 186.68C216.217 188.345 216.392 190.015 216.61 191.681C216.742 192.699 216.936 193.706 217.079 194.722C217.399 196.985 217.763 199.244 217.968 201.521C218.201 204.102 218.321 206.688 218.329 209.28C218.333 210.68 218.318 212.08 218.283 213.479C218.263 214.294 218.188 215.109 218.132 215.924C218.137 216.1 218.097 216.275 218.015 216.432C217.955 216.478 217.885 216.509 217.812 216.525C217.738 216.54 217.662 216.539 217.589 216.522C213.94 216.418 210.292 216.448 206.643 216.457C203.93 216.463 201.216 216.442 198.503 216.448C195.673 216.453 192.842 216.461 190.012 216.492C188.141 216.512 186.271 216.57 184.401 216.621C183.723 216.638 183.047 216.689 182.37 216.719C182.255 216.72 182.14 216.714 182.026 216.702C182.036 216.469 182.203 216.356 182.315 216.212C183.362 214.867 184.378 213.497 185.318 212.075C185.883 211.218 186.411 210.337 186.934 209.452C187.777 208.026 188.625 206.601 189.372 205.121C190.35 203.182 191.231 201.201 192.085 199.205C192.941 197.208 193.679 195.169 194.346 193.104C194.897 191.397 195.478 189.695 195.892 187.945C196.091 187.129 196.245 186.303 196.353 185.471C196.419 184.927 196.406 184.402 196.138 183.905C195.996 183.644 195.926 183.349 195.937 183.053C195.708 183.375 195.433 183.661 195.12 183.903C194.878 184.125 194.691 184.399 194.574 184.705C194.181 185.629 193.852 186.578 193.589 187.547C192.732 190.649 191.716 193.706 190.546 196.705C189.451 199.484 188.213 202.204 186.84 204.857C185.373 207.737 183.621 210.435 181.76 213.068C180.68 214.594 179.442 215.997 178.219 217.409C175.702 220.339 172.745 222.861 169.454 224.885C167.897 225.835 166.256 226.64 164.553 227.293C162.518 228.064 160.384 228.546 158.214 228.725C155.833 228.942 153.432 228.753 151.115 228.166C148.757 227.561 146.503 226.607 144.428 225.336C142.819 224.336 141.308 223.186 139.916 221.902C137.827 219.993 135.963 217.854 134.358 215.525C132.905 213.406 131.6 211.19 130.453 208.893C129.2 206.439 128.146 203.89 127.299 201.269C126.83 199.828 126.351 198.39 125.916 196.937C125.227 194.563 124.664 192.153 124.228 189.719C123.886 187.909 123.597 186.09 123.325 184.267C123.123 182.906 122.935 181.543 122.741 180.181C122.744 180.125 122.754 180.07 122.772 180.017C122.842 179.97 122.915 179.928 122.991 179.891C124.113 179.42 125.184 178.843 126.263 178.288C131.914 175.382 137.564 172.473 143.212 169.559C144.52 168.885 145.817 168.191 147.12 167.506C147.369 167.377 147.619 167.253 147.84 167.14C148.081 167.179 148.107 167.361 148.171 167.502C148.809 168.904 149.396 170.327 149.934 171.771C150.339 172.864 150.763 173.952 151.195 175.035C151.553 175.922 151.983 176.779 152.478 177.599C152.915 178.346 153.452 179.03 154.072 179.634C154.339 179.896 154.637 180.125 154.958 180.317C156.26 181.085 157.572 181.096 158.889 180.361C159.499 180.011 160.041 179.555 160.489 179.014C161.068 178.339 161.558 177.593 161.946 176.793C163.277 174.03 164.335 171.168 164.916 168.149C165.066 167.372 165.131 166.577 165.224 165.79C165.269 165.512 165.23 165.226 165.114 164.969C164.875 164.49 164.477 164.436 164.118 164.845C163.957 165.045 163.846 165.281 163.794 165.533C163.579 166.37 163.363 167.205 163.13 168.036C162.435 170.531 161.536 172.965 160.442 175.314C160.037 176.183 159.586 177.026 158.945 177.754C158.706 178.042 158.429 178.296 158.121 178.511C157.317 179.046 156.638 179.041 155.846 178.495C155.447 178.206 155.097 177.857 154.807 177.46C154.271 176.752 153.812 175.989 153.435 175.185C152.963 174.17 152.541 173.132 152.173 172.074C151.5 170.207 150.776 168.362 149.936 166.563C149.809 166.289 149.668 166.019 149.521 165.754C149.365 165.489 149.112 165.296 148.816 165.215C148.303 165.042 147.812 165.02 147.334 165.32C147.174 165.41 147.01 165.491 146.841 165.562C146.648 165.439 146.625 165.246 146.558 165.08C145.205 161.651 143.863 158.22 142.498 154.799C141.927 153.369 141.326 151.953 140.669 150.558C140.073 149.293 139.541 147.997 139.004 146.705C138.681 145.93 138.319 145.173 137.93 144.412C139.633 141.484 141.202 138.492 142.837 135.557C143.039 135.557 143.048 135.692 143.087 135.794C143.917 137.899 144.723 140.014 145.574 142.11C146.682 144.832 147.753 147.571 148.972 150.247C149.117 150.564 149.224 150.909 149.479 151.16C149.665 151.346 149.533 151.623 149.724 151.831C150.438 151.489 151.137 151.141 151.603 150.447C152.437 149.206 153.309 147.993 154.13 146.744C156.67 142.881 159.2 139.012 161.719 135.137C162.101 134.55 162.443 133.938 162.805 133.338C163 133.015 163.073 132.633 163.01 132.261C163.006 132.19 162.986 132.122 162.952 132.06C162.918 131.997 162.871 131.944 162.814 131.902C162.757 131.86 162.692 131.831 162.622 131.818C162.553 131.804 162.481 131.806 162.412 131.823C162.227 131.854 162.05 131.921 161.891 132.022C161.732 132.122 161.595 132.253 161.488 132.407C161.137 132.873 160.779 133.337 160.455 133.821C158.493 136.751 156.546 139.689 154.585 142.619C153.142 144.773 151.724 146.942 150.332 149.126C150.283 149.181 150.228 149.23 150.168 149.271C150.128 149.213 150.093 149.152 150.063 149.089C149.217 146.84 148.401 144.58 147.523 142.343C146.517 139.782 145.548 137.204 144.454 134.678C144.316 134.356 144.161 134.041 144.005 133.728C143.928 133.557 143.812 133.406 143.665 133.289C143.549 133.19 143.402 133.133 143.249 133.126C143.096 133.119 142.946 133.164 142.821 133.252C142.644 133.364 142.471 133.483 142.295 133.595C142.068 133.762 141.889 133.986 141.776 134.244C141.308 135.105 140.84 135.966 140.373 136.827C139.45 138.531 138.527 140.234 137.604 141.937C137.539 142.056 137.503 142.197 137.341 142.261C135.808 137.265 134.097 132.329 132.516 127.352C132.506 127.32 132.546 127.273 132.578 127.196C133.257 127.228 133.957 127.352 134.576 127.113C134.632 127.122 134.685 127.145 134.729 127.181C134.773 127.216 134.807 127.263 134.826 127.316C135.089 127.873 135.551 128.218 136.079 128.495C136.77 128.839 137.513 129.069 138.279 129.176C139.786 129.423 141.33 129.297 142.777 128.811C143.13 128.696 143.47 128.535 143.835 128.386C143.969 128.409 144.028 128.547 144.116 128.653C144.566 129.194 145.142 129.617 145.794 129.886C147.047 130.416 148.411 130.63 149.766 130.508C151.312 130.374 152.792 129.824 154.047 128.915C154.412 128.662 154.752 128.374 155.063 128.057C155.242 127.876 155.425 127.697 155.586 127.538C155.715 127.539 155.838 127.59 155.929 127.681C156.945 128.398 158.044 128.492 159.201 128.112C160.179 127.777 161.06 127.208 161.769 126.456C162.177 126.04 162.562 125.6 162.956 125.169C163.033 125.085 163.085 124.974 163.212 124.946C163.334 125.059 163.294 125.204 163.305 125.336C163.387 126.5 163.47 127.663 163.543 128.827C163.561 129.13 163.615 129.429 163.703 129.72C163.755 129.911 163.85 130.088 163.978 130.239C164.107 130.39 164.267 130.511 164.448 130.594C164.863 130.812 165.333 130.902 165.799 130.85C166.825 130.757 167.856 130.751 168.883 130.83C170.144 130.895 171.402 130.997 172.653 131.168C175.622 131.574 178.557 132.129 181.389 133.138C181.808 133.287 182.217 133.46 182.632 133.619C182.776 133.697 182.931 133.751 183.092 133.78C183.559 133.798 183.931 134.045 184.327 134.238C186.133 135.122 187.883 136.115 189.565 137.214C191.292 138.332 192.948 139.556 194.523 140.878ZM210.844 109.816C209.936 111.341 209.03 112.866 208.083 114.365C207.236 115.707 206.359 117.03 205.452 118.334C204.208 120.114 202.939 121.877 201.645 123.621C200.673 124.934 199.668 126.226 198.656 127.508C196.857 129.808 194.932 132.008 192.889 134.095C192.495 134.493 192.07 134.862 191.658 135.24C191.502 135.4 191.313 135.523 191.104 135.601C190.803 135.42 190.49 135.22 190.166 135.036C188.4 134.028 186.626 133.035 184.692 132.371C184.117 132.174 183.553 131.954 182.996 131.71C181.443 131.062 179.833 130.556 178.188 130.198C175.573 129.57 172.906 129.18 170.22 129.033C169.66 129.006 169.099 128.967 168.538 128.944C167.467 128.93 166.395 128.99 165.332 129.124C165.186 129.014 165.209 128.866 165.212 128.731C165.24 127.28 165.077 125.842 164.936 124.402C164.888 123.869 164.749 123.347 164.525 122.86C166.546 119.105 167.857 115.151 168.178 110.836C168.309 110.651 168.469 110.425 168.611 110.223C168.82 110.171 168.9 110.309 169 110.393C170.871 111.972 173.057 112.55 175.461 112.379C176.418 112.297 177.354 112.05 178.227 111.65C180.139 110.798 181.78 109.438 182.972 107.72C184.045 106.239 184.756 104.529 185.049 102.726C185.27 101.289 185.082 99.8201 184.506 98.4854C183.899 96.9966 182.813 95.9369 181.51 95.057C181.338 94.9425 181.123 94.8859 180.997 94.6902C181.085 94.0509 181.178 93.4073 181.264 92.7636C181.559 90.5884 181.606 88.3869 181.405 86.201C181.194 83.9694 180.665 81.7792 179.834 79.6964C178.754 76.9439 176.987 74.5122 174.701 72.6323C172.769 71.0295 170.499 69.8837 168.06 69.2807C166.858 68.9859 165.634 68.7848 164.4 68.6791C162.815 68.5559 161.22 68.6006 159.644 68.8124C156.671 69.1632 153.845 70.0258 151.108 71.2087C148.698 72.2359 146.412 73.5309 144.293 75.0691C143.575 75.5954 142.92 76.1941 142.248 76.7739C142.132 76.8875 142.003 76.989 141.866 77.0769C140.019 78.1369 138.327 79.4473 136.84 80.9707C134.903 82.9045 133.219 85.0749 131.829 87.4304C130.573 89.5367 129.541 91.7682 128.75 94.0886C128.162 95.8592 127.705 97.6703 127.382 99.5074C127.288 100.083 127.222 100.662 127.186 101.244C127.16 101.732 126.989 102.201 126.695 102.592C125.738 103.84 125.11 105.307 124.869 106.86C124.693 107.925 124.78 109.016 125.121 110.039C125.44 111.028 126.107 111.867 126.999 112.404C127.142 112.458 127.266 112.556 127.352 112.683C127.125 113.137 126.798 113.576 126.741 114.107C126.529 114.178 126.47 114.02 126.387 113.926C125.545 112.924 124.647 111.971 123.697 111.071C123.11 110.536 122.522 109.999 121.893 109.516C120.018 108.082 118.045 106.782 115.987 105.624C115.123 105.11 114.186 104.726 113.209 104.486C112.449 104.316 111.694 104.226 110.918 104.412C109.052 104.857 107.877 106.753 108.346 108.52C108.485 109.087 108.728 109.623 109.062 110.102C109.43 110.614 109.855 111.085 110.328 111.503C111.193 112.253 112.096 112.959 113.033 113.617C114.176 114.43 115.3 115.264 116.358 116.189C117.113 116.852 117.813 117.576 118.452 118.352C119.478 119.564 120.414 120.85 121.253 122.199C121.307 122.287 121.423 122.364 121.364 122.502C121.185 122.498 121.08 122.361 120.955 122.271C118.712 120.667 116.326 119.271 113.828 118.101C111.583 117.048 109.286 116.134 106.864 115.564C105.103 115.149 103.33 114.871 101.514 115.059C100.835 115.112 100.176 115.304 99.5753 115.623C98.9464 115.929 98.4588 116.464 98.2126 117.117C97.9665 117.771 97.9804 118.494 98.2516 119.137C98.5659 119.993 99.0169 120.792 99.5869 121.505C99.8848 121.894 100.219 122.254 100.534 122.629C100.622 122.734 100.748 122.814 100.773 122.989C100.655 123.124 100.485 123.072 100.338 123.061C99.4722 123.028 98.6058 123.114 97.7634 123.317C97.2587 123.42 96.7756 123.61 96.335 123.876C95.9899 124.075 95.6911 124.345 95.4586 124.669C95.2261 124.992 95.0652 125.361 94.9866 125.751C94.9062 126.212 94.9591 126.687 95.1392 127.119C95.5026 128.083 96.0582 128.964 96.7724 129.708C96.9439 129.895 97.1153 130.082 97.2766 130.258C97.1938 130.462 97.0339 130.431 96.9061 130.439C96.5088 130.464 96.1166 130.541 95.7393 130.668C94.6074 131.042 93.9637 131.828 93.8111 133.008C93.8024 133.077 93.8024 133.148 93.7936 133.216C93.7821 133.273 93.7676 133.329 93.7501 133.384C93.4786 133.691 93.1784 133.971 92.8535 134.221C92.3391 134.625 91.8219 135.025 91.3177 135.443C90.1521 136.417 88.9331 137.326 87.6662 138.165C86.2192 139.115 84.6642 139.889 83.0338 140.472C82.1331 140.806 81.179 140.975 80.2178 140.971C79.4447 140.951 78.6826 140.784 77.9729 140.478C77.3654 140.225 76.8306 139.825 76.4167 139.315C75.7828 138.534 75.2794 137.656 74.9258 136.714C74.5573 135.706 74.301 134.659 74.1615 133.595C73.8246 131.26 73.753 128.895 73.9479 126.545C74.0278 125.474 74.1281 124.407 74.2574 123.341C74.4274 121.952 74.6745 120.575 74.9215 119.197C75.4896 116.028 76.2844 112.908 77.0502 109.783C77.1651 109.33 77.2241 108.865 77.226 108.398C77.2365 108.127 77.1522 107.861 76.9876 107.645C76.823 107.429 76.5883 107.276 76.3237 107.214C76.0528 107.14 75.7704 107.117 75.4911 107.146C75.0726 107.185 74.6512 107.198 74.2313 107.217C74.1725 107.23 74.1114 107.23 74.0526 107.216C73.9939 107.203 73.9392 107.175 73.8927 107.137C73.8501 106.984 73.8572 106.822 73.9131 106.673C74.2022 105.209 74.5248 103.751 74.7776 102.281C75.0435 100.741 75.401 99.219 75.5957 97.6664C75.8383 95.7151 75.9735 93.7581 75.8166 91.7996C75.6364 89.5512 75.106 87.3782 74.0569 85.3617C72.8834 83.044 70.8871 81.245 68.4569 80.3155C67.364 79.9013 66.2254 79.6185 65.0654 79.4732C64.1864 79.3471 63.3043 79.2412 62.418 79.1702C61.2519 79.0794 60.0809 79.0682 58.9133 79.1369C58.4915 79.1382 58.0699 79.1164 57.6505 79.0716C57.5212 78.802 57.6011 78.5483 57.6389 78.3062C57.8002 77.2915 57.9702 76.2796 58.1417 75.2677C58.4163 73.6354 58.6808 72.0002 58.9772 70.3722C59.2998 68.6066 59.6543 66.8452 60.0001 65.0839C60.0437 64.8578 60.1207 64.6389 60.1716 64.4548C60.3663 64.3388 60.4855 64.4403 60.6119 64.4867C64.5061 65.9229 68.6522 66.5547 72.7986 66.3437C75.5815 66.2147 78.3299 65.6754 80.9545 64.7432C85.244 63.2821 89.1358 60.8493 92.3246 57.6356C94.4772 55.4848 96.2856 53.0167 97.6864 50.3177C99.2154 47.3691 100.232 44.1829 100.691 40.8949C100.977 38.8596 101.014 36.7971 100.802 34.7528C100.777 34.4976 100.728 34.2454 100.688 33.9917C100.63 33.7169 100.625 33.4335 100.672 33.1567C100.749 32.7182 100.738 32.2691 100.642 31.8346C100.222 29.253 99.4644 26.7377 98.3882 24.3529C97.9836 23.4195 97.5256 22.51 97.0165 21.629C97.0357 21.5793 97.0653 21.5343 97.1034 21.4971C97.1415 21.4598 97.1872 21.4312 97.2374 21.413C99.0624 20.7563 100.834 19.9677 102.619 19.211C104.32 18.492 106.039 17.8237 107.779 17.2061C109.011 16.7683 110.231 16.2914 111.47 15.871C112.996 15.3535 114.54 14.8896 116.069 14.3793C117.664 13.8458 119.298 13.4414 120.915 12.9818C123.681 12.1947 126.486 11.5728 129.296 10.9697C130.392 10.7334 131.499 10.5493 132.599 10.3304C134.136 10.026 135.686 9.81867 137.237 9.60123C138.302 9.45045 139.364 9.28955 140.429 9.14749C141.079 9.06051 141.73 8.99381 142.381 8.93439C143.802 8.80537 145.22 8.67489 146.645 8.58937C148.911 8.45454 151.176 8.36033 153.446 8.38787C154.637 8.40236 155.83 8.44295 157.02 8.52412C158.464 8.62271 159.912 8.72274 161.344 8.95033C161.503 8.97643 161.658 9.0257 161.806 9.06194C161.808 9.25766 161.667 9.32289 161.58 9.42002C161.142 9.9071 160.688 10.3782 160.268 10.8784C159.23 12.0919 158.519 13.5485 158.2 15.1114C157.949 16.3757 158.017 17.6824 158.399 18.9138C158.724 20.0131 159.248 21.0438 159.945 21.9552C161.075 23.4192 162.443 24.6847 163.99 25.6996C166.117 27.1056 168.413 28.2399 170.823 29.0759C171.849 29.4677 172.894 29.8078 173.954 30.095C174.077 30.1316 174.198 30.1747 174.317 30.224C174.472 30.4475 174.54 30.7197 174.508 30.9894C174.511 31.4093 174.484 31.8288 174.428 32.2449C174.075 34.4573 173.485 36.6255 172.667 38.7118C172.18 39.9494 171.622 41.1576 170.994 42.3301C170.724 42.8259 170.438 43.3028 169.958 43.6334C169.868 43.6906 169.792 43.7676 169.736 43.8586C169.68 43.9495 169.646 44.0519 169.635 44.1581C169.717 44.6742 170.036 44.9511 170.538 45.0961C171.083 45.2394 171.653 45.2582 172.206 45.1511C173.106 45.0046 173.986 44.7525 174.827 44.4002C177.069 43.4623 179.073 42.1518 180.946 40.6181C182.58 39.2887 184.022 37.7409 185.232 36.0183C186.016 34.8992 186.648 33.7119 186.914 32.3565C186.931 32.3077 186.954 32.2611 186.982 32.2173C187.187 32.0709 187.428 32.1448 187.647 32.1796C188.622 32.3289 189.606 32.3275 190.587 32.3637C191.287 32.3898 191.989 32.4043 192.691 32.3942C194.422 32.3695 196.151 32.2811 197.875 32.1448C198.387 32.1042 198.894 31.9926 199.419 32.0347C201.818 34.8209 202.814 38.1363 203.186 41.6792C203.106 41.7358 203.073 41.7792 203.032 41.785C201.324 42.0656 199.657 42.5514 198.066 43.2318C195.412 44.3566 192.968 45.92 190.835 47.8562C189.284 49.2235 188.093 50.9512 187.37 52.8865C186.742 54.5105 186.644 56.2905 187.089 57.9734C187.314 58.7616 187.706 59.4926 188.237 60.1174C189.404 61.5526 190.848 62.4919 192.716 62.7384C194.122 62.9239 195.529 62.9631 196.879 62.4948C199.161 61.7019 200.998 60.3116 202.261 58.2285C203.335 56.4727 204.113 54.5523 204.562 52.5444C205.072 50.2416 205.331 47.8907 205.335 45.5324C205.337 45.1367 205.298 44.7409 205.28 44.3451C205.248 44.1328 205.257 43.9163 205.306 43.7073C205.631 43.6499 205.964 43.646 206.29 43.6957C207.949 43.8282 209.569 44.2641 211.069 44.9815C212.588 45.7096 214.018 46.6074 215.334 47.6576C217.599 49.3993 219.582 51.4782 221.213 53.8215C222.992 56.3809 224.193 59.2951 224.734 62.3629C225.157 64.8266 225.286 67.3318 225.116 69.8257C224.939 72.6906 224.519 75.5353 223.86 78.3294C223.493 79.8979 223.054 81.4433 222.563 82.977C222.321 83.7323 222.083 84.489 221.838 85.2428C221.766 85.4617 221.679 85.6748 221.617 85.843C221.415 85.9561 221.29 85.8633 221.162 85.8227C219.338 85.237 217.515 84.6494 215.691 84.0599C213.225 83.2568 210.719 82.5885 208.23 81.8637C206.808 81.4199 205.271 81.5191 203.919 82.142C201.973 83.0278 201.254 84.8413 201.482 86.5983C201.633 87.8096 202.107 88.9583 202.854 89.9252C203.032 90.1681 203.17 90.4384 203.262 90.7254C203.544 91.5169 203.836 92.3056 204.169 93.0753C205.379 95.8819 206.61 98.6797 207.829 101.482C208.247 102.446 208.667 103.407 209.158 104.338C209.289 104.558 209.352 104.812 209.337 105.068C209.331 105.231 209.36 105.393 209.423 105.544C209.824 106.589 210.37 107.524 211.387 108.098C211.469 108.144 211.541 108.201 211.655 108.278C211.384 108.797 211.139 109.322 210.844 109.816ZM217.121 105.073C216.949 105.23 216.798 105.409 216.672 105.605C216.493 105.878 216.268 106.118 216.007 106.314C215.454 106.792 214.841 107.088 214.206 107.005C213.51 107.074 212.811 106.913 212.216 106.547C211.923 106.372 211.672 106.136 211.481 105.855C211.289 105.574 211.16 105.254 211.104 104.919C210.96 104.164 210.738 103.425 210.441 102.716C209.751 101.059 209.041 99.4103 208.34 97.7577C207.567 95.9326 206.81 94.1017 206.018 92.2852C205.507 91.111 204.981 89.9412 204.362 88.8148C204.05 88.2941 203.806 87.7365 203.634 87.1549C203.501 86.7072 203.451 86.2389 203.489 85.7734C203.526 85.4241 203.643 85.088 203.83 84.7906C204.018 84.4932 204.27 84.2423 204.57 84.057C204.843 83.8768 205.141 83.739 205.456 83.6482C205.995 83.4948 206.543 83.3771 207.098 83.2959C207.398 83.2377 207.709 83.2816 207.981 83.4206C208.276 83.5623 208.579 83.6857 208.89 83.7903C212.027 84.9297 215.194 85.9817 218.391 86.9462C220.223 87.4985 222.042 88.0943 223.876 88.6408C224.934 88.9362 225.948 89.3675 226.894 89.9238C227.28 90.1439 227.629 90.4243 227.926 90.7544C228.197 91.0474 228.388 91.4053 228.479 91.7934C228.571 92.1815 228.56 92.5866 228.449 92.9695C228.322 93.3679 228.17 93.7577 227.993 94.1365C227.704 94.8555 227.204 95.3745 226.638 95.8761C224.173 98.0578 221.823 100.364 219.488 102.685C218.693 103.475 217.907 104.272 217.121 105.073ZM225.197 108.01C223.195 108.226 221.483 107.485 220.132 105.974C219.951 105.76 219.783 105.536 219.628 105.303C219.597 105.249 219.575 105.191 219.561 105.131C219.566 105.101 219.574 105.073 219.585 105.045C219.608 105.004 219.635 104.966 219.667 104.932C219.763 104.831 219.863 104.732 219.963 104.635C222.579 102.105 225.167 99.5466 227.701 96.856C227.919 97.0474 228.074 97.1894 228.235 97.3228C229.402 98.2868 230.026 99.5495 230.37 101.002C231.005 103.671 229.247 107.573 225.197 108.01Z" fill="#202020"></path></svg>