<svg xmlns="http://www.w3.org/2000/svg" width="48" height="36" viewBox="0 0 48 36" fill="none"><path d="M20.3156 3.35966C19.5696 3.79362 19.245 4.63229 19.5901 5.23447C19.9353 5.83665 20.8194 5.97318 21.5654 5.54044C22.3114 5.10648 22.636 4.26781 22.2908 3.66563C21.9457 3.06344 21.0616 2.92692 20.3156 3.35966Z" fill="#F7CE4C"></path><path d="M26.2267 3.09032C25.6284 3.43773 25.4928 4.32759 25.9227 5.07849C26.3538 5.82939 27.1871 6.15608 27.7853 5.80867C28.3836 5.46126 28.5192 4.57139 28.0893 3.82049C27.6582 3.06959 26.825 2.7429 26.2267 3.09032Z" fill="#F7CE4C"></path><path d="M39.9419 8.53918V8.51967H39.5508C39.3873 8.50992 39.2262 8.49407 39.0603 8.49407C38.8944 8.49407 38.7333 8.50992 38.5698 8.51967H34.4462C33.9048 3.78511 29.9047 0.0952148 25.058 0.0952148H22.7546C17.9091 0.0952148 13.9078 3.78511 13.3665 8.51967H9.22222C9.05872 8.50992 8.89765 8.49407 8.73174 8.49407C3.91778 8.49407 0 12.4363 0 17.283C0 22.1297 3.91657 26.0719 8.73174 26.0719C9.0999 26.0719 9.4608 26.0476 9.81685 26.0012C10.8135 25.8733 11.757 25.5758 12.6217 25.1394C12.6217 25.1394 12.8493 25.816 13.1642 26.7119C13.4597 27.5542 13.8327 28.5904 14.1646 29.4437C14.4189 30.0971 14.6502 30.6444 14.8052 30.9138L14.8561 31.0467L14.8718 31.0406C14.9263 31.1478 14.9832 31.2539 15.0426 31.3587C15.6311 32.4071 16.445 33.3408 17.4126 34.0905C18.9446 35.2778 20.8641 36.0055 22.8927 36.0055H24.9139C26.9303 36.0055 28.7808 35.2863 30.2293 34.0905C31.1315 33.3457 31.8775 32.4144 32.4116 31.3587C32.4637 31.2551 32.5145 31.1515 32.5618 31.0467H32.5642L32.5751 31.0186C32.5981 30.9686 32.6162 30.9162 32.6381 30.8662C32.7919 30.5847 33.0123 30.0617 33.2521 29.4437C33.5851 28.5904 33.9569 27.5542 34.2524 26.7119C34.5673 25.816 34.7949 25.1394 34.7949 25.1394L34.8543 24.9834C35.3944 25.2833 35.9709 25.5234 36.5728 25.7038C37.36 25.9403 38.1932 26.0719 39.0555 26.0719C43.8694 26.0719 47.7872 22.1297 47.7872 17.283C47.7872 12.7362 44.3393 8.98533 39.9383 8.53918H39.9419ZM22.7558 2.01025H25.0592C28.8535 2.01025 31.995 4.84441 32.5242 8.51967H15.2908C15.8201 4.84563 18.9616 2.01025 22.7558 2.01025ZM20.6788 15.5021L23.692 11.2332L26.8892 15.5021H20.6788ZM28.323 17.4171L30.3697 20.1489H17.3969L19.3261 17.4171H28.323ZM14.1827 21.4044C14.0083 21.636 13.8218 21.8567 13.622 22.0651C12.3819 23.3524 10.6525 24.1569 8.73416 24.1569C4.96898 24.1569 1.90621 21.0741 1.90621 17.2842C1.90621 13.4944 4.96898 10.4103 8.73416 10.4103C8.77776 10.4103 8.81893 10.4164 8.86253 10.4164V10.4347H21.9202L18.3403 15.5021L17.4502 16.7625L16.9875 17.4171L16.296 18.396L14.4152 21.0753L14.2433 21.3203C14.2227 21.3484 14.2033 21.3764 14.1827 21.4044ZM24.9175 34.0929H22.8963C20.6679 34.0929 18.6116 32.991 17.3157 31.3612H30.1905C29.0085 33.0129 27.089 34.0929 24.9175 34.0929ZM31.8581 27.5396L31.4318 28.666L31.0734 29.4449H16.3759L15.9945 28.666L15.5682 27.5396L15.2557 26.7131H32.1706L31.8581 27.5396ZM33.0304 24.4361L32.8936 24.7969H14.5303L14.3934 24.4361L14.259 24.0813C14.9445 23.5157 15.5403 22.8453 16.0296 22.098L16.0526 22.0651H31.7407L31.7637 22.098C32.1839 22.7417 32.6889 23.3219 33.2581 23.8327L33.0304 24.4361ZM39.0615 24.1569C37.142 24.1569 35.409 23.3536 34.1676 22.0651C33.9823 21.8725 33.8104 21.6677 33.6481 21.4556C33.6299 21.4312 33.6093 21.4081 33.5912 21.3837C33.5597 21.3423 33.5294 21.2996 33.4991 21.2569L30.7742 17.4976L30.7149 17.4183L30.3479 16.9295L29.2786 15.5033L25.4795 10.4359H39.552C43.0883 10.6907 45.8895 13.6614 45.8895 17.2842C45.8895 20.9071 42.8267 24.1569 39.0615 24.1569Z" fill="#F7CE4C"></path></svg>