<svg xmlns="http://www.w3.org/2000/svg" width="72" height="72" viewBox="0 0 72 72" fill="none"><path d="M34.9876 30.7713C34.491 30.6189 33.9811 30.514 33.4647 30.458C30.0896 29.9025 26.7154 29.3155 23.3328 28.8151C19.2108 28.2032 15.0783 27.6671 10.9478 27.1172C10.065 26.9843 9.17403 26.9119 8.28133 26.9007C6.31675 26.8922 5.47018 28.1352 6.133 30.0231C6.30542 30.51 6.54355 30.9779 6.75636 31.4527C9.72713 37.9456 12.697 44.4371 15.6659 50.9272C16.4395 52.6196 17.2514 54.2891 18.0663 55.9626C18.4283 56.7071 18.8433 57.4237 20.0633 57.5902C20.6567 57.1763 21.2985 56.7935 21.8581 56.3188C22.2257 55.9536 22.5565 55.5531 22.8457 55.1231C26.9508 49.9262 30.4569 44.3072 34.1193 38.8041C34.7767 37.8162 35.2791 36.7298 35.8753 35.7019C36.254 34.9762 36.4959 34.1869 36.5888 33.3735C36.7847 32.2172 36.2777 31.2739 34.9876 30.7713ZM20.3249 53.4238C19.6784 53.4023 19.6071 52.8941 19.4265 52.5184C16.9035 47.2241 14.3959 41.918 11.8689 36.6266C11.0029 34.8128 10.0871 33.0308 9.20152 31.2318C9.00902 30.8405 8.72223 30.4714 8.82234 29.9936C8.86223 29.9324 8.88637 29.8584 8.93926 29.8305C9.003 29.7914 9.07838 29.7756 9.1525 29.7859C16.9541 31.3214 24.7835 32.6957 32.6406 33.9087C32.7676 33.9296 32.8767 34.0568 33.0643 34.1738C28.5581 40.4356 24.3116 46.8523 20.3249 53.4238Z" fill="#202020"></path><path d="M33.0644 34.1738C28.5582 40.4357 24.3117 46.8524 20.325 53.4239C19.6785 53.4024 19.6072 52.8942 19.4266 52.5185C16.9035 47.2241 14.396 41.918 11.869 36.6267C11.0029 34.8129 10.0872 33.0308 9.20161 31.2319C9.00911 30.8406 8.72232 30.4715 8.82243 29.9936C8.86232 29.9324 8.88646 29.8584 8.93936 29.8306C9.0031 29.7914 9.07847 29.7757 9.15259 29.786C16.9542 31.3215 24.7836 32.6957 32.6407 33.9088C32.7677 33.9297 32.8768 34.0569 33.0644 34.1738Z" fill="#F7CE4C"></path><path d="M51.9653 30.6036C48.0699 33.1752 46.2696 39.6731 49.6966 44.2061C53.1356 48.7548 59.4183 49.1211 63.3961 46.2274C67.4052 43.3098 68.7962 37.0859 65.3759 32.5539C64.6331 31.5322 63.6935 30.6694 62.6123 30.0164C61.5311 29.3634 60.3302 28.9333 59.0805 28.7516C57.8307 28.5699 56.5573 28.6401 55.3354 28.9581C54.1134 29.2762 52.9675 29.8357 51.9653 30.6036ZM61.8336 43.9603C58.6859 46.5322 54.1019 45.5483 51.9135 42.6447C49.0858 38.8921 50.4485 34.1915 52.8255 32.5887C55.6431 30.688 60.1682 30.221 63.1188 33.8184C63.711 34.5646 64.1482 35.4217 64.4046 36.3392C64.6609 37.2566 64.7313 38.216 64.6115 39.1609C64.4918 40.1058 64.1844 41.0172 63.7073 41.8414C63.2303 42.6656 62.5932 43.386 61.8336 43.9603Z" fill="#202020"></path><path d="M63.1188 33.8184C63.711 34.5646 64.1482 35.4217 64.4046 36.3391C64.6609 37.2566 64.7313 38.216 64.6115 39.1609C64.4918 40.1058 64.1844 41.0171 63.7073 41.8413C63.2303 42.6656 62.5932 43.386 61.8336 43.9603C58.6859 46.5321 54.1019 45.5483 51.9135 42.6447C49.0858 38.892 50.4485 34.1914 52.8255 32.5886C55.6431 30.688 60.1682 30.221 63.1188 33.8184Z" fill="#4CCBF7"></path></svg>