<svg xmlns="http://www.w3.org/2000/svg" width="52" height="50" viewBox="0 0 52 50" fill="none"><path d="M28.8252 19.895C28.5222 19.4731 28.1797 19.081 27.8024 18.724C25.4516 16.2394 23.1206 13.7302 20.7304 11.2849C17.8191 8.3033 14.8536 5.37582 11.8979 2.43854C11.2755 1.79843 10.61 1.20171 9.90609 0.652556C8.34716 -0.54302 6.92104 -0.0657702 6.3063 1.8383C6.14889 2.33031 6.05534 2.8469 5.93743 3.35368C4.37346 10.3205 2.80954 17.2857 1.24573 24.2493C0.837503 26.0648 0.473601 27.8852 0.10968 29.7106C-0.0526474 30.5224 -0.15592 31.344 0.71456 32.2149C1.43749 32.2444 2.18008 32.328 2.91284 32.2887C3.4265 32.2204 3.93222 32.1018 4.42268 31.9345C10.8356 30.2813 17.0272 27.9295 23.273 25.7647C24.3942 25.376 25.4516 24.8151 26.5483 24.3575C27.2889 24.009 27.9591 23.527 28.5253 22.9356C29.381 22.1336 29.5482 21.0758 28.8252 19.895ZM3.44405 29.0562C2.94242 28.6478 3.19322 28.2001 3.27678 27.7917C4.47192 22.05 5.6865 16.3083 6.87671 10.5665C7.28482 8.59848 7.63414 6.62554 8.01773 4.65751C8.1013 4.22946 8.09635 3.76205 8.46519 3.44223C8.53399 3.41764 8.59798 3.37334 8.65694 3.38319C8.73138 3.39058 8.80093 3.42364 8.8537 3.47669C14.1355 9.42016 19.537 15.2521 25.0582 20.9725C25.1467 21.066 25.1565 21.2333 25.2352 21.4399C17.8583 23.6982 10.5946 26.237 3.44405 29.0562Z" fill="#202020"></path><path d="M25.2354 21.44C17.8586 23.6983 10.5949 26.2371 3.4443 29.0563C2.94267 28.6479 3.19346 28.2002 3.27703 27.7918C4.47216 22.0501 5.68675 16.3084 6.87697 10.5666C7.28507 8.59859 7.6344 6.62565 8.01799 4.65762C8.10155 4.22957 8.0966 3.76216 8.46544 3.44235C8.53424 3.41775 8.59824 3.37345 8.65719 3.3833C8.73164 3.39069 8.80119 3.42375 8.85396 3.4768C14.1358 9.42027 19.5373 15.2522 25.0585 20.9726C25.1469 21.0661 25.1568 21.2334 25.2354 21.44Z" fill="#F7CE4C"></path><path d="M42.4428 30.0353C37.7854 29.7254 32.4201 33.809 32.4053 39.4917C32.3905 45.1941 37.1707 49.2876 42.0886 49.3909C47.0459 49.4943 51.9196 45.3811 51.9391 39.7033C51.966 38.4404 51.74 37.1849 51.2744 36.0107C50.8088 34.8366 50.1131 33.7675 49.2281 32.8666C48.3431 31.9656 47.2869 31.2509 46.1216 30.7647C44.9562 30.2784 43.7054 30.0305 42.4428 30.0353ZM42.2166 46.6406C38.1543 46.7833 35.1003 43.2261 35.1151 39.5901C35.1347 34.8914 39.0642 31.9738 41.9264 32.1362C45.3197 32.3281 49.2049 34.6946 49.377 39.3441C49.3969 40.2966 49.2263 41.2434 48.8752 42.129C48.5241 43.0145 47.9995 43.8209 47.3324 44.5007C46.6653 45.1805 45.8691 45.72 44.9905 46.0875C44.112 46.455 43.1688 46.643 42.2166 46.6406Z" fill="#202020"></path><path d="M49.3772 39.3441C49.3971 40.2966 49.2265 41.2434 48.8754 42.129C48.5243 43.0145 47.9998 43.8209 47.3327 44.5007C46.6655 45.1805 45.8693 45.72 44.9908 46.0875C44.1122 46.455 43.1691 46.643 42.2168 46.6406C38.1545 46.7833 35.1005 43.2261 35.1153 39.5901C35.135 34.8914 39.0644 31.9738 41.9266 32.1362C45.3199 32.3281 49.2051 34.6946 49.3772 39.3441Z" fill="#4CCBF7"></path></svg>