<svg xmlns="http://www.w3.org/2000/svg" width="45" height="50" viewBox="0 0 45 50" fill="none"><path d="M35.5801 48.9901C35.9013 48.8669 36.2242 48.742 36.5526 48.6474C37.3535 48.4132 38.1145 48.0593 38.8098 47.5977C41.2486 46.0308 43.0958 43.6955 44.0595 40.9609C45.0615 38.2443 45.1789 35.2802 44.3949 32.4927C43.9693 30.9673 43.279 29.5287 42.3554 28.2425C41.1864 26.5603 39.6397 25.1755 37.8391 24.1993C36.5313 23.473 35.1137 22.9653 33.6423 22.6963C31.8871 22.3655 30.0836 22.388 28.3373 22.7624C26.251 23.2161 24.2987 24.1486 22.6344 25.4864C19.2137 28.2336 17.5471 31.8358 17.4579 35.7807C17.4793 37.2052 17.5525 38.2066 17.788 39.1902C18.8354 43.5725 21.3425 46.798 25.4519 48.6866C28.7673 50.2111 32.1612 50.3039 35.5801 48.9901ZM25.8035 46.6534C22.7004 44.9701 20.5859 42.4443 19.7847 38.9688C18.8354 34.8579 19.9007 31.2342 22.7504 28.1568C24.6597 26.0951 27.0739 24.9687 29.8611 24.6867C33.8135 24.285 37.1486 25.5667 39.8251 28.4978C41.961 30.8344 42.9281 33.6262 42.8158 36.775C42.7413 38.8527 42.0908 40.8688 40.9368 42.5978C39.9771 44.0691 38.7193 45.3224 37.2449 46.2768C37.0973 46.3652 36.9543 46.4611 36.8166 46.5642C35.5676 47.5567 34.0776 47.8262 32.552 47.9744C32.1826 48.0101 31.8079 47.9797 31.435 47.9797C29.4735 48.0444 27.5301 47.5867 25.8035 46.6534Z" fill="#202020"></path><path d="M31.4352 47.9795C29.4737 48.0441 27.5303 47.5864 25.8036 46.6532C22.7006 44.9699 20.5861 42.4441 19.7849 38.9686C18.8356 34.8576 19.9009 31.234 22.7506 28.1566C24.6599 26.0948 27.0741 24.9685 29.8613 24.6864C33.8137 24.2848 37.1488 25.5665 39.8253 28.4975C41.9612 30.8341 42.9283 33.626 42.8159 36.7748C42.7415 38.8525 42.091 40.8685 40.937 42.5976C39.9773 44.0689 38.7195 45.3222 37.2451 46.2766C37.0975 46.3649 36.9545 46.4608 36.8168 46.564C35.5678 47.5564 34.0778 47.826 32.5522 47.9742C32.1828 48.0098 31.8081 47.9795 31.4352 47.9795Z" fill="#4CCBF7"></path><path d="M15.2737 20.0899C17.1584 20.8263 19.2221 20.9738 21.1925 20.5129C23.1406 20.073 24.9018 19.0329 26.228 17.539C30.134 13.2085 29.7967 6.56457 24.9414 2.86238C24.4898 2.50738 23.9981 2.20663 23.4765 1.96628C22.9569 1.72389 22.4244 1.51055 21.8812 1.32724C21.3622 1.16055 20.8287 1.04282 20.2878 0.975586C19.7203 0.907754 19.1422 0.932739 18.5694 0.918457C17.9949 0.926224 17.423 0.99625 16.8635 1.12731C16.2985 1.23158 15.7483 1.40484 15.2255 1.64319C14.6995 1.87205 14.1887 2.13439 13.6963 2.4286C13.2176 2.74372 12.7598 3.08956 12.3259 3.46394C11.9005 3.80749 11.5246 4.20814 11.2088 4.65456C10.8823 5.12582 10.5558 5.60063 10.2756 6.09866C9.99726 6.59312 9.776 7.11971 9.51368 7.66773C8.12899 6.91087 6.71042 6.5842 5.17764 6.93229C4.42889 7.08352 3.71989 7.38926 3.09589 7.83001C2.47189 8.27075 1.94661 8.83681 1.55358 9.49204C-0.0559392 12.1428 0.636382 15.0667 2.60099 16.8607C3.61248 17.7776 4.92441 18.2925 6.28931 18.3084C8.02017 18.3655 9.46548 17.6854 10.6825 16.393C11.9012 18.0638 13.359 19.3616 15.2737 20.0899ZM5.22758 16.5073C4.29028 16.2487 3.47488 15.6663 2.92609 14.8634C2.3773 14.0604 2.13062 13.089 2.22984 12.1214C2.32636 11.1257 2.77565 10.1973 3.49655 9.50395C4.21746 8.8106 5.16245 8.398 6.16084 8.34068C7.22992 8.27987 8.2826 8.62473 9.10862 9.3064C9.07473 10.2864 8.99265 11.2307 9.10685 12.1732C9.23515 13.1378 9.50575 14.078 9.90983 14.9632C8.59653 16.3823 7.07801 17.0017 5.22758 16.5073ZM10.8698 10.7255C10.8877 6.07725 14.799 2.75706 18.9531 2.77669C20.0339 2.77929 21.1034 2.99654 22.0996 3.41584C23.0959 3.83513 23.9989 4.44812 24.7565 5.21926C25.5141 5.99041 26.1111 6.90436 26.5128 7.90809C26.9146 8.91183 27.1132 9.98536 27.097 11.0664C27.0845 15.6326 23.3712 18.9671 19.0209 19.0063C15.0578 18.9939 10.8484 15.9307 10.8698 10.7255Z" fill="#202020"></path><path d="M5.22791 16.5072C4.29061 16.2486 3.47521 15.6662 2.92641 14.8633C2.37762 14.0604 2.13094 13.0889 2.23017 12.1213C2.32669 11.1256 2.77598 10.1972 3.49688 9.50387C4.21779 8.81053 5.16278 8.39793 6.16117 8.34061C7.23025 8.27979 8.28293 8.62465 9.10895 9.30632C9.07506 10.2863 8.99298 11.2306 9.10718 12.1731C9.23548 13.1377 9.50608 14.078 9.91016 14.9631C8.59686 16.3822 7.07834 17.0017 5.22791 16.5072Z" fill="white"></path><path d="M19.0211 19.0063C15.058 18.9938 10.8486 15.9307 10.8701 10.7255C10.8879 6.07725 14.7993 2.75706 18.9533 2.7767C20.0341 2.7793 21.1037 2.99655 22.0999 3.41584C23.0961 3.83513 23.9992 4.44812 24.7568 5.21927C25.5144 5.99041 26.1113 6.90437 26.5131 7.9081C26.9149 8.91183 27.1134 9.98537 27.0972 11.0665C27.0847 15.6326 23.3714 18.9671 19.0211 19.0063Z" fill="#794CF7"></path></svg>