<svg xmlns="http://www.w3.org/2000/svg" width="53" height="52" viewBox="0 0 53 52" fill="none"><path d="M36.2673 31.037C35.2391 30.1385 34.0307 29.4702 32.7233 29.0771C29.6255 28.1285 26.5443 27.1241 23.4421 26.1842C22.0777 25.7687 20.6898 25.4356 19.3019 25.1025C18.2922 24.8531 17.2456 24.79 16.2134 24.9162C14.2385 25.1691 13.0223 26.3141 12.7373 28.2739C12.6408 29.0439 12.623 29.8217 12.6842 30.5954C12.735 31.3069 12.8422 32.0134 13.0049 32.708C14.1796 38.0241 15.7501 43.245 17.7033 48.3272C17.9134 48.8723 18.1789 49.3914 18.4282 49.9175C18.5385 50.1353 18.693 50.3277 18.8819 50.4824C19.0708 50.6371 19.2899 50.7507 19.5252 50.8159C20.5491 50.4959 21.4677 49.9055 22.1841 49.107C24.1323 47.0289 26.1486 45.0121 28.0855 42.9266C30.5098 40.3145 32.8875 37.6625 35.2755 35.0242C35.8567 34.4118 36.3368 33.7109 36.6979 32.9477C36.8706 32.6314 36.9221 32.263 36.8429 31.9113C36.7636 31.5596 36.559 31.2488 36.2673 31.037ZM20.2542 46.7379C19.817 46.7851 19.7579 46.5234 19.6843 46.2781C18.4166 42.0069 17.0635 37.7576 16.054 33.4086C15.7672 32.2143 15.5903 30.9964 15.5254 29.77C15.486 29.0037 15.5015 29.0027 15.9603 27.9438C16.5005 27.7122 17.1016 27.6633 17.6722 27.8046C18.4397 27.9165 19.1999 28.0733 19.949 28.2744C24.2164 29.5445 28.4796 30.8448 33.0225 32.2229C28.6693 37.2211 24.2709 41.8556 20.2542 46.7379Z" fill="#202020"></path><path d="M33.0227 32.2229C28.6695 37.2211 24.271 41.8556 20.2543 46.7379C19.8171 46.7851 19.758 46.5234 19.6844 46.278C18.4168 42.0069 17.0636 37.7576 16.0541 33.4086C15.7674 32.2143 15.5904 30.9964 15.5256 29.7699C15.4861 29.0037 15.5016 29.0027 15.9604 27.9437C16.5006 27.7122 17.1017 27.6633 17.6724 27.8046C18.4398 27.9165 19.2001 28.0733 19.9491 28.2744C24.2165 29.5445 28.4797 30.8448 33.0227 32.2229Z" fill="#4CCBF7"></path><path d="M28.4152 4.92988C25.0125 7.59163 24.3472 11.7396 26.6394 14.9038C27.1887 15.6494 27.8798 16.2792 28.673 16.7572C29.4661 17.2352 30.3458 17.5519 31.2615 17.6892C32.1771 17.8264 33.1108 17.7816 34.009 17.5571C34.9071 17.3327 35.752 16.9331 36.4953 16.3812C37.2385 15.8294 37.8654 15.1362 38.3401 14.3414C38.8147 13.5466 39.1277 12.6658 39.2612 11.7495C39.3947 10.8333 39.3459 9.89966 39.1178 9.00215C38.8896 8.10464 38.4866 7.26095 37.9318 6.51945C35.7255 3.53194 31.2471 2.71271 28.4152 4.92988ZM35.019 14.3609C34.5429 14.7285 33.9978 14.9967 33.416 15.1498C32.8343 15.3029 32.2276 15.3377 31.6321 15.2521C31.0365 15.1665 30.4642 14.9623 29.9488 14.6515C29.4335 14.3408 28.9857 13.9298 28.632 13.443C27.174 11.4685 27.426 8.65152 29.183 7.32674C31.2203 5.76206 34.0618 5.63049 35.9392 7.98019C36.3089 8.45537 36.579 9.00024 36.7332 9.58218C36.8874 10.1641 36.9225 10.7711 36.8366 11.3669C36.7507 11.9627 36.5454 12.5349 36.2331 13.0494C35.9208 13.5638 35.5079 14.0099 35.019 14.3609Z" fill="#202020"></path><path d="M35.9393 7.98029C36.6629 8.94979 36.9721 10.1668 36.799 11.3638C36.6259 12.5608 35.9846 13.6399 35.0161 14.364C34.0477 15.088 32.8312 15.3977 31.6341 15.2251C30.437 15.0524 29.3572 14.4114 28.6321 13.4431C27.1741 11.4686 27.4261 8.65162 29.1831 7.32684C31.2204 5.76217 34.0619 5.63059 35.9393 7.98029Z" fill="#F7CE4C"></path></svg>