<svg xmlns="http://www.w3.org/2000/svg" width="42" height="33" viewBox="0 0 42 33" fill="none"><path d="M25.8377 26.3586C25.5629 25.0211 25.0053 23.7579 24.2024 22.6538C22.3101 20.0239 20.4649 17.3598 18.564 14.7342C17.7291 13.5778 16.8258 12.4728 15.9224 11.3677C15.2695 10.5582 14.4744 9.87454 13.5763 9.35037C11.851 8.35668 10.1899 8.53229 8.7771 9.92002C8.23429 10.4746 7.74942 11.0831 7.32999 11.736C6.93984 12.3333 6.59772 12.9606 6.30683 13.6121C4.02513 18.5552 2.11608 23.662 0.595643 28.89C0.433006 29.4511 0.330267 30.025 0.210379 30.5947C0.166378 30.8349 0.172963 31.0816 0.22973 31.319C0.286498 31.5565 0.392191 31.7795 0.540043 31.9738C1.5489 32.3386 2.63744 32.4245 3.69097 32.2223C6.49948 31.7468 9.32513 31.3614 12.1292 30.8731C15.6399 30.2606 19.1376 29.5882 22.6354 28.9328C23.4686 28.797 24.275 28.5295 25.0243 28.1404C25.3532 27.9931 25.6172 27.7309 25.7669 27.403C25.9166 27.0751 25.9418 26.7038 25.8377 26.3586ZM3.58821 29.1684C3.21151 28.9414 3.32283 28.6972 3.41272 28.4574C4.98818 24.2899 6.48232 20.0881 8.3104 16.0149C8.80478 14.8906 9.40095 13.8139 10.0915 12.7983C10.5237 12.1644 10.5367 12.1729 11.5428 11.6076C12.1129 11.7501 12.621 12.075 12.9899 12.5327C13.5332 13.0862 14.0435 13.6711 14.5182 14.2845C17.1469 17.8781 19.7541 21.493 22.5369 25.3393C16.0466 26.6842 9.74037 27.7121 3.58821 29.1684Z" fill="#202020"></path><path d="M22.537 25.3393C16.0467 26.6842 9.74043 27.7122 3.58827 29.1684C3.21157 28.9414 3.32289 28.6973 3.41278 28.4574C4.98824 24.29 6.48238 20.0882 8.31046 16.015C8.80484 14.8906 9.40101 13.8139 10.0915 12.7983C10.5238 12.1644 10.5368 12.173 11.5428 11.6076C12.113 11.7502 12.6211 12.075 12.9899 12.5328C13.5332 13.0862 14.0436 13.6712 14.5183 14.2845C17.147 17.8781 19.7542 21.4931 22.537 25.3393Z" fill="#4CCBF7"></path><path d="M35.3847 0.822603C31.065 0.882574 28.0252 3.78225 27.9354 7.68846C27.9215 8.61446 28.0905 9.5341 28.4327 10.3946C28.7749 11.2551 29.2836 12.0396 29.9295 12.7029C30.5754 13.3663 31.3459 13.8956 32.1968 14.2604C33.0476 14.6252 33.9621 14.8184 34.8877 14.8288C35.8134 14.8393 36.732 14.6668 37.5908 14.3212C38.4497 13.9757 39.2319 13.4639 39.8926 12.8152C40.5533 12.1665 41.0795 11.3938 41.441 10.5412C41.8024 9.6886 41.9921 8.77302 41.9991 7.84694C42.0505 4.13345 38.9809 0.771207 35.3847 0.822603ZM34.9351 12.3271C34.3336 12.3316 33.7373 12.2153 33.1815 11.9851C32.6257 11.7549 32.1217 11.4155 31.6994 10.987C31.277 10.5585 30.9449 10.0495 30.7227 9.49031C30.5005 8.93109 30.3927 8.33294 30.4056 7.73128C30.4398 5.27706 32.345 3.18689 34.5455 3.19546C37.1143 3.1826 39.4561 4.79736 39.5288 7.8041C39.5356 8.40612 39.4209 9.00332 39.1915 9.55993C38.9621 10.1165 38.6228 10.6211 38.1939 11.0434C37.765 11.4657 37.2553 11.7971 36.6953 12.0176C36.1354 12.2382 35.5367 12.3435 34.9351 12.3271Z" fill="#202020"></path><path d="M39.5291 7.80421C39.5185 9.01391 39.0282 10.1699 38.166 11.0181C37.3038 11.8664 36.1403 12.3374 34.9311 12.3278C33.722 12.3181 32.5661 11.8285 31.7175 10.9667C30.869 10.1048 30.3972 8.94111 30.4059 7.73139C30.4401 5.27716 32.3453 3.187 34.5458 3.19557C37.1145 3.18272 39.4563 4.79747 39.5291 7.80421Z" fill="#F7CE4C"></path></svg>