<svg xmlns="http://www.w3.org/2000/svg" width="18" height="18" viewBox="0 0 18 18" fill="none"><path d="M2.3077 17.5C1.80257 17.5 1.375 17.325 1.025 16.975C0.675 16.625 0.5 16.1974 0.5 15.6923V2.3077C0.5 1.80257 0.675 1.375 1.025 1.025C1.375 0.675 1.80257 0.5 2.3077 0.5H7.86535C8.07817 0.5 8.25637 0.5718 8.39995 0.7154C8.54353 0.858983 8.61533 1.03718 8.61533 1.25C8.61533 1.46282 8.54353 1.64102 8.39995 1.7846C8.25637 1.92818 8.07817 1.99997 7.86535 1.99997H2.3077C2.23077 1.99997 2.16024 2.03203 2.09612 2.09613C2.03202 2.16024 1.99997 2.23077 1.99997 2.3077V15.6923C1.99997 15.7692 2.03202 15.8397 2.09612 15.9038C2.16024 15.9679 2.23077 16 2.3077 16H15.6923C15.7692 16 15.8397 15.9679 15.9038 15.9038C15.9679 15.8397 16 15.7692 16 15.6923V10.1346C16 9.92178 16.0718 9.74358 16.2154 9.6C16.3589 9.45642 16.5371 9.38463 16.75 9.38463C16.9628 9.38463 17.141 9.45642 17.2845 9.6C17.4282 9.74358 17.5 9.92178 17.5 10.1346V15.6923C17.5 16.1974 17.325 16.625 16.975 16.975C16.625 17.325 16.1974 17.5 15.6923 17.5H2.3077ZM6.1923 11.8077C6.04743 11.6628 5.975 11.4872 5.975 11.2808C5.975 11.0743 6.04743 10.8987 6.1923 10.7538L14.9461 1.99997H11.75C11.5371 1.99997 11.3589 1.92818 11.2154 1.7846C11.0718 1.64102 11 1.46282 11 1.25C11 1.03718 11.0718 0.858983 11.2154 0.7154C11.3589 0.5718 11.5371 0.5 11.75 0.5H16.5961C16.8538 0.5 17.0688 0.586225 17.2413 0.758675C17.4137 0.931108 17.5 1.14617 17.5 1.40385V6.25C17.5 6.46282 17.4282 6.64102 17.2845 6.7846C17.141 6.92818 16.9628 6.99998 16.75 6.99998C16.5371 6.99998 16.3589 6.92818 16.2154 6.7846C16.0718 6.64102 16 6.46282 16 6.25V3.0538L7.22113 11.8327C7.08266 11.9711 6.91535 12.0404 6.7192 12.0404C6.52305 12.0404 6.34742 11.9628 6.1923 11.8077Z" fill="#F7CE4C"></path></svg>