<svg xmlns="http://www.w3.org/2000/svg" width="44" height="66" viewBox="0 0 44 66" fill="none"><path d="M13.3453 30.8862C22.0042 22.7791 23.1758 12.1605 23.1758 0C23.1758 5.61244 27.5928 9.9676 28.823 16.9638C29.9859 23.5773 28.2684 29.0363 29.4854 34.2704C30.336 37.929 33.1498 38.8043 33.808 34.3561L33.8175 34.2918C34.1331 32.1569 34.6388 28.7371 36.3527 30.8433C40.9001 36.4314 42 43.2169 42 50.8915C42 64.0033 29.8371 64.0013 22.1144 64L21.886 63.9999C15.5746 63.9999 4.70524 60.9582 2.60856 52.2623C-0.138688 40.8683 6.93999 36.8834 13.3453 30.8862Z" fill="#F7CE4C" stroke="#231F20" stroke-width="3" stroke-linecap="round"></path></svg>