<svg xmlns="http://www.w3.org/2000/svg" width="36" height="36" viewBox="0 0 36 36" fill="none"><path d="M16.1446 2.77702C16.1446 6.29244 17.2142 11.3297 16.1446 13.3233C15.0754 15.3161 1.33215 15.7929 2.02535 18.0861C2.71856 20.3793 10.6438 19.5078 13.4926 20.6609C16.3413 21.8141 10.8005 34 13.4926 34C13.4926 34 19.2009 23.0001 22.3451 23.0001C25.3542 23.0001 32.0829 30.2772 33.7576 27.9631C35.4088 25.6812 28.0889 19.8496 27.948 18.0483C27.8072 16.247 34.3017 11.7574 33.9618 9.92126C33.6219 8.08509 28.9469 10.7086 25.8936 9.92126C21.3386 8.7467 16.1446 -0.738402 16.1446 2.77702Z" fill="#F7CE4C" stroke="#231F20" stroke-width="3" stroke-linecap="round"></path></svg>