<svg xmlns="http://www.w3.org/2000/svg" width="43" height="52" viewBox="0 0 43 52" fill="none"><path d="M37.3932 15.8393C31.8206 10.7311 19.1665 7.45499 11.7646 10.0985C4.61745 12.6511 2.33331 15.5903 2.33331 22.759C2.33331 37.4908 22.6789 27.8335 30.0121 27.8335C33.5036 27.8335 40.2577 28.0378 41.1349 31.9853C42.4245 37.7885 37.3165 40.791 32.985 43.5181C27.9022 46.7184 8.79171 49.3908 8.79171 39.8276" stroke="#231F20" stroke-width="3" stroke-linecap="round"></path><path d="M11.5597 4.76782C11.74 16.6665 16.5363 28.8297 20.786 39.8789C21.4079 41.4959 23.9344 50.5187 24.4765 49.9766" stroke="#231F20" stroke-width="3" stroke-linecap="round"></path><path d="M19.8634 2C19.8634 13.1003 25.8992 22.5391 29.0897 32.908C30.8322 38.5713 35.5572 43.5456 37.3933 49.054" stroke="#231F20" stroke-width="3" stroke-linecap="round"></path></svg>