<svg xmlns="http://www.w3.org/2000/svg" width="76" height="40" viewBox="0 0 76 40" fill="none"><rect width="76" height="40" rx="16" fill="white"></rect><mask id="mask0_119_2831" style="mask-type:alpha" maskUnits="userSpaceOnUse" x="10" y="10" width="20" height="20"><rect x="10" y="10" width="20" height="20" fill="#D9D9D9"></rect></mask><g mask="url(#mask0_119_2831)"><path d="M21.2292 24.2709L17.4792 20.5209C17.4098 20.4515 17.3575 20.3715 17.3225 20.2809C17.2881 20.1909 17.2709 20.0973 17.2709 20.0001C17.2709 19.9029 17.2881 19.809 17.3225 19.7184C17.3575 19.6284 17.4098 19.5487 17.4792 19.4792L21.2292 15.7292C21.3542 15.6042 21.5 15.5417 21.6667 15.5417C21.8334 15.5417 21.9792 15.6042 22.1042 15.7292C22.2292 15.8542 22.2917 16.0001 22.2917 16.1667C22.2917 16.3334 22.2292 16.4792 22.1042 16.6042L18.7084 20.0001L22.1042 23.3959C22.2292 23.5209 22.2917 23.6667 22.2917 23.8334C22.2917 24.0001 22.2292 24.1459 22.1042 24.2709C21.9792 24.3959 21.8334 24.4584 21.6667 24.4584C21.5 24.4584 21.3542 24.3959 21.2292 24.2709Z" fill="#231F20"></path></g><mask id="mask1_119_2831" style="mask-type:alpha" maskUnits="userSpaceOnUse" x="46" y="10" width="20" height="20"><rect x="46" y="10" width="20" height="20" fill="#D9D9D9"></rect></mask><g mask="url(#mask1_119_2831)"><path d="M53.3959 24.2709C53.2709 24.1459 53.2084 24.0001 53.2084 23.8334C53.2084 23.6667 53.2709 23.5209 53.3959 23.3959L56.7917 20.0001L53.3959 16.6042C53.2709 16.4792 53.2084 16.3334 53.2084 16.1667C53.2084 16.0001 53.2709 15.8542 53.3959 15.7292C53.5209 15.6042 53.6667 15.5417 53.8334 15.5417C54 15.5417 54.1459 15.6042 54.2709 15.7292L58.0209 19.4792C58.0903 19.5487 58.1425 19.6284 58.1775 19.7184C58.212 19.809 58.2292 19.9029 58.2292 20.0001C58.2292 20.0973 58.212 20.1909 58.1775 20.2809C58.1425 20.3715 58.0903 20.4515 58.0209 20.5209L54.2709 24.2709C54.1459 24.3959 54 24.4584 53.8334 24.4584C53.6667 24.4584 53.5209 24.3959 53.3959 24.2709Z" fill="#231F20"></path></g></svg>