<svg xmlns="http://www.w3.org/2000/svg" width="42" height="32" viewBox="0 0 42 32" fill="none"><path d="M34.9114 7.52449V7.50711H34.5695C34.4266 7.49842 34.2858 7.4843 34.1408 7.4843C33.9958 7.4843 33.855 7.49842 33.7121 7.50711H30.1078C29.6347 3.2881 26.1383 0 21.9021 0H19.8888C15.6536 0 12.1562 3.2881 11.683 7.50711H8.06072C7.91782 7.49842 7.77703 7.4843 7.63201 7.4843C3.42435 7.4843 0 10.9973 0 15.3162C0 19.6352 3.42329 23.1481 7.63201 23.1481C7.95381 23.1481 8.26925 23.1264 8.58046 23.0851C9.45163 22.971 10.2762 22.706 11.032 22.3171C11.032 22.3171 11.231 22.92 11.5062 23.7184C11.7645 24.469 12.0906 25.3923 12.3806 26.1527C12.6029 26.7349 12.8051 27.2226 12.9406 27.4627L12.985 27.5811L12.9988 27.5757C13.0464 27.6713 13.0962 27.7658 13.148 27.8592C13.6625 28.7934 14.3738 29.6254 15.2196 30.2935C16.5586 31.3515 18.2364 32 20.0094 32H21.7761C23.5386 32 25.156 31.3591 26.422 30.2935C27.2106 29.6298 27.8627 28.7999 28.3295 27.8592C28.375 27.7669 28.4195 27.6745 28.4607 27.5811H28.4629L28.4724 27.5561C28.4925 27.5116 28.5084 27.4649 28.5274 27.4203C28.6619 27.1694 28.8545 26.7034 29.0641 26.1527C29.3552 25.3923 29.6802 24.469 29.9385 23.7184C30.2137 22.92 30.4127 22.3171 30.4127 22.3171L30.4645 22.1781C30.9366 22.4453 31.4405 22.6593 31.9666 22.8201C32.6546 23.0308 33.3829 23.1481 34.1366 23.1481C38.3443 23.1481 41.7686 19.6352 41.7686 15.3162C41.7686 11.2645 38.755 7.92206 34.9083 7.52449H34.9114ZM19.8898 1.70651H21.9031C25.2195 1.70651 27.9654 4.23205 28.4279 7.50711H13.365C13.8276 4.23314 16.5734 1.70651 19.8898 1.70651ZM18.0744 13.7292L20.7081 9.92512L23.5026 13.7292H18.0744ZM24.7559 15.4357L26.5448 17.87H15.2058L16.892 15.4357H24.7559ZM12.3965 18.9888C12.244 19.1952 12.081 19.3918 11.9064 19.5776C10.8224 20.7247 9.31085 21.4416 7.63413 21.4416C4.34316 21.4416 1.66613 18.6945 1.66613 15.3173C1.66613 11.9401 4.34316 9.19189 7.63413 9.19189C7.67224 9.19189 7.70823 9.19732 7.74634 9.19732V9.21362H19.1594L16.0304 13.7292L15.2524 14.8524L14.848 15.4357L14.2436 16.308L12.5997 18.6955L12.4494 18.9139C12.4314 18.9389 12.4145 18.9638 12.3965 18.9888ZM21.7793 30.2957H20.0126C18.0649 30.2957 16.2675 29.3137 15.1349 27.8614H26.3881C25.355 29.3332 23.6772 30.2957 21.7793 30.2957ZM27.8457 24.456L27.4731 25.4597L27.1598 26.1538H14.3135L13.98 25.4597L13.6074 24.456L13.3343 23.7195H28.1188L27.8457 24.456ZM28.8704 21.6903L28.7508 22.0119H12.7003L12.5807 21.6903L12.4632 21.3742C13.0623 20.8702 13.5831 20.2728 14.0107 19.6069L14.0308 19.5776H27.7431L27.7632 19.6069C28.1305 20.1805 28.5719 20.6975 29.0694 21.1527L28.8704 21.6903ZM34.1419 21.4416C32.4641 21.4416 30.9494 20.7258 29.8644 19.5776C29.7024 19.406 29.5521 19.2235 29.4102 19.0345C29.3944 19.0127 29.3764 18.9921 29.3605 18.9704C29.333 18.9334 29.3065 18.8954 29.28 18.8574L26.8984 15.5074L26.8465 15.4368L26.5257 15.0012L25.5911 13.7303L22.2705 9.21471H34.5706C37.6615 9.44173 40.1099 12.0889 40.1099 15.3173C40.1099 18.5456 37.4329 21.4416 34.1419 21.4416Z" fill="#231F20"></path></svg>